<?xml version="1.0" standalone="no"?>
<!DOCTYPE svg PUBLIC "-//W3C//DTD SVG 20010904//EN"
 "http://www.w3.org/TR/2001/REC-SVG-20010904/DTD/svg10.dtd">
<svg version="1.0" xmlns="http://www.w3.org/2000/svg"
 width="119.000000pt" height="92.000000pt" viewBox="0 0 119.000000 92.000000"
 preserveAspectRatio="xMidYMid meet">

<g transform="translate(0.000000,92.000000) scale(0.100000,-0.100000)"
fill="#000000" stroke="none">
<path d="M884 690 c-143 -52 -381 -82 -628 -78 -155 2 -169 1 -182 -17 -8 -10
-14 -23 -14 -28 0 -14 437 -1 550 16 165 25 307 72 339 110 18 22 3 22 -65 -3z"/>
<path d="M200 461 c-91 -28 -141 -140 -91 -202 17 -22 27 -24 97 -24 63 0 79
3 82 15 2 12 -5 15 -35 12 -21 -2 -50 1 -65 7 -25 9 -28 16 -28 55 0 33 7 52
26 75 23 28 31 31 84 31 40 0 59 4 63 14 9 24 -75 34 -133 17z"/>
<path d="M375 448 c-5 -15 -45 -205 -45 -213 0 -3 13 -5 30 -5 27 0 31 4 41
44 l11 45 65 7 c71 7 98 24 109 69 4 18 1 32 -11 45 -15 17 -31 20 -107 20
-62 0 -90 -4 -93 -12z m143 -49 c3 -28 -28 -49 -73 -49 -27 0 -28 2 -19 49 6
30 9 32 48 29 36 -3 41 -6 44 -29z"/>
<path d="M643 448 c-5 -7 -17 -51 -27 -98 -9 -47 -20 -93 -22 -103 -5 -16 -1
-18 28 -15 31 3 33 6 42 51 l8 47 58 0 c49 0 58 3 63 20 5 18 0 20 -53 20
l-58 0 7 28 c7 25 11 27 68 30 42 2 63 7 67 17 4 13 -10 15 -83 15 -59 0 -92
-4 -98 -12z"/>
<path d="M841 353 c-16 -84 -18 -109 -8 -115 6 -4 46 -8 88 -8 59 0 78 3 83
15 4 12 -4 15 -43 15 -50 0 -76 16 -66 41 3 8 11 47 18 87 l14 72 -32 0 -32 0
-22 -107z"/>
<path d="M316 162 c-3 -5 -8 -28 -12 -50 l-7 -42 39 1 c31 2 33 3 11 6 -38 6
-32 36 8 44 l30 7 -28 1 c-37 1 -31 24 9 32 28 6 27 7 -8 8 -20 0 -39 -3 -42
-7z"/>
<path d="M416 153 c-13 -50 -17 -83 -8 -83 6 0 13 18 17 40 4 22 10 40 14 40
4 0 13 -18 20 -40 17 -58 44 -55 58 7 6 27 9 50 7 53 -8 7 -24 -23 -24 -47 0
-39 -19 -35 -30 7 -8 29 -16 40 -30 40 -10 0 -21 -8 -24 -17z"/>
<path d="M551 133 c-17 -59 -15 -63 27 -62 30 2 32 3 10 6 -16 2 -28 7 -28 11
1 16 17 30 40 35 24 4 24 4 -3 6 -39 2 -29 24 14 32 34 6 34 6 -8 8 -40 1 -42
0 -52 -36z"/>
<path d="M655 138 c-4 -18 -9 -41 -11 -50 -3 -10 0 -18 6 -18 7 0 14 9 17 20
3 11 9 20 14 20 4 0 13 -9 19 -20 15 -28 32 -25 24 4 -4 16 -1 25 10 29 21 8
21 33 0 41 -9 3 -28 6 -44 6 -24 0 -29 -5 -35 -32z m68 15 c9 -9 -12 -33 -29
-33 -8 0 -14 9 -14 20 0 19 28 28 43 13z"/>
<path d="M793 160 c-31 -13 -42 -59 -18 -77 21 -15 75 -18 75 -4 0 5 3 16 6
25 4 9 1 16 -6 16 -6 0 -14 -9 -17 -20 -8 -29 -37 -21 -41 11 -4 30 12 46 53
52 l30 4 -30 1 c-16 0 -40 -3 -52 -8z"/>
<path d="M891 133 c-14 -48 -14 -63 -1 -63 12 0 16 10 25 63 3 22 2 37 -4 37
-6 0 -15 -17 -20 -37z"/>
<path d="M960 126 c-16 -25 -30 -48 -30 -52 0 -15 39 29 51 57 14 35 29 23 29
-23 0 -25 15 -46 26 -35 10 10 -19 97 -32 97 -7 0 -27 -20 -44 -44z"/>
</g>
</svg>
