<svg xmlns="http://www.w3.org/2000/svg" xmlns:xlink="http://www.w3.org/1999/xlink" viewBox="0 0 188.89 80.92"><defs><style>.cls-1{fill:none;clip-rule:evenodd;}.cls-2{fill:#002639;}.cls-10,.cls-18,.cls-2,.cls-3,.cls-5,.cls-7,.cls-8,.cls-9{fill-rule:evenodd;}.cls-16,.cls-3{fill:#fff;}.cls-4,.cls-5{fill:#004e78;}.cls-6{fill:#ffcc03;}.cls-7{fill:#b09e54;}.cls-8{fill:#9a9a98;}.cls-9{fill:#c4c3c3;}.cls-10{fill:#d0d5d9;}.cls-11{clip-path:url(#clip-path);}.cls-12{fill:url(#Gradiente_sem_nome_2);}.cls-13{clip-path:url(#clip-path-2);}.cls-14{fill:url(#Gradiente_sem_nome_2-2);}.cls-15{fill:#040403;}.cls-17,.cls-18{fill:#006d3a;}</style><clipPath id="clip-path"><polygon class="cls-1" points="23.12 24.54 23.12 24.54 23.12 24.53 23.12 24.54"/></clipPath><linearGradient id="Gradiente_sem_nome_2" x1="23.11" y1="24.54" x2="23.13" y2="24.54" gradientUnits="userSpaceOnUse"><stop offset="0" stop-color="#0c431f"/><stop offset="0.27" stop-color="#0a763c"/><stop offset="0.55" stop-color="#18411d"/><stop offset="0.77" stop-color="#00582e"/><stop offset="1" stop-color="#004021"/></linearGradient><clipPath id="clip-path-2"><polyline class="cls-1" points="47.74 30.99 47.74 30.99 47.73 30.98 47.74 30.99"/></clipPath><linearGradient id="Gradiente_sem_nome_2-2" x1="47.73" y1="30.98" x2="47.75" y2="30.98" xlink:href="#Gradiente_sem_nome_2"/></defs><title>Asset 1</title><g id="Layer_2" data-name="Layer 2"><g id="Modo_de_isolamento" data-name="Modo de isolamento"><path class="cls-2" d="M16.2,66.27S27.29,75.5,35.33,76.49l0-1.46A48.4,48.4,0,0,1,19,61.45Z"/><path class="cls-3" d="M18.6,41.59V54.22s.33,6.2,6.78,5.66c0,0,9.57-1.07,10.84,3.08a6.45,6.45,0,0,1,6.13-3.08S53.16,62.08,54,53.83L53.91,42Z"/><rect class="cls-4" x="18.76" y="45.55" width="34.84" height="1.55"/><rect class="cls-4" x="18.76" y="42.79" width="34.84" height="1.55"/><rect class="cls-4" x="18.76" y="48.38" width="34.84" height="1.55"/><rect class="cls-4" x="18.76" y="51.21" width="34.84" height="1.55"/><path class="cls-5" d="M53.46,55.59H19c-.1-.3-.18-.58-.24-.82V54H53.6v1.18c0,.13-.09.25-.14.37"/><path class="cls-5" d="M51,58.42H21a5.39,5.39,0,0,1-1.41-1.55H52.72A6.19,6.19,0,0,1,51,58.42"/><path class="cls-5" d="M37.25,61.53H35.43a6.5,6.5,0,0,0-3.31-1.65h7.67a6.33,6.33,0,0,0-2.54,1.65"/><rect class="cls-6" x="19.17" y="16.82" width="34.23" height="24.49"/><path class="cls-7" d="M53.27,53.79c0,4.3-3.34,5.47-4.51,5.53-.56,0-1.12,0-1.74,0l-1.41,0H45.2c-.69,0-1.37,0-2,0H42.09c-2.11,0-4.28.2-5.85,2.45-1.58-2.25-3.76-2.45-5.87-2.45H29.3c-.67,0-1.35,0-2,0h-.42l-1.4,0c-.63,0-1.18,0-1.74,0a5.16,5.16,0,0,1-4.52-5.53l0-36.9H53.29ZM18.12,15.85l0,37.94a6.18,6.18,0,0,0,5.5,6.56c.55,0,1.12,0,1.8,0h4.81c2.37,0,4.44.24,5.8,3.23l.19.42.18-.42c1.36-3,3.43-3.23,5.8-3.23H47c.67,0,1.24,0,1.79,0a6.18,6.18,0,0,0,5.5-6.56l0-37.94H18.12Z"/><path class="cls-3" d="M36.24,17H53.16l0,36.78c0,4.21-3.25,5.34-4.39,5.41-.56,0-1.11,0-1.73,0H42.09c-2.08,0-4.25.18-5.85,2.36-1.61-2.18-3.78-2.36-5.87-2.36H25.44c-.62,0-1.17,0-1.73,0a5.05,5.05,0,0,1-4.41-5.41V17ZM19.06,53.79c0,4.4,3.43,5.59,4.63,5.65.57,0,1.13.05,1.75.05l1.41,0h1.24l1.23,0h1.05c2.07,0,4.22.19,5.76,2.41l.11.14.1-.14c1.54-2.22,3.69-2.41,5.75-2.41l1.07,0h2.45l1.41,0c.62,0,1.17,0,1.74-.05,1.2-.06,4.63-1.25,4.63-5.65l0-36.9v-.13H19Z"/><path class="cls-2" d="M15.55,71.77a20.33,20.33,0,0,0,7.28,2.43l.66-2.34a21,21,0,0,1-7.94-.09"/><path class="cls-5" d="M11.23,68.69,8.74,69.77c2.1,2.76,6.11,4.19,6.11,4.19l.7-2.18s4.59,1,7.94.08c0,0-5.59.29-11.8-6.23Z"/><path class="cls-2" d="M30.46,79.48a12,12,0,0,0,4.84-3,22.41,22.41,0,0,1-4.64,1.35Z"/><path class="cls-5" d="M13.91,76.42a24.91,24.91,0,0,0,15.72,1.69,25.46,25.46,0,0,0,5.67-1.58v-.3s0-1.22,0-1.22a54.09,54.09,0,0,1-11.2-.79c-2.89-.54-6.14-1-8.54-2.45Z"/><path class="cls-5" d="M30.46,79.48l2.19,1.44s2.58-1.75,2.68-4.43a12.46,12.46,0,0,1-4.87,3"/><rect class="cls-4" x="35.3" y="75" width="1.93" height="1.51" transform="translate(-0.8 0.39) rotate(-0.61)"/><polygon class="cls-8" points="36.04 4.85 34.7 7.69 31.54 7.99 33.86 10.14 33.19 13.23 35.95 11.68 38.77 13.31 38.09 10.19 40.4 8.12 37.3 7.72 36.04 4.85"/><polygon class="cls-9" points="34.7 7.69 35.97 9.36 36.04 4.85 34.7 7.69"/><polygon class="cls-9" points="31.54 7.99 35.97 9.36 33.86 10.14 31.54 7.99"/><polygon class="cls-9" points="37.3 7.72 35.97 9.36 40.4 8.12 37.3 7.72"/><polygon class="cls-9" points="35.95 11.68 35.97 9.36 33.19 13.23 35.95 11.68"/><polygon class="cls-9" points="35.97 9.36 38.77 13.31 38.09 10.19 35.97 9.36"/><path class="cls-10" d="M31.8,54.31s2,2.46,7.16.86a4.26,4.26,0,0,1,2.1,1.3,7.77,7.77,0,0,0-1.15-1.83,4.87,4.87,0,0,1,1.67-1.27,2.75,2.75,0,0,0-2.31.69,4.21,4.21,0,0,0-2.2-1,1.45,1.45,0,0,1,.6-.66,2.34,2.34,0,0,0-2.23.57s-2.91-.06-3.64,1.33"/><path class="cls-5" d="M33.4,54a.25.25,0,0,1-.26.26.26.26,0,0,1-.26-.26.25.25,0,0,1,.26-.26.26.26,0,0,1,.26.26"/><path class="cls-10" d="M35.39,46.07s.31,3.17-4.47,5.67a4.24,4.24,0,0,0-.58,2.4A7.75,7.75,0,0,1,29.87,52a5,5,0,0,0-2.09.29,2.76,2.76,0,0,1,2.13-1.14,4.24,4.24,0,0,1,.86-2.25,1.48,1.48,0,0,0-.9-.06,2.35,2.35,0,0,1,2-1.17s2-2.1,3.53-1.63"/><path class="cls-5" d="M34,46.94a.26.26,0,0,0,.37,0,.27.27,0,0,0,0-.38.28.28,0,0,0-.38,0,.27.27,0,0,0,0,.37"/><path class="cls-10" d="M43.55,52.88s-3.19.31-5.7-4.46a4.29,4.29,0,0,0-2.41-.57,7.84,7.84,0,0,1,2.12-.47,5,5,0,0,0-.29-2.08,2.73,2.73,0,0,1,1.15,2.12,4.29,4.29,0,0,1,2.26.86,1.52,1.52,0,0,0,0-.9,2.35,2.35,0,0,1,1.18,2s2.1,2,1.64,3.51"/><path class="cls-5" d="M42.67,51.49a.25.25,0,0,0,0,.37.26.26,0,1,0,0-.37"/><g class="cls-11"><rect class="cls-12" x="23.12" y="24.53"/></g><g class="cls-13"><rect class="cls-14" x="47.73" y="30.98" width="0.01" height="0.01"/></g><polygon class="cls-15" points="18.95 9.39 20 7.92 20.39 8.2 19.65 9.22 20.3 9.68 20.89 8.86 21.28 9.13 20.68 9.96 21.35 10.43 22.12 9.35 22.51 9.62 21.41 11.15 18.95 9.39"/><path class="cls-15" d="M22.41,8.56a1.25,1.25,0,0,0,.76-.33.38.38,0,0,0,0-.57c-.39-.37-1.31.73-2,.09a.92.92,0,0,1,.06-1.34A1.29,1.29,0,0,1,22.14,6l.16.48a1.16,1.16,0,0,0-.66.3.42.42,0,0,0-.05.58c.39.37,1.28-.75,2-.09a.9.9,0,0,1,0,1.33,1.5,1.5,0,0,1-1,.48Z"/><polygon class="cls-15" points="23.4 5.15 22.63 5.77 22.33 5.4 24.31 3.81 24.61 4.18 23.83 4.8 25.44 6.79 25.01 7.13 23.4 5.15"/><path class="cls-15" d="M27.22,4.67l-.91.54.18.8L26,6.3l-.66-3.13.49-.3,2.49,2-.49.29Zm-1.35-1.2s.09.29.13.46l.19.83.68-.41-.65-.55c-.14-.12-.35-.34-.35-.34Z"/><path class="cls-15" d="M27.61,1.91l1-.38a1.42,1.42,0,0,1,2,.84,1.41,1.41,0,0,1-.88,2l-1,.38Zm1.88,2A.93.93,0,0,0,30,2.57.94.94,0,0,0,28.72,2l-.42.17.77,1.93Z"/><path class="cls-15" d="M32.2.39A1.52,1.52,0,0,1,34,1.59,1.57,1.57,0,1,1,31,2.21,1.53,1.53,0,0,1,32.2.39M32.72,3a1,1,0,0,0,.77-1.26,1,1,0,1,0-2,.4A1,1,0,0,0,32.72,3Z"/><path class="cls-15" d="M36.28,0l1,.06a1.41,1.41,0,0,1,1.46,1.58,1.42,1.42,0,0,1-1.63,1.43l-1,0Zm.86,2.6a.94.94,0,0,0,1.06-1,.93.93,0,0,0-1-1.08L36.8.5l-.11,2.08Z"/><path class="cls-15" d="M41.17.55A1.51,1.51,0,0,1,42.34,2.4a1.57,1.57,0,1,1-3.05-.72A1.52,1.52,0,0,1,41.17.55m-.61,2.54a1,1,0,0,0,1.23-.82,1,1,0,1,0-1.95-.46A1,1,0,0,0,40.56,3.09Z"/><path class="cls-15" d="M45,1.89l1,.54a.92.92,0,0,1,.41,1.31,1,1,0,0,1-1.32.45l-.55-.29-.47.93-.49-.25Zm.26,1.83A.48.48,0,0,0,46,3.49a.48.48,0,0,0-.21-.69l-.47-.23-.47.91Z"/><polygon class="cls-15" points="47.51 3.28 47.97 3.58 46.3 6.11 45.84 5.8 47.51 3.28"/><path class="cls-15" d="M48.67,7l-.81-.68-.7.42-.44-.36L49.5,4.72l.44.37-1.14,3-.44-.37Zm.71-1.66-.4.28L48.25,6l.6.51.32-.79c.07-.17.21-.43.21-.43Z"/><path class="cls-15" d="M51.22,6.25l.36.42L50.12,7.93a.6.6,0,0,0,0,.92.6.6,0,0,0,.92.09l1.47-1.26.36.41L51.36,9.36a1.13,1.13,0,0,1-1.66-.18,1.1,1.1,0,0,1,.06-1.66Z"/><path class="cls-15" d="M53.34,8.85l.31.45L51.14,11l-.31-.45Zm.85-.14.32.46-.73,0-.25-.36Z"/><path class="cls-2" d="M56.31,66.27S45.16,75.5,37.07,76.49l0-1.46A48.71,48.71,0,0,0,53.52,61.45Z"/><path class="cls-5" d="M53.51,61.45c-4.18,3-10.35,4.89-17.31,5.12C29.28,66.34,23.14,64.4,19,61.45L16.2,66.27a39.08,39.08,0,0,0,19.07,5.64h1.86a39.48,39.48,0,0,0,19.18-5.64Z"/><path class="cls-2" d="M57,71.77a20.6,20.6,0,0,1-7.32,2.43L49,71.86a21.24,21.24,0,0,0,8-.09"/><path class="cls-5" d="M61.31,68.69l2.51,1.08C61.7,72.53,57.67,74,57.67,74L57,71.78s-4.61,1-8,.08c0,0,5.62.29,11.86-6.23Z"/><path class="cls-2" d="M42,79.48a12.23,12.23,0,0,1-4.87-3,22.94,22.94,0,0,0,4.66,1.35Z"/><path class="cls-5" d="M58.61,76.42a25.15,25.15,0,0,1-15.8,1.69,25.77,25.77,0,0,1-5.71-1.58v-.3s0-1.22,0-1.22a54.69,54.69,0,0,0,11.26-.79c2.91-.54,6.18-1,8.59-2.45Z"/><path class="cls-5" d="M42,79.48l-2.2,1.44s-2.59-1.75-2.7-4.43a12.59,12.59,0,0,0,4.9,3"/><path class="cls-16" d="M19.05,64l.33.17c-.28.59-.57,1.17-.85,1.75l-.34-.18Z"/><path class="cls-16" d="M19.83,64.38l.35.17,0,1c0,.12,0,.3,0,.3h0s.12-.13.21-.21l.75-.72.36.15c-.2.62-.4,1.25-.59,1.87l-.35-.15c.11-.35.22-.7.34-1,0-.12.11-.28.11-.28h0s-.13.15-.22.23l-.61.55-.3-.14c0-.27,0-.55,0-.83a2.84,2.84,0,0,1,0-.32h0s-.07.16-.13.27l-.54,1-.34-.17,1-1.68"/><path class="cls-16" d="M21.9,65.32l.72.29a.62.62,0,0,1,.38.82.6.6,0,0,1-.83.37l-.39-.15c-.09.2-.17.41-.25.62l-.35-.14.72-1.81m.31,1.17a.33.33,0,1,0,.24-.62l-.32-.13-.24.62Z"/><path class="cls-16" d="M23.79,67.58l-.69-.24-.33.41-.37-.14c.45-.52.89-1,1.33-1.58l.35.12c0,.69.05,1.39.09,2.09l-.37-.13c0-.17,0-.35,0-.53m0-1.17s-.11.17-.18.26-.23.28-.34.43l.51.18c0-.19,0-.37,0-.56s0-.31,0-.31Z"/><path class="cls-16" d="M24.46,66.28l.37.12c0,.45,0,.9.06,1.35,0,.12,0,.3,0,.3h0s.08-.15.15-.25c.27-.36.52-.73.78-1.09l.37.1c-.4.56-.81,1.12-1.24,1.67l-.35-.11c-.06-.7-.11-1.39-.14-2.09"/><path class="cls-16" d="M26.38,66.86l.34.1-.47,1.89-.37-.1c.17-.63.33-1.26.5-1.89"/><path class="cls-16" d="M27.05,67l.65.16a1,1,0,0,1,.8,1.18.93.93,0,0,1-1.23.73l-.68-.17c.15-.63.3-1.27.46-1.9m.27,1.76a.6.6,0,0,0,.81-.5.62.62,0,0,0-.51-.8l-.29-.07c-.1.43-.21.87-.31,1.3Z"/><path class="cls-16" d="M28.92,67.47l.35.07c-.07.41-.15.82-.22,1.23a.4.4,0,0,0,.37.48.4.4,0,0,0,.52-.33c.06-.41.13-.82.19-1.23l.36.06L30.3,69a.82.82,0,0,1-1.61-.29c.07-.41.15-.82.23-1.23"/><path class="cls-16" d="M30.83,67.8l.38.06.27,1,.07.3h0s.07-.16.13-.27l.49-.92.38,0c0,.65,0,1.3,0,2l-.37,0c0-.37,0-.73,0-1.1,0-.13,0-.3,0-.3h0s-.08.18-.14.29-.27.48-.41.71l-.32,0c-.08-.26-.16-.53-.23-.79a2.44,2.44,0,0,1-.07-.32h0s0,.18,0,.31c-.08.35-.15.71-.23,1.07l-.37-.06c.14-.64.29-1.27.43-1.91"/><path class="cls-16" d="M33.83,68.12l1.12,0c0,.11,0,.21,0,.31l-.78,0c0,.19,0,.37,0,.56l.66,0c0,.1,0,.2,0,.3l-.67,0c0,.26,0,.53,0,.79l-.38,0c0-.65.08-1.3.13-1.95"/><path class="cls-16" d="M35.18,68.18l1.17,0v.3h-.83V69h.68v.31h-.69v.53h.89c0,.1,0,.21,0,.31l-1.29,0,.06-1.95"/><path class="cls-16" d="M36.66,68.19h.63a1,1,0,0,1,.4,0,.59.59,0,0,1,0,1.07h0a.51.51,0,0,1,.07.1l.46.71h-.42c-.15-.23-.29-.47-.44-.71H37c0,.24,0,.49,0,.73h-.38c0-.66,0-1.31,0-2m.7.9a.28.28,0,0,0,.31-.31c0-.19-.09-.3-.38-.29H37c0,.2,0,.41,0,.61Z"/><path class="cls-16" d="M38.31,68.14l.36,0,.12,2-.37,0c0-.66-.07-1.3-.11-2"/><path class="cls-16" d="M39,68.09,40.17,68l0,.31-.82.08c0,.17,0,.34,0,.51l.68-.07,0,.31-.68.06c0,.17,0,.35,0,.52l.9-.08,0,.3c-.43,0-.85.09-1.28.12,0-.65-.09-1.3-.14-2"/><path class="cls-16" d="M40.48,68l.35,0c.29.34.59.68.9,1a3.12,3.12,0,0,1,.21.28h0s0-.19-.06-.3c-.05-.37-.11-.75-.16-1.12l.35,0,.3,1.93-.37.06c-.31-.34-.62-.67-.92-1a2.39,2.39,0,0,1-.2-.28h0a2.85,2.85,0,0,1,0,.3c0,.37.09.74.13,1.11l-.37,0L40.48,68"/><path class="cls-16" d="M43,67.89l-.64.11c0-.1,0-.2,0-.3.55-.09,1.09-.19,1.63-.31l.06.3-.64.13.3,1.62-.37.07Z"/><path class="cls-16" d="M44.82,67.18l.62-.15a1.11,1.11,0,0,1,.4,0,.53.53,0,0,1,.44.43.56.56,0,0,1-.19.61h0l.09.08.6.59-.41.11-.58-.6-.34.09c.06.23.11.47.17.7l-.37.09c-.15-.63-.29-1.26-.43-1.9m.88.73a.29.29,0,0,0,.23-.38c0-.18-.15-.27-.43-.2l-.27.07.15.59Z"/><path class="cls-16" d="M46.39,66.77l.34-.1c.12.4.23.8.34,1.2a.39.39,0,0,0,.55.26.4.4,0,0,0,.32-.53l-.36-1.19.34-.11c.13.39.25.79.38,1.19a.75.75,0,0,1-.58,1,.72.72,0,0,1-1-.46l-.33-1.21"/><path class="cls-16" d="M48.21,66.2l.35-.12c.2.61.41,1.23.62,1.84l-.36.13c-.2-.62-.4-1.23-.61-1.85"/><path class="cls-16" d="M48.82,66l.34-.12c.36.26.73.53,1.11.78l.27.22h0l-.13-.28c-.13-.35-.26-.7-.4-1l.34-.14c.23.61.47,1.21.71,1.82l-.35.14-1.13-.77a2,2,0,0,1-.26-.22h0s.08.17.12.28l.38,1-.36.14c-.21-.62-.43-1.23-.64-1.85"/><path class="cls-16" d="M52.21,66.16l-.67.3c0,.18,0,.36,0,.53l-.36.16c0-.7,0-1.39-.07-2.09l.35-.15c.47.49,1,1,1.45,1.47l-.36.17-.36-.39m-.77-.86a2.57,2.57,0,0,1,0,.31c0,.18,0,.37,0,.55l.5-.22-.38-.4-.19-.25Z"/><path class="cls-16" d="M52.26,64.55,53.34,64l.14.27-.77.38.22.46c.21-.1.42-.2.62-.31l.14.27-.63.32c.08.15.15.31.22.47.28-.14.56-.27.83-.42l.14.27c-.39.21-.79.4-1.18.59l-.81-1.76"/><path class="cls-16" d="M17,75.55c.13-.48.79-.39.85-.66a.2.2,0,0,0-.15-.24.33.33,0,0,0-.29.1l-.15-.17a.52.52,0,0,1,.51-.15.42.42,0,0,1,.35.5c-.11.44-.74.36-.82.6l.65.17a1.6,1.6,0,0,1,0,.21l-.92-.24a.5.5,0,0,1,0-.12"/><path class="cls-16" d="M18.07,75.44l.79-.72.3.07-.18.8.18,0c0,.07,0,.14,0,.21l-.18,0c0,.12-.05.23-.08.35l-.25-.06c0-.11.05-.23.08-.35L18,75.59l0-.15m.67.09.09-.41a.64.64,0,0,1,0-.14h0a.84.84,0,0,1-.1.1l-.42.36h0Z"/><path class="cls-16" d="M19.86,74.93a3.89,3.89,0,0,0,.47.09.69.69,0,1,1-.26,1.36l-.48-.09.27-1.36m.24,1.24a.43.43,0,0,0,.55-.39.44.44,0,0,0-.38-.55l-.2,0-.18.94Z"/><path class="cls-16" d="M21.17,75.17l.82.13,0,.21-.57-.09-.06.36.47.07,0,.22L21.3,76c0,.13,0,.25-.06.37l.62.09,0,.22L21,76.53Z"/><path class="cls-16" d="M22.35,76.25l.26,0s0,0,0,.06.07.23.16.24.19,0,.21-.18.06-.5.08-.75l-.35,0c0-.07,0-.14,0-.21l.61.07c0,.32-.07.64-.11,1a.41.41,0,0,1-.49.38.42.42,0,0,1-.39-.48.25.25,0,0,0,0-.08"/><path class="cls-16" d="M24.14,76.58l-.5,0-.16.34-.27,0c.22-.44.44-.88.64-1.32l.27,0c.12.47.24.94.38,1.41l-.27,0-.09-.36M24,75.77a1.73,1.73,0,0,1-.08.21,3.73,3.73,0,0,1-.16.35l.37,0L24,76c0-.08,0-.22,0-.22Z"/><path class="cls-16" d="M24.7,75.59l.26,0c.15.28.31.56.47.83a2.07,2.07,0,0,1,.11.22h0s0-.13,0-.21c0-.27,0-.53.05-.8h.25c0,.47-.05.93-.07,1.38h-.26c-.17-.27-.33-.55-.49-.83a1.44,1.44,0,0,1-.1-.22h0a1.46,1.46,0,0,1,0,.22c0,.26,0,.52-.05.79l-.26,0Z"/><path class="cls-16" d="M26,75.67q.42,0,.84,0a1.55,1.55,0,0,0,0,.22l-.58,0c0,.12,0,.24,0,.36l.48,0c0,.07,0,.14,0,.21h-.47c0,.12,0,.25,0,.37l.63,0v.21c-.3,0-.6,0-.9,0L26,75.67"/><path class="cls-16" d="M27.08,75.71h.25c0,.46,0,.92,0,1.38h-.27l0-1.38"/><path class="cls-16" d="M27.53,75.71H28a.61.61,0,0,1,.28,0,.38.38,0,0,1,.23.37.37.37,0,0,1-.23.38h0l0,.07.3.51h-.29c-.1-.17-.2-.34-.29-.51h-.25v.51h-.26c0-.46,0-.92,0-1.38m.48.65a.2.2,0,0,0,.22-.22c0-.13-.06-.21-.25-.21h-.2v.43Z"/><path class="cls-16" d="M29.32,75.66a.72.72,0,1,1-.71.73.72.72,0,0,1,.71-.73m0,1.2a.48.48,0,0,0,.45-.51.47.47,0,0,0-.48-.46.49.49,0,0,0,0,1Z"/><path class="cls-16" d="M45.47,75.72l.47,0a.69.69,0,1,1-.08,1.38l-.5,0c0-.45.07-.91.11-1.37m.39,1.19a.43.43,0,0,0,.51-.45.44.44,0,0,0-.45-.5h-.21c0,.32-.05.63-.07,1Z"/><path class="cls-16" d="M46.84,75.78c.28,0,.55,0,.83,0a1.48,1.48,0,0,0,0,.21h-.59v.36h.48v.21h-.48V77h.64v.22c-.3,0-.61,0-.91,0,0-.46,0-.92,0-1.38"/><path class="cls-16" d="M48.35,76.92l.32,0c0-.25,0-.51-.05-.76a.58.58,0,0,0,0-.1h0a.24.24,0,0,1-.06.08l-.1.11-.16-.15.33-.35.22,0,.09,1.17.31,0a1.5,1.5,0,0,1,0,.22l-.9.06Z"/><path class="cls-16" d="M49.52,76.29a.32.32,0,0,1-.17-.25c0-.2.1-.39.41-.43a.42.42,0,0,1,.5.32.55.55,0,0,1-.12.36.34.34,0,0,1,.23.27c0,.21-.14.43-.47.47a.45.45,0,0,1-.56-.37.46.46,0,0,1,.18-.37m.19.08a.33.33,0,0,0-.11.25.24.24,0,0,0,.28.19.22.22,0,0,0,.22-.23C50.08,76.46,49.89,76.43,49.71,76.37Zm.23-.14A.41.41,0,0,0,50,76a.18.18,0,0,0-.23-.14c-.13,0-.19.09-.18.18S49.77,76.18,49.94,76.23Z"/><path class="cls-16" d="M50.54,76.8c-.07-.49.58-.67.53-.94a.2.2,0,0,0-.24-.16.32.32,0,0,0-.23.2l-.21-.09a.53.53,0,0,1,.42-.34.42.42,0,0,1,.52.32c.08.44-.54.62-.51.88l.67-.12a1.55,1.55,0,0,1,0,.21c-.32.06-.64.12-1,.16a.27.27,0,0,1,0-.12"/><path class="cls-16" d="M51.78,76.35a.45.45,0,0,0,.35.07c.15,0,.24-.14.22-.25S52.16,76,52,76l-.1,0-.09-.11.2-.35.07-.12h0l-.12,0-.41.08c0-.07,0-.14,0-.21.28,0,.55-.11.83-.18,0,0,0,.1,0,.15s-.17.31-.25.46a.42.42,0,0,1,.47.31.46.46,0,0,1-.4.55.68.68,0,0,1-.52-.08,1.47,1.47,0,0,0,.1-.22"/><path class="cls-17" d="M37.6,25.39l0,0-.13.18a1,1,0,0,1,.16-.16"/><path class="cls-17" d="M35.27,27a.72.72,0,0,1,.07-.11Z"/><path class="cls-17" d="M35.27,26.79l.14-.31c0,.09-.09.21-.14.31"/><path class="cls-17" d="M35.25,27.21c0,.05,0,.07,0,.05a.14.14,0,0,0,0-.07l0,0v0s0,0,0,0"/><path class="cls-17" d="M35.26,27.15l.07-.28a2.83,2.83,0,0,0-.07.28"/><path class="cls-17" d="M37.42,25.59l0-.05h0a.08.08,0,0,0,0,0"/><path class="cls-17" d="M37.56,25.87l0,0h0l0,0"/><path class="cls-17" d="M41.33,25.35l0,0,0,0"/><path class="cls-17" d="M41.58,23.12a0,0,0,0,0,0,0s0,0,0,0"/><path class="cls-17" d="M37.66,25.86h0l0,.08a.13.13,0,0,0,.06-.08"/><path class="cls-17" d="M40,24.17v0"/><path class="cls-17" d="M40.22,24.66h0"/><path class="cls-17" d="M39.79,26.31s0,0,0,0,0,0,0,0"/><path class="cls-17" d="M39.92,25.3l0,0s0,0,0,0"/><path class="cls-17" d="M38.05,19.6s0,0,0,0,0,0,0,0"/><path class="cls-17" d="M35.27,26.46l.15-.37-.15.31h0v.05"/><polygon class="cls-17" points="35.27 26.41 35.27 26.41 35.27 26.41 35.27 26.41"/><path class="cls-17" d="M35.27,26.4a1.91,1.91,0,0,0,0-.29l0,.08v.22h0"/><path class="cls-17" d="M36.55,19.32v0s0,0,0,0"/><path class="cls-17" d="M34,25v0s0,0,0,0"/><path class="cls-17" d="M33.1,22.19h0s0,0,0,0"/><path class="cls-17" d="M35.17,26.71,35,27h0s.07-.14.13-.27"/><path class="cls-17" d="M32.91,20.44h0"/><path class="cls-17" d="M35,27h0a.88.88,0,0,0-.06.16l.21-.36L35,27h0"/><path class="cls-17" d="M32.79,24.7h0s0,0,0,0"/><path class="cls-17" d="M34.39,25.7l0,0,0,0"/><path class="cls-17" d="M32.2,21.55h0"/><path class="cls-17" d="M34.56,25.72v0"/><path class="cls-17" d="M40.92,21.34a1.13,1.13,0,0,1-.46-.06l2.29-.06s-2-.08-2.15,0-.12,0-.09,0S42,21,42,21l-1.44.11,1.3-.28L40.58,21a7,7,0,0,0,1.17-.31c-.21,0-1.2.28-1.19.26s1-.51,1-.51L40.41,21l.64-.88-.67.82s.48-1,.47-1.06-.27.44-.28.46-.29.67-.29.67.45-1.27.45-1.26l-.35.75.3-.83-.06.13c0,.06-.23.48-.23.48l.2-.67s-.25.63-.32.87-.2.82-.2.82-.11,0-.14,0l-.2.2v0h0a1.18,1.18,0,0,0,.07-.21c0-.05-.11.15-.16.22a1,1,0,0,0-.07.15l-.07.07h0c.08-.22.2-.54.2-.53l-.19.39,0-.11.12-.24-.07.08.06-.18a.62.62,0,0,0,0,.11.66.66,0,0,1-.06.12l0,.05.09-.32-.16.39,0,0s0,0,0,0A2.44,2.44,0,0,0,39.5,21c0-.05-.1.15-.14.22a.67.67,0,0,0-.07.18l0,0c.07-.21.16-.48.15-.47s-.17.39-.17.39l.13-.45a1.06,1.06,0,0,0,0,.12c0,.06-.13.28-.13.28l.11-.44-.19.52c-.14,0-.41-.09-.58-.12l.06-.06c.06,0,.06,0,0,0l.13-.12.25-.11a1.9,1.9,0,0,1,.4-.11,1.49,1.49,0,0,0-.42,0,1.41,1.41,0,0,0-.32.1l0-.08-.11.11-.18.07v0L40,20s-1.19.64-1.3.76a.72.72,0,0,1-.2.14l.07-.13,1.56-1.2s-1.58,1.05-1.76,1.24c0,0,0-.07,0-.11l.1-.1h0l.91-.83-1,.82h0l.81-.88-.79.77h0c.28-.32.77-.86.63-.77a9.88,9.88,0,0,0-.77.85l0-.17s0,.11-.09.21h0c.09-.18.58-1,.58-1l-.54.87,0-.13a1.06,1.06,0,0,0-.05.12.34.34,0,0,0,0,.1l0,.08h0l.09-.34-.13.35h0l0-.23.08-.07-.08.05,0-.18c.28-.29.64-.55.5-.5a2.29,2.29,0,0,0-.49.42l0-.33c.16-.25.33-.54.33-.54l-.32.41v0l-.21.26v0a2.25,2.25,0,0,1,.08-.24l-.09.13v0l.4-.65a.71.71,0,0,0,.11-.18l-.4.49H38a4.3,4.3,0,0,0,.27-.47,2.85,2.85,0,0,0-.22.24h0c0-.09.2-.46.15-.41a2.78,2.78,0,0,0-.26.42h-.07c.1-.25.2-.51.18-.47s-.14.28-.23.48h0a6.1,6.1,0,0,0,.24-.59s-.17.32-.31.61h0a2.69,2.69,0,0,0,.26-.66s-.27.45-.41.68a.45.45,0,0,1,0-.11s0,0,0,0a5.56,5.56,0,0,0,.33-.66l-.1.14c.06-.14.13-.34.16-.39a5.93,5.93,0,0,0-.45.72c-.14.26.07-.33.15-.59a2.62,2.62,0,0,0-.18.52,3.57,3.57,0,0,0,.06-.59c0,.16-.12.47-.15.63l.07-.44c0-.13,0,.23-.08.37a1.19,1.19,0,0,0,0-.28,1.39,1.39,0,0,0,0,.15c0-.17,0-.42,0-.55a4.69,4.69,0,0,0-.14.8c0-.34,0-.71,0-.56s0,.61,0,.67a1.31,1.31,0,0,1,0-.15,4.88,4.88,0,0,0-.21-.72c0,.07,0,.47.06.56-.05-.18-.09-.35-.11-.39s0,.19,0,.47l0,0a3.74,3.74,0,0,0-.09-.48,3.55,3.55,0,0,0,0,.51l0,0c0-.19-.06-.38-.07-.42s0,.2,0,.45l-.05.06a2.52,2.52,0,0,0-.14-.52c0-.07,0,.45,0,.45a2.22,2.22,0,0,0-.15-.32.79.79,0,0,0,0,.24.93.93,0,0,1,0,.13l-.18-.45a1.23,1.23,0,0,0,0,.21,4.24,4.24,0,0,1,.12.41.7.7,0,0,1-.05.18v-.22l0,.23,0-.09v0l0-.12,0-.45,0,.39-.09-.23.09.37c0,.06,0,.11,0,.15s0,.08,0,.08,0-.26,0-.22a.4.4,0,0,0,0,.13L36,18.64l0-.15,0,.12h0l0,.16s0-.07,0-.07h0a.23.23,0,0,0,0-.07c0-.09,0-.17,0-.17l-.06.22-.06-.05c0-.08,0-.14,0-.15s0,.17-.08.35l-.08-.09c0-.14,0-.32,0-.29l-.06.18,0,0,0,.07c0,.06,0,.12,0,.18a1.53,1.53,0,0,0-.16-.13l-.06-.26v.22h0v.14l-.11-.1.11.11v.05l-.18-.14.09.09a.73.73,0,0,1,.09.09v0l-.19-.13,0-.2a.71.71,0,0,0,0,.16s.09.72.09.72l-.29-.82.33,1.15s.06.28-.1,0l-.57-1,.65,1.19a2.25,2.25,0,0,1-.47-.44,2.56,2.56,0,0,0-.38-.42l.76.94s-.55-.43-.76-.55a2.25,2.25,0,0,0-.51-.21,3.05,3.05,0,0,1,.47.31l.46.38.17.22-.42-.08-.11-.07s0,0,0,.05l-.28-.05L34,20v.16h-.09l0-.09v.09h-.15V20c0-.23-.09-.84-.09-.84v.44s0-.24-.06-.3l0-.13,0,.46s-.08-.4-.08-.42.07.74.07.74l-.06-.2c0-.07,0-.15,0-.24s-.08-.3-.1-.25a3.77,3.77,0,0,0,0,.51l-.25-.42.2.75-.32-.54a.72.72,0,0,0,0,.13l.21.49-.35-.5.32.52-.16-.07.18.09.06.1h-.13L32.8,20l.41.41h0l-.18,0a2,2,0,0,0-.29-.15l.26.16h0l.4.25h0c-.1,0-.43-.12-.56-.14a1.13,1.13,0,0,0-.36,0,1.46,1.46,0,0,1,.36.08l.32.11c-.09.07,0,.12.19.09h.1l-.51.13-.09,0,.08,0-.18.07c-.11.05-.34.17-.18.14l.49-.15,0,0-.35.16h-.13s0,0,.06,0l-.16.07h0l-.15.09-.07.07h0l-.08.06.12-.06.33,0a1.4,1.4,0,0,0-.26.19h0l-.89.09.88,0s0,0,.08,0h.16l.09.12-.11,0c-.06-.06-.1-.1-.1-.09l0,.1h-.09c-.08-.06-.15-.11-.14-.08a.28.28,0,0,0,.08.09l-.24,0,0,0,0,0-.22,0s0,0,0,0h0l-.17,0,.18,0c.06.08.3.32.46.49l-.11-.05.12.06c.1.11.15.17.11.14a4.88,4.88,0,0,0-.89-.37l.66.36h0a2.62,2.62,0,0,0-.4-.14l.5.2.27.13c-.31-.08-1.19-.3-1-.23s.89.21.59.19l-.16,0h0a.58.58,0,0,0-.2-.06l.13.06a2.74,2.74,0,0,0-.61,0l.55.1h0a2.49,2.49,0,0,0,.31.17s-.52-.11-.46-.06.52.17.78.25a0,0,0,0,0,0,0l-.77-.12.68.16h0c-.29-.06-.86-.16-.81-.14s.45.12.8.2c0,0,0,0,0,0l-.12,0a3.77,3.77,0,0,0-.68-.11,6.46,6.46,0,0,0,.72.24s0,0,0,0c-.34-.08-.9-.25-.84-.21s.44.16.68.24h0a.32.32,0,0,0,.13,0h0s.07,0,0,0h-.09l0,0,0,0h0a4.6,4.6,0,0,0-.88.08h.66l-.34.05.37,0,.14.05a4.76,4.76,0,0,0-.65.16c.27-.06.89-.21.61-.1L32,24l-.29,0-.6.09a3.34,3.34,0,0,0,.6,0l-.27.15h-.07a7.24,7.24,0,0,0,.76-.15h.14l-.7.25.42-.13-.67.32a4.56,4.56,0,0,0,.9-.33s0,0-.1.11-.1,0,0,0h0c-.18.18-.48.46-.51.51a8.49,8.49,0,0,0,.67-.54l.07,0-.3.27-.11.07.05,0a1.4,1.4,0,0,0-.23.24s.2-.12.45-.3l.1,0c-.24.19-.47.37-.49.4a7,7,0,0,0,.64-.44h0l-.54.43c-.06.06.62-.41.77-.51h0A9.48,9.48,0,0,0,32,25c0,.07.39-.25.39-.25a2.77,2.77,0,0,0-.21.29s.71-.66.71-.66l-.69.84a.92.92,0,0,0,.16-.14c.06-.08.7-.67.7-.67l-.24.24a2.35,2.35,0,0,1,.26-.15l-.37.44-.45.36a7.08,7.08,0,0,0,.75-.4c.25-.17-.23.25-.42.43a4.54,4.54,0,0,0,.5-.43L33,25.1a.06.06,0,0,1,0,0l-.19.23c-.05.07.07-.07.18-.19l0,.09c-.09.13-.2.29-.26.39a5.25,5.25,0,0,0,.6-.74s0,0,0,.11a1.84,1.84,0,0,0-.12.3s0,.05,0,.06a2.86,2.86,0,0,0-.09.39,3.56,3.56,0,0,0,.18-.48s0,0,0,0,.09-.21.16-.37c-.07.24-.23.73-.23.8s.16-.29.3-.62l0,0c-.12.3-.24.63-.25.67a6.33,6.33,0,0,0,.34-.73h0c-.08.22-.23.61-.24.67s.23-.49.35-.74l0,0a8.21,8.21,0,0,0-.24.84c0,.08.2-.41.2-.41a1.83,1.83,0,0,0,0,.35,7.7,7.7,0,0,0,.25-.89h0l-.11.75s0,0,0,0l0,.25a.67.67,0,0,0,.06-.2l0-.06a1.73,1.73,0,0,0,.2-.12l0,.19s0-.09.06-.22.24-.17.33-.24v.08c-.06.1-.1.22-.05.21-.21.24-.46.57-.46.57l.62-.63a2.08,2.08,0,0,1-.12.27l.22-.26s-.52.69-.6.76a.76.76,0,0,0-.12.17l.68-.67,0,0,.12-.13c0,.06-.62.76-.58.75a3.48,3.48,0,0,0,.27-.24s-.28.45-.21.41.59-.78.59-.78-.5.9-.45.83.46-.7.48-.73-.54.9-.48.85.78-1.23.7-1.06-.71,1.16-.62,1.1.67-.91.61-.75l-.22.34c-.07.08-.12.14-.11.15a2.51,2.51,0,0,0-.27.41c.08-.06.64-.81.58-.68a4.83,4.83,0,0,0-.24.91c.09-.22.28-.76.26-.68a3.59,3.59,0,0,0-.09.42l.22-.88v0c0,.06,0,.25,0,.45l-.19.46.18-.31c0,.19,0,.37,0,.44h0c0-.13,0-.33.05-.47s0-.25,0-.1h0a1.49,1.49,0,0,0,0,.28.34.34,0,0,0,0,.1.77.77,0,0,1,0,.15c0,.1-.06.16-.05.16a.32.32,0,0,0,.06-.08c0,.07,0,.14,0,.17h0v-.07a1.34,1.34,0,0,1,0-.19v-.31s0-.1,0-.18v-.05a.67.67,0,0,1,0-.2v0c0-.11.08-.22.09-.31a1.18,1.18,0,0,1,.08-.16c0,.06,0,.08,0,0a.26.26,0,0,0,0-.07.29.29,0,0,0,0-.09c0-.05,0-.11,0-.17s0-.14,0-.21l.06-.1,0,.14,0,.05-.11.12.12-.11.08.11s0,.07,0,.1l-.07-.05,0,.09.08.07c0,.06,0,.13,0,.17s0,.08,0,.08.17.09.19.18,0,.22,0,.22a1,1,0,0,0-.28-.16c-.07,0-.06.08-.06.08a.4.4,0,0,1,.24.19,1,1,0,0,1,.08.23c0,.06.07,0,.07.08a.66.66,0,0,0,0,.27c0,.07,0,.15,0,.13l-.1-.14a.19.19,0,0,1,0-.12c0-.07,0-.15-.05-.14s0,.05,0,.12,0,.07,0,.11a2.16,2.16,0,0,1,.12.38c0,.12.07.12.07.17s.17.2.17.3,0,9,0,9.89c0,.59-.1,1.26-.14,1.87,0,0,.11.16.51.15l.67,0c.17-.09-.11-1.08-.17-2-.11-1.69-.14-9.91-.14-9.91a4.65,4.65,0,0,1,.37-.81,2.11,2.11,0,0,1,.35-.37s-.06-.07-.1-.05-.21.2-.26.23-.07.16-.09.19L37,27a1.26,1.26,0,0,0,0-.26.18.18,0,0,1,.06-.15l.15-.08-.09,0h-.07a1.2,1.2,0,0,1,0-.14c0-.06.08-.08.15-.11l.13-.06s0-.05,0-.05a.74.74,0,0,0-.22.1.62.62,0,0,0-.1.08.41.41,0,0,1,.1-.22,1,1,0,0,1,.22-.18c.06,0,0-.07,0-.07l0-.07-.19,0A.77.77,0,0,0,37,26s-.06,0,0-.11.18-.13.15-.18a.08.08,0,0,0-.06,0s0,0,.08-.13a.7.7,0,0,1,.21-.13v-.06l0,0-.06,0v0s0,0-.11,0-.27.14-.27.14a.25.25,0,0,1,.06-.18l0,0,0,0v0a.06.06,0,0,0,0,0,.23.23,0,0,1,.07-.07.22.22,0,0,0,.07-.06.13.13,0,0,0,.07-.08h0s0,0,0,0a3.42,3.42,0,0,0,.36-.39v0l-.12.25s-.09.27-.16.5c0,0,0,0,0,.06l-.07.12.07.11a1.69,1.69,0,0,1,.15-.22l.23-.3c0,.18,0,.38,0,.54a1.73,1.73,0,0,0-.23.24l0,0s0,0,0,0l.06-.06.18-.18a.71.71,0,0,0,0,.19c0,.14,0-.06,0-.23l0,0,.07-.07c0,.16,0,.29.05.34-.07.22-.14.47-.15.54s.1-.24.16-.38a2.24,2.24,0,0,0,.13-.29s0,0,0,.05,0,0,0-.1l.16-.39s0,1.06.06,1.23,0-.17,0-.35a2.78,2.78,0,0,1,0-.76s.11,1.12.13,1.12-.07-.91-.07-1.05h0c.07.29.17.86.21.95s0-.12,0-.26-.11-.72-.11-.74.5.73.56.84l-.33-.68s0,.06.06.07.11.12.12.1c.18.22.38.48.43.56s.15.13.13,0-.8-1-.8-1l.1.08v0c0,.05,0,.05,0,0,.25.24.79.74.88.85s-.07-.11-.11-.19a4.66,4.66,0,0,0-.46-.5.76.76,0,0,1-.07-.13l.4.32c.14.09-.05-.11-.14-.21a5.61,5.61,0,0,0-.48-.37l-.08-.07H39s0,0,0,0h.19a.58.58,0,0,1,.07.11l-.05-.11h.21c.05.08.1.13.12.16s.15.13.13,0a.72.72,0,0,0-.12-.18l.14,0h0l0,0a.15.15,0,0,0,0-.07l.14.15-.11-.18s0,0,0,0,0-.21,0-.27a1.72,1.72,0,0,1,0-.2l.07.1c.06.09.11.12.12.1a2.69,2.69,0,0,0,.1.38c.08.17.06,0,0-.18s-.07-.33-.11-.56l.22.22a1.39,1.39,0,0,1-.11-.19A.87.87,0,0,0,40,24.3l0-.17,0,0c.07,0,.06,0,0,0s0,0,0,0a1,1,0,0,1-.09-.16v0h0s.59,1,.66,1.16-.5-1.15-.5-1.15l.83,1.3c.12.19.17.2.15.08s-.94-1.47-.94-1.47,1.05,1.26,1.19,1.45l-.13-.25c-.06-.14-.69-.92-.92-1.2l0,0,.78.82c.17.16-.05-.14-.15-.28s-.71-.72-.71-.72l.72.23a1.94,1.94,0,0,1,.41.18,1.76,1.76,0,0,0-.39-.28,7.19,7.19,0,0,0-.69-.26l2,.26s-1.36-.3-1.53-.28a1.31,1.31,0,0,1-.46-.1l2.3.14s-2-.25-2.16-.22-.11,0-.08-.05,1.53,0,1.53,0l-1.45,0,.86-.11c.09.13.14.12.12,0l0,0,.25,0,0,0v0h0a.93.93,0,0,0,0-.1s0,0,0,0h0a.93.93,0,0,1-.05-.1l-.12-.17h0c-.28-.36-.89-1.05-.89-1.05s.68.68.85.82-.06-.13-.16-.26a9.12,9.12,0,0,0-.7-.66l.72.16a1.77,1.77,0,0,1,.41.14,1.83,1.83,0,0,0-.39-.24c-.18-.07-.69-.2-.69-.2l2,.09s-1.36-.18-1.52-.15M38,19.18Zm-6.58,5.05.44-.13H32Zm1.55.53-.13.09c0-.06.11-.11.16-.16A.11.11,0,0,0,33,24.76Zm6.66-3.14a1.14,1.14,0,0,0,.12-.12v0l-.08.17-.08.07h0A.79.79,0,0,1,39.67,21.62Zm.1.25h0l0,.05Zm-.11.31h0l0,0Zm-.06.28,0,0,0,0h0Zm0,2.37-.2-.2.06,0,.24.18h0a1,1,0,0,1,0,.17l-.11-.12h0Zm-1.27-.48h0Zm0,.29h0Zm-.25-1.45c.06-.06.11-.12.17-.17l.07-.07h0c0,.11-.08.24-.13.36A.69.69,0,0,0,38.08,23.19Zm.1.17h0a0,0,0,0,1,0,0Zm0,.14,0,0v-.07Zm-.19.19a.43.43,0,0,1,0-.05v0Zm0,.06v.08l0,0s0-.05,0-.08Zm-.16-1.12c0-.2,0-.36,0-.34,0,.17.1.45.15.68A1.51,1.51,0,0,1,37.79,22.63ZM35.67,23.8l.06.05v.28a1.25,1.25,0,0,1-.11-.31v0l.06.06A.13.13,0,0,0,35.67,23.8Zm0-1.61.06.1.06.08.07.19-.07-.07a1.26,1.26,0,0,1-.13-.26A.06.06,0,0,0,35.63,22.19ZM35.42,19l0,.05,0,0Zm.31,2.73h0v0s0,0,0,0Zm0-.48v0l0,0,0,.05H35.7Zm.07.08h0l.07.1-.14,0v-.1Zm-.06-1.25L35.65,20v0l.05.07Zm.24.3.13.16-.16-.06Zm-.06-.79,0-.1,0,0Zm.26,1.59h0v0Zm.1,1.1h0v0Zm-.34-.76h0l0,0,0,.08s0,0,0,0l0,0-.11.05v0Zm-.13.14a.43.43,0,0,0,0-.11l.1,0A.57.57,0,0,1,35.78,21.63Zm.11-.79h0l0,0h0Zm0,.09Zm0-.37v0l.1.07Zm.08.17h0Zm0,.9,0,0a.69.69,0,0,0-.06.13,1.21,1.21,0,0,1,0-.14Zm-.08.46,0,.1c0,.07,0,.14,0,.22s0,0,0,0a1.46,1.46,0,0,0,0,.17l-.16-.37,0-.1Zm-.05,0,0,0v0ZM36,22h0a.06.06,0,0,0,0,0l0,0A.13.13,0,0,0,36,22Zm0,.06Zm-.07-.41a.91.91,0,0,0-.07.14l0-.11Zm0,0s0,.11,0,.18l0,.09h0a.2.2,0,0,0,0,.08c0-.07,0-.13,0-.19ZM36.08,24V24a.11.11,0,0,0,0,.05L35.91,24c0-.09,0-.2,0-.32Zm.08-2a.63.63,0,0,1,0,.17l-.06.08c0-.07,0-.15-.07-.23l.13-.1A.11.11,0,0,0,36.16,22Zm.06.47c0,.07,0,.1,0,.06s0-.1-.05-.18l.05-.05A.79.79,0,0,1,36.22,22.47ZM36.05,22s0-.08,0-.11a1,1,0,0,0,.07-.15.92.92,0,0,1,.11.15Zm0-.37,0,0,0,0Zm-.09-1h0v0h0ZM35.86,20l0-.05v0l0,.08Zm.07.68v.05l-.08,0h0a.31.31,0,0,0,0-.08Zm-.12-.76h0v0s0,0,0,0Zm0,.26,0,.12a.88.88,0,0,0,0-.14Zm0,.77v0h0v0Zm-.08,1,.07.16s0,0,0,0,0,.06,0,0,0,.12,0,.18l-.19-.24h0A1.11,1.11,0,0,0,35.76,22Zm0,1.56,0,0,.07.05a1.05,1.05,0,0,1,0,.18v.13a.94.94,0,0,0-.12-.09A2.64,2.64,0,0,0,35.77,23.53Zm.08.44h0c0,.15,0,.27,0,.15a.31.31,0,0,0,0-.11l.18.16c0,.09,0,.2,0,.3v.11a1.71,1.71,0,0,1-.22-.25.87.87,0,0,1-.15-.2,1.34,1.34,0,0,0,0-.26Zm-.18.87,0,0v.06a.21.21,0,0,0,0-.06Zm.1.14,0,0a.06.06,0,0,1,0,0l0,0v0h0Zm.33-.33s0,0,0,0l0,0Zm.21-2.27a.46.46,0,0,0,0,.09h0c0,.2,0,.33,0,.26A2.29,2.29,0,0,1,36.31,22.38Zm.07-.84h0Zm.08,1.14,0,.05a1.89,1.89,0,0,1,0,.31A3,3,0,0,1,36.46,22.68Zm.3-1,0,.06-.1,0Zm-.11-1Zm.54,2.43h0a.77.77,0,0,1-.06.15h0v0Zm0,0v-.05h0A.06.06,0,0,0,37.15,23.16Zm0-.92,0,.14h0a.76.76,0,0,0,0-.15Zm-.06-.07v0l0,0Zm.07.07h0l0,.06s0,0,0,.05S37.18,22.27,37.18,22.24Zm0,.31.08.05.06.07v0l-.13-.1Zm.16.3a.09.09,0,0,1,0-.06h0a.69.69,0,0,1,0,.13s0,0,0,0Zm.05.16v0l.25.11a1.21,1.21,0,0,1-.28,0,.19.19,0,0,1,0-.07S37.37,23,37.35,23Zm0-.17.11.1s.14.13,0,.06l-.12,0A.56.56,0,0,1,37.4,22.84Zm0-.56h0v0l0,0Zm0,.34h0Zm0-.78,0-.07h0l.08.06h0Zm.07.08,0,.06h0a.43.43,0,0,1,0-.07Zm-.1-.08h0l0-.05v0h0Zm0,.08,0,.11h0l0-.11Zm0,.21v0a.14.14,0,0,1,0,.06.14.14,0,0,1,0-.06Zm-.1.63h0Zm.19-.4,0,.06,0,0Zm0-.32h0Zm0-.12h0l0,0Zm0-.17h.06l.06.1h0Zm-.18,1.4.28.05-.31,0Zm.34.18s-.3.23-.47.38a3,3,0,0,1,.07-.34Zm-.42.53s0,0,0-.05l.43-.4Zm.39-.28a.21.21,0,0,1,0,.06l-.16.19-.13.16,0,0Zm-1-1.1h0v0a1.57,1.57,0,0,1,0,.25h0v0a1.42,1.42,0,0,1,0-.23Zm0,0v0h0Zm.06-.52h0Zm.09,1Zm-.07-.75a0,0,0,0,1,0,0l0,0S36.65,22.16,36.69,22.16Zm0,.1v0l0,0v0Zm.24.52v0a.11.11,0,0,1,0,.05Zm0,0c0,.11,0,.24,0,.24s0-.1,0-.24Zm-.06-.3,0,0v-.09l.06,0Zm.25,1.12h0a.41.41,0,0,0,0-.11l.05-.12h0A1.32,1.32,0,0,0,37.12,23.61Zm.05.32,0,0a.17.17,0,0,0,0-.07Zm-.26,0c0,.08,0,.26-.06.25V24Zm.08,0,0,0s0-.07,0-.06.06-.12.09-.17Zm.08-.64h0a.19.19,0,0,1,0-.14.43.43,0,0,0,0,0h0A1.09,1.09,0,0,1,37.07,23.28ZM37,23s0-.09,0-.18l.07,0Zm.08.08a.51.51,0,0,0,0-.13v.13ZM37,22.61l.06-.06,0,0,0,.11Zm.1-.05,0,0,0,0h0Zm0-.18,0,.05h0l-.1-.06c0-.05,0-.08,0-.12A1,1,0,0,0,37,22.38Zm0-.12v-.05h.08a.49.49,0,0,1,0,.12Zm0,.22,0,0,0,0v0Zm0,0,0,0a.28.28,0,0,1,0-.09Zm0,.3v0l-.07,0v-.06Zm-.24-.63h0l0,.07h0Zm0-.22h0Zm0,.66,0,0,0,.1a.05.05,0,0,0,0,0v0S36.8,22.67,36.8,22.62Zm.09,1.76,0,0v0a.55.55,0,0,0,0,.09h0S36.84,24.43,36.89,24.38Zm.23-.16a.41.41,0,0,1,0-.11l.09-.1,0,0Zm.09-1.12h0l.05-.12h0S37.22,23.07,37.21,23.1ZM37.06,22h0l0,0h0Zm0,.09v.07l-.07,0v-.05h.06ZM36.92,22a0,0,0,0,0,0,0h0l0,0Zm.06.1v.05l-.08,0v0Zm0,.13,0,.14-.06-.05s0-.07,0-.1Zm-.24-1.52v0l0,0,0,.06Zm.07.06Zm-.15-1.18v0h0v0Zm.19,2.27h-.19Zm-.19-.34-.05,0,0-.05Zm-.07-.92,0-.06a0,0,0,0,0,0,0Zm0,1-.09.08h0Zm.64,2.89,0,0-.11.07.1-.16a.18.18,0,0,0,0,.06c0,.11.47-.71.47-.71l0,0c-.05.11-.13.32-.21.5Zm.15-.07,0,0-.08.09Zm0-.06c.1-.13.25-.3.42-.49a.17.17,0,0,1,0,.07l-.24.24-.22.26A.56.56,0,0,0,37.44,24.34Zm.19-.33.24-.41a1.26,1.26,0,0,1,0,.16Zm0-2.42.09,0,0,.1Zm.09.84v0l0-.09c0-.06,0-.09,0-.07S37.72,22.32,37.73,22.43Zm.07-1.74-.11,0h0l.13-.12A.24.24,0,0,1,37.8,20.69Zm-.08-1.13h0v0Zm.11,1.25,0,.13-.23,0Zm0-1.07Zm0-.3h0Zm.14,1.71v0h0l-.21-.1Zm-.18,0h0Zm0,0,.06,0s0,0,0,0h0l-.09-.07Zm0,.31h0ZM38,24.79l.09.13-.06.19c0-.14,0-.28,0-.31ZM38,24c0-.07,0-.14,0-.2l.06-.06h0C38,23.88,38,24,38,24Zm0-.38s0,0,0,.07l0,.05a.28.28,0,0,1,0-.09Zm0,0v0s0,0,0,0Zm0-.55h0a.43.43,0,0,0,0,0c0-.14-.11-.72-.11-.74l0,0c.05.28.11.61.13.69s0-.29,0-.47c0,0,0,0,0-.07l.24.36C38.14,22.89,38.06,23,38,23.07Zm.56-.59h0l0-.07.07.06Zm.05.56h0a0,0,0,0,0,0,0Zm-.06-.32v0s0,0,0,0a.05.05,0,0,0,0,0Zm-.06,0,0,0,0,0,0,0Zm-.2.49.06-.22,0,.05Zm0,.17s0,.05,0,.07h0Zm-.42-3.17v.05h0v0Zm0,0v-.05s0,0,0-.05,0,.05,0,.07Zm0,.16a.28.28,0,0,1,0,.09h0v-.1Zm0,.12a.76.76,0,0,0,0,.15h0l0-.14Zm0-.65,0,.06,0-.07Zm.43,2.85-.08.08L38,22.24Zm.06.06,0,0,0,0,0-.07,0,.08,0,.06,0,0Zm0,.21v0l.09-.1h0l0,.09s0,.06,0,.1Zm.11-.12,0,.05a.3.3,0,0,0,0,.09.37.37,0,0,0-.05.11s0,0,0,0Zm-.05-.22-.35-.45h0l.38.35,0,.05S38.42,22.6,38.4,22.62Zm-.51-3-.08.1h0l.09-.13A.08.08,0,0,1,37.89,19.61ZM38.18,23l.09-.11s0,0,0,0l-.23.25Zm.12.5h0v0Zm0,.76h0Zm.05-.15a.45.45,0,0,1,0,.08S38.32,24.13,38.34,24.1Zm0,.07h0s0-.07,0-.11h0l0,0Zm0,0s0,0,0,.07h0S38.39,24.21,38.39,24.19Zm-.06-.94.06-.19s0,0,0,0Zm.16.42,0,.09,0,0Zm0-.22,0-.07.19-.19,0,.07Zm.06-.15a1,1,0,0,1,.05-.16l.07-.07,0,.06Zm-.08-1.07c0-.08-.07-.17-.1-.26h.1l.28.37-.07,0A1.63,1.63,0,0,0,38.43,22.23Zm.22.28,0,.06h0l0-.06Zm-.23-.76h0l.31.18-.09,0-.26,0-.07-.09,0,0,0,0Zm.52.2-.32-.25.07,0,0,0a.3.3,0,0,0,.11,0l.13.07Zm.2,2v0l0,0h0v0Zm0,.63h0Zm-.23-2.38-.12.1L38.51,22h.16a1,1,0,0,1,.25,0C38.91,22.08,38.89,22.15,38.88,22.2Zm.21,2.33h0Zm0-.2h0Zm-.05.09h0v0Zm-.42-2.74-.16-.13h0l.22.12Zm-.25.06,0-.06.09.05Zm.52,3.07,0-.06,0,0,0,.07h0c-.05,0-.08,0-.09,0Zm-.06-2.45.06-.06a.73.73,0,0,1,0,.08h0ZM39,24.63l.07.09s0,0,0,0l-.05,0,0-.07v0Zm0,.15a.11.11,0,0,0,0,0l0,0Zm0,0h0a1.47,1.47,0,0,1,.1.13h0a.35.35,0,0,1-.11,0l0-.07Zm0-.22h0v0A0,0,0,0,0,39.13,24.54Zm.06.06.08.06-.07,0,0,0Zm0-.18v0l0,0v0Zm.17-.92h0l.06.1h0A.44.44,0,0,0,39.33,23.5Zm.06.22h0Zm0,.59c.06.08.11.17.15.23h0l-.2-.16h0Zm-.06,0,0-.07v0Zm0-.48,0-.06h0l.07.06v0h0Zm0-.07Zm0,.2s0,0,0,0h0s0-.05,0-.08h0Zm.08.61,0,0-.12-.12s0,0,0,0Zm-.2.11.07,0,.17.17-.12,0Zm.31-.13,0,0,0,0,.06.1s0,0-.05-.1l0,0,0,0-.13-.26.08-.07-.08.07,0-.05,0-.07h0c.06.08.12.17.19.25s0,.22,0,.33Zm0-.53,0,0a.14.14,0,0,0,0-.06l.12.12-.07,0Zm0-.55h0Zm0-.25,0,0,0,0-.06,0Zm0-.62.11,0-.06.06h-.06Zm.13.16-.08.07h0l0-.06Zm-.14.17.06.06h0L39.48,23Zm0,.19h0l.08.08,0,0-.07-.09Zm-.12-1.63Zm.13,2.1v0l0,0h0Zm0,0Zm0-.08h0a0,0,0,0,0,0,0,.36.36,0,0,1,0-.09Zm-.24-2.08h0a.59.59,0,0,0,0,.08h0Zm.13,2.17h0l-.1-.09Zm-.07.49-.14.13h0a.34.34,0,0,0,0-.09l0,0h.14Zm-.11-.36h0Zm-.1-2.33s0,0,0,.06l-.09,0-.12-.08h0Zm0,.16v0a.19.19,0,0,1,0,.07l-.44-.22h0Zm-.3-.57-.13.1-.06,0Zm-.24.11.08,0-.07.06-.06,0Zm.07.31h0l-.14-.06Zm-.15-1,0,.06-.07.06h0Zm-.12,1.2.16.09h0l-.12-.09Zm0,.15,0,.07h-.06a.17.17,0,0,0,0-.05Zm-.08-.11,0,.07h0l0-.07Zm0,.52,0,0c-.12-.11-.2-.2-.2-.2ZM38.1,22h0a.21.21,0,0,1,0,.06h0Zm-.05-1.59-.06,0V20.3l.08-.09h0ZM38,20a2.13,2.13,0,0,0,.17-.25l0,.34-.11.1V20.1l.07-.1-.07.09S38,20.05,38,20Zm0-.53H38l-.05.06s0,0,0,0Zm.06.94,0,0,0,.21h0A.87.87,0,0,1,38,20.44Zm-.16-1.18.07,0-.12.2h0C37.79,19.37,37.82,19.32,37.84,19.26Zm-.09,0h0l-.07.15h0A1.12,1.12,0,0,1,37.75,19.29Zm-.06.15v0h0v0Zm0,.15h0v0Zm-.06-.25,0,0c0,.05,0,.09-.07.13V19.4Zm0,.07a.13.13,0,0,0,0,.06h0Zm0,1.22s0,0,0,0l.09-.08s0,0,0,.06l-.18.08Zm-.12-1h0l0,.06v-.06Zm.27,1.79a1.06,1.06,0,0,0,0,.14l-.19-.26Zm-.06.2-.13-.06-.09-.24Zm-.32-.11.12.23h-.1l0-.07,0,.05-.06,0,0,0c0-.07,0-.13,0-.18Zm0-.08-.08-.05a.87.87,0,0,1,0-.11Zm0,.42v0h0Zm0,.12h0l0,.09h-.07v-.09Zm0,.62-.15-.13.07-.08.1.16A.08.08,0,0,0,37.32,22.55Zm0-.44a.36.36,0,0,1,0,.11h0l-.14-.13ZM37.11,22a.13.13,0,0,1,0-.06h.12l0,.08Zm.13-.15h0s0,0,0,0v0H37.1v0h.13A.11.11,0,0,0,37.24,21.84Zm-.07-.59v0h0Zm0,0v0Zm0,.13v.14l-.07-.06,0-.1Zm0,.3s0,0,0,.06H37.1v-.15Zm0-.62h-.05l0,0,0,0Zm-.11-1.46h0a0,0,0,0,1,0,0Zm0-.1h0v0h0ZM37,18.84c0,.16.05.34.07.49h0c0-.13-.05-.3-.07-.46Zm.17,2.26a1.3,1.3,0,0,0,0,.13h0a.26.26,0,0,0-.06-.09l0-.05ZM36.91,19l0,.37s0-.17-.05-.36Zm.22,3.68h0l.13.11,0,.13-.09-.1S37.13,22.67,37.13,22.63Zm.07.32c0,.05,0,.1,0,.14h0s0-.11,0-.18Zm-.15-1.23h0s0,0,0,0l0-.09Zm-.2-2.67h0c0,.19,0,.35,0,.35l-.07-.28ZM37,21.81h.07a0,0,0,0,0,0,0H37A0,0,0,0,1,37,21.81Zm-.1-.12-.05-.07.11-.12S36.91,21.58,36.88,21.69Zm-.09-.85h0Zm0-.11h0Zm-.09-1.4c0,.07,0,.13,0,.16h0l-.06-.13Zm.11,1.29v0h0l0-.09,0,0Zm-.24-1.76c0,.1,0,.2.08.3l0,.05-.08-.2Zm.08,1.6,0,0,0-.05,0-.07v0Zm-.13-1.25,0,.12v0s0,0,0,0v0l0,0A1.28,1.28,0,0,0,36.54,19.21Zm0,1c0,.06.07.12.11.17l0,0-.08-.18Zm0,.21,0,0-.08.07h0l0-.19Zm0,1,0,0v0h0Zm-.07-1.24a0,0,0,0,0,0,0h0v0a.17.17,0,0,1,0-.05Zm-.08-.75v-.05Zm.06.84a.08.08,0,0,1,0,0,.36.36,0,0,1,0,.11s0,.07,0,.07A1.8,1.8,0,0,1,36.45,20.21Zm.12,1.26-.07.08a.43.43,0,0,0,0-.05Zm0,.92h0c0,.09,0,.18,0,.24h0Zm-.09-.08,0,0a.86.86,0,0,0,0,.16l0-.07Zm-.12-1.17h0v0h0Zm0,.12h0v0h0Zm0,.13h0v0h0Zm0,.84h0ZM36,18.65l.15.49S36,19,36,18.82Zm-.06.31.08.2-.1-.12S35.92,19,35.93,19Zm.15.69,0,.09,0,.27,0-.05-.05-.11,0-.09,0,.08-.14-.33A1.41,1.41,0,0,1,36.08,19.65Zm-.22-.85,0,.08,0,.1v0S35.86,18.86,35.86,18.8Zm-.07-.17,0,.1,0,.16,0,0Zm0,.93,0-.09.07.36,0,0v0l-.06-.08,0,0A.29.29,0,0,1,35.79,19.56Zm0,.09h0Zm0,.18,0,0h0a.18.18,0,0,0,0-.06S35.77,19.82,35.78,19.83Zm0,0,0-.05,0,0,0,0Zm-.1-1,0,.12h0a.23.23,0,0,1,0-.05A.2.2,0,0,1,35.65,18.86Zm0,.18h0a.15.15,0,0,1,0,.06v0l-.06,0S35.61,19.06,35.61,19Zm0,.24,0,0,0,.11Zm0,.82a.42.42,0,0,1,0-.1l.05.06,0,.23h0l0-.14Zm.1,1.72s0,0,0,0l0,0Zm0,0v0a.59.59,0,0,1,0,.08h0l-.06.14s0,0,0,0a.9.9,0,0,0,0-.15Zm-.26-3,.05.05,0,.05-.06-.06,0-.12Zm.07,1.49a.22.22,0,0,1,0,.08h0A.41.41,0,0,1,35.51,20.37Zm.16,3.1.06,0v.28h0a.38.38,0,0,1-.09-.09Zm0,0c0,.08,0,.16,0,.23l0-.06,0,0c0-.06,0-.13-.07-.2ZM35.27,19l0,.48-.17-.64Zm.11,3.55h0Zm.12,2.17Zm-.22-2.34v0h0a.35.35,0,0,1,.05.08h0l0-.06A.06.06,0,0,1,35.28,22.37Zm-.08-.06,0,0v0l0,0Zm-.11-1.39h0Zm.08,1.45,0,.06h0l0-.06Zm0,.19ZM35.07,21,35,21l0,0,0,0Zm-.1.91h0a.09.09,0,0,0,0,.05h0Zm.06.29h0l0,0h0Zm-.1-.13L34.86,22l0,0A.24.24,0,0,0,35,22Zm0,.09,0,0,0,0Zm-.65,1.09h0l0,0h0Zm.13,1.31-.13.15v0c0-.09,0-.13,0-.15l0,0S34.4,24.5,34.42,24.53Zm-.2-1.36-.13-.11h.12l.07.08Zm-.6-1h0s.05,0,.06-.06h0Zm0,.26h0Zm0-.33,0,0h0l0,0Zm-.09-.06v0l.18-.05-.05,0Zm-.17-.26,0-.06v0h.15s0,0,0,.06Zm.11.05a.11.11,0,0,0,0,0h0l0-.05Zm-.51.22,0,0-.16-.17.2,0,.1.13Zm0,.26,0,.07-.18-.2h0Zm0-.43.19,0,0,0a.41.41,0,0,0,0,.09A.57.57,0,0,0,33.06,21.9ZM33,21.83l-.08-.09.42,0a.3.3,0,0,0,0,.08Zm.3-.43,0,0,.16,0h-.19Zm.16.07,0,0h-.28l.08-.06Zm-.18-.17-.09,0,.17-.1h0Zm-.06.05,0,0-.13,0,.06,0Zm-.06.07-.08.08h-.21l.14-.1Zm0,.11.3,0,0,.08-.42,0Zm.25.27Zm0,.07h.07l0,.07-.16.05S33.3,21.91,33.32,21.87Zm.13-.25,0-.07h.1a.13.13,0,0,1,0,.06Zm.14-.13v0H33.5l0,0Zm-.05-.07h0Zm.11.44v0h.09Zm.17.57.07,0a.36.36,0,0,1,0,.09h0l-.05-.08Zm.09-1.86v.06h-.06s0-.08,0-.12Zm0-.08h0Zm.11,2,.05,0v0Zm0,.06s0,.07,0,.1l-.08,0a.2.2,0,0,1,0-.08Zm0-.06h0a.14.14,0,0,0,0-.06l0,0Zm0-.19,0,.06,0,0,0,0Zm0,.08,0,.09h-.07a.44.44,0,0,1,.08-.1Zm0,.29,0,0,.08,0,0,.14A.91.91,0,0,0,33.89,22.63Zm.18,2.24a.64.64,0,0,1,0,.07l0,0a.56.56,0,0,1,0-.12Zm0-.16a.73.73,0,0,0,0,.08h0Zm0,.17,0,.22a.88.88,0,0,1,0-.17Zm0,0,.06-.08v0ZM34,22.36s0,0,0,0l0,0v0Zm-.08-1.56,0,0L34,21h0C33.94,20.93,33.92,20.85,33.91,20.8Zm.39,2,.06,0-.26,0,0-.13.14.07S34.25,22.8,34.3,22.78Zm.59-1.92.07.05L34.9,21a.61.61,0,0,0-.14-.07Zm0-.32h0Zm.12.61h0l-.1,0,0,0Zm-.35.06-.24,0h-.19c0-.07,0-.13,0-.19l.14,0,.39.16Zm.16.16h0l-.22,0-.08,0,.14-.1Zm-.61-.54a.19.19,0,0,1,0-.08h.11l.17.09-.14.05Zm0,.09h0v0Zm.26,0h0a1.18,1.18,0,0,1,.27.11h0l0,0,0,0A2.45,2.45,0,0,0,34.45,20.94Zm.12,0h0Zm.16-.2,0,0,.11,0v0Zm0-.16,0,0h.08l0,0Zm0,.18-.14.05-.14-.07.22,0Zm-.54-.13h0v-.1h.22l.11.08Zm0,.92Zm0,.1v0h0v0Zm0-.19v-.2l.16,0,.15,0-.22.17a1.36,1.36,0,0,1-.06-.16l0,.17,0,0A.25.25,0,0,0,34.18,21.44Zm.09.15h0v0Zm0,.49h0ZM34,20.77h0v0h0Zm0-.14v0l0,0h0Zm0,.59,0,.16,0-.16Zm0,0v0ZM34,21h0v0Zm.11,1.89,0,0h0Zm0,0,0,0a.09.09,0,0,1,0,0l.24.06Zm.27.11,0,0-.06,0Zm0,.22,0,0h0l0,0Zm.09,1.39v0h0l0,0,0,0v0h0l.08.11-.11.27,0,0C34.48,24.93,34.48,24.79,34.49,24.65Zm0-.95,0,0h0Zm0-.37h0Zm-.06-1.58,0,0,.06,0,.24-.06a0,0,0,0,1,0,0Zm.24.2v0h0v0Zm0,0h0Zm0,.33h0Zm0,0s0-.05,0-.07,0,0,0,0Zm.05,1.09v0l0,0h0Zm0,0h0Zm-.08.27v0h0S34.55,23.65,34.51,23.63Zm.05.58-.05,0h0Zm-.05-.11Zm0,.26a.43.43,0,0,0,0,.07v0Zm-.12-1.13Zm.18,1.39.09,0a.56.56,0,0,1,0,.12Zm0,0s0,0,0-.05a1,1,0,0,1,.19-.14s0,.05,0,.12Zm.09-1.2h0Zm-.06-.89h0l0,0h0Zm0,0Zm0-.31,0-.07v0l0,0,0,0,0,0,0,.1-.06,0Zm.06,0,0,0v0Zm0-.19h0v0l0,0v0Zm0-.41-.29.08,0-.06.07,0,.4-.06,0,.05Zm.19.27h0l0,0,0,0s0,0,0,0Zm0,.14,0,0,0,0Zm-.09-.73.06-.06.12,0s0,0,0,0Zm.17.71L35,22h0Zm0-.13v0l.11-.05Zm.17.29h0ZM35,20.86h0l0,0h0Zm.12,1h0l0,0h0Zm-.39-1.76.28.23-.11,0Zm.22.3-.26,0,0,0Zm-.28.16h-.15l-.12-.06h.22Zm-.13-.22,0,0h-.11l-.08-.05Zm-.19,0,.08.05h-.31s0-.05,0-.07Zm-.22,0Zm.18,2.28h0l0,.05,0,0h0l-.1-.07.08.06h0l-.09,0s0-.05,0-.08ZM34,20.85h0v0Zm0-.27h0a.19.19,0,0,0,0-.07h0Zm0-.21h0a.64.64,0,0,0,0-.07l.07,0Zm0-.08v.05l-.07,0v0Zm0,.25,0,0v0h0Zm0-.27h0Zm0,0,0,0,0,.07h-.06l0-.1Zm-.14,0,.09,0v.1h-.1Zm.08.92h0Zm0-.37h0Zm0,.45.06.12v0l-.09,0Zm-.1.33h0s0,.06-.05.05Zm0,.14h.1l-.11,0Zm0-.5a.28.28,0,0,1,0,.06h0Zm0,.1a.13.13,0,0,0,0,.06h0l0-.06Zm-.05-.12,0,0,0,0Zm-.15-.73c0,.05,0,.12-.07,0s0,0,0,0Zm-.36,0h.22l.14.13-.16,0,.18.08h0A1.14,1.14,0,0,1,33.07,20.45Zm.43.8,0,0,0,.08-.12,0Zm-.11-.08h0l.07,0Zm-.12-.05,0,0,.2-.08ZM33.06,21l.35-.12-.31.14Zm.15.08,0,0-.21.13-.13,0Zm-.4.17.15,0-.08.05-.2,0Zm-.49.21.33-.14.2,0-.18.12Zm.25.2h0Zm0,0h0l.24-.15h.22a.71.71,0,0,0-.12.13Zm.08.09s0,0,0,0h.18l0,0,0,0h0l.07.09-.2,0Zm.08.16.15.2,0,0c-.07-.07-.14-.15-.21-.21Zm-.17,0,.11.15L32.52,22Zm-.15,0,.28.27,0,0L32.28,22Zm.47.57-.28-.22h0ZM32.26,22l.37.32h0L32.2,22Zm-.29.9h0a2.83,2.83,0,0,1,.34,0l.37.17v0C32.46,23,32.09,22.91,32,22.88Zm.55.5.17,0h0l-.19,0Zm-.16.15s0,0,0,0l.19.06h0l-.16,0Zm.29.16h0Zm-.2.35h0Zm-.31-.31h-.07C32.14,23.72,32.16,23.72,32.14,23.73Zm0,0h.16l.09,0-.11,0Zm.18.54h-.07l.16-.12S32.43,24.2,32.34,24.28Zm.23,0-.12.05.16-.12h0Zm.13-.11h-.05l.12-.08h0Zm-.07-.92h0l.1,0Zm0-.64L32,22l.23,0c.08.08.26.23.44.38,0,0,0,0,0,0v0a2.79,2.79,0,0,0-.55-.41c0,.07.53.52.66.67Zm.13.51h0l.09,0Zm.17-.47h0l-.09-.07.1.06Zm-.24-.38.05,0,.28.25h0Zm.54,2.54a.05.05,0,0,0,0,0h0Zm-.16-2.48.09.12h0l0,0A.35.35,0,0,0,33.07,22.35Zm.22,2.39h0l0,0S33.3,24.72,33.29,24.74Zm-.24-2.58.14,0,.09.11-.06,0a.26.26,0,0,1-.1-.07l.07.09h0Zm.33,2.49Zm-.11-2.27-.09-.09h0a.6.6,0,0,1,.08.08Zm.08.08,0,0h0Zm0-.13a.27.27,0,0,1-.1-.06l.07,0,.05.07Zm-.06-.22.22-.06h0v.07h0l-.09.07Zm.32,2.76h0a.14.14,0,0,0,0-.06Zm-.17-2.61,0,0,.1,0v0Zm.06.07h0l0,0h0l.08-.07h0A1.14,1.14,0,0,1,33.47,22.33Zm.16.2,0,0,0-.05h0Zm0-.06Zm0,0h0l0,0,0,0v0Zm.06-.1Zm0-.09h0l.09-.09h0Zm.08-.09Zm.32,3.19-.2.14c0-.07,0-.16.07-.25s0,0,0-.05,0,0,0,0,0-.13.05-.19l0,0s0,0,0,.06a.25.25,0,0,1,0-.07v0c0,.08,0,.15,0,.21Zm.05,0,.1-.37c0,.1,0,.2.05.26Zm.3-.22-.12.1c0-.06,0-.17-.05-.3s.06,0,.11-.12a.8.8,0,0,1,.06-.08C34.43,24.82,34.42,25,34.43,25.11Zm-.13-2-.06-.06h0l.07,0Zm0,.05,0,0,0,0Zm.23,2.08-.08.08v0l.1-.21C34.65,25.06,34.73,25.1,34.57,25.24Zm.08-.31,0-.09,0,0Zm.16-.12-.07.05a.43.43,0,0,1,0-.07l.09-.22h0Zm0-.33h0l0-.05Zm-.1-1.12v0Zm0,.09Zm-.07-1.14-.06-.11,0,0,0,.07Zm0-.09a.08.08,0,0,1,0,0l0,.06h0Zm0,0h0Zm0,.18h0l0,.07Zm0-.31,0-.07,0,0h0l0,.13Zm0-.22,0,0h0l0,0Zm0,0,0,0h0l.06,0,0,0Zm.08.07.07.06s0,0,0,0l0,0L34.78,22Zm.1.41a.05.05,0,0,0,0,0l0,0Zm.1,1.46v0h0v0Zm-.06.08h0l0,0Zm.14.67a.08.08,0,0,1,0,0l-.06,0a.5.5,0,0,0,0-.12h.06A.07.07,0,0,1,35.09,24.6Zm0-.16a.28.28,0,0,1,0-.08.31.31,0,0,1,0,.07Zm-.13-2.23,0,0,0,0s0,0,0,0A.1.1,0,0,1,34.94,22.21Zm.18,2.41a.13.13,0,0,0,0-.06v.05Zm0-.51h0Zm0-.11L35.09,24v0l0,.05Zm0-.09h0l0,0h0Zm-.07-1.05Zm.08,1.07h0ZM35,22.59h0l.05.1h0Zm.17,1.68,0,0h0Zm.06.14h0a.33.33,0,0,0,0-.06h0Zm0-.17,0-.06,0,0Zm0-.16,0,0v0l0,0v0Zm-.1-1.59,0,0,0,0h0l.06.11h0Zm.13,1.91Zm0-.1h0v-.05l.06.06Zm0-.15a.08.08,0,0,0,0,0l0,0,0,0v0Zm-.07-1.66h0l0,.08h0ZM35.46,25a.52.52,0,0,0,0-.11l.07-.11-.1.23Zm.13,0,.09.11v.07l-.16-.06Zm.09.49,0,.05a.24.24,0,0,1,0,.1l-.09-.07S35.67,25.48,35.68,25.45Zm-.07.35a1.06,1.06,0,0,0,0-.14l.09.09.05.12A.78.78,0,0,0,35.61,25.8Zm.21-.79v0l0,0v0Zm1.13.13a.15.15,0,0,1,0-.06l.06,0Zm.51-.38a1.73,1.73,0,0,1-.19.18h0s-.13.13-.19.14a0,0,0,0,1,0,0v0l.38-.57a5.57,5.57,0,0,1,.41-.47c0,.16,0,.31,0,.37A4.52,4.52,0,0,1,37.46,24.76Zm.33.16-.21.22a1.42,1.42,0,0,1,.08-.18s0,0,0,0l.14-.15Zm0-.17-.1.12.1-.23Zm.07.82v-.05a4.45,4.45,0,0,1,0-.52l0-.07c0,.15,0,.35.06.54Zm0-.73c0-.07,0-.1,0-.07v0Zm0-.53c0-.11,0-.25,0-.37l.05-.05v.25A1,1,0,0,1,37.85,24.31Zm.11.57h0c0,.09.05.22.07.34a1.63,1.63,0,0,0,0,.18c0,.07,0,0,.06-.11s0,0,0,.08l0,.06,0,0C38,25.23,38,25,38,24.88Zm.06,1c0-.06,0-.19,0-.34a.38.38,0,0,1,.09-.09l0,.13Q38.08,25.67,38,25.85Zm.25-.64s-.09.19-.12.24,0,0,0,.05a.52.52,0,0,0,0-.11,2.18,2.18,0,0,0,.16-.18v0Zm-.17.12a.5.5,0,0,0,0-.12l.08-.19,0,0,.09.14A1.83,1.83,0,0,1,38.1,25.33Zm.22-.26c0-.08-.07-.15-.09-.2v0l.13.16Zm.1-.13a1.89,1.89,0,0,0-.14-.19h0l0,0s0,0,0,0l.14.13Zm.07-.14-.14-.13h0l.13.1Zm0-.14-.09-.07,0-.1h.06Zm0-.63,0,0,.09-.08s0,0,0,0,0,0,0,0Zm.06.67h0c0-.08,0-.15,0-.2h0v0A.84.84,0,0,1,38.54,24.7Zm.05-.9s0,0,0,0l-.08.07.11-.15h0S38.59,23.79,38.59,23.8Zm.12-.32-.11.13a2.25,2.25,0,0,1,.11-.22Zm0-.52a.18.18,0,0,1-.05-.07v0h0c.06.08.06,0,0-.08v0h0v.17Zm.16,2h0Zm-.14-2.47h0Zm.17,2.45.13-.07h0a.18.18,0,0,1,0,.05v0l.05.07h-.2Zm0,.12,0,0,.19-.05a.41.41,0,0,1,.05.09Zm.26,0-.05-.1.13,0,.11.15Zm.34.06-.16-.22.12,0,.21.21a.34.34,0,0,1,0,.09.08.08,0,0,1,0,0A.56.56,0,0,0,39.51,25.1Zm.13-.87-.06-.08h.06Zm0-.32,0-.05,0,0Zm0-.13,0,0,0,0h0Zm0-.41,0,0-.08-.1.07,0,.08.09Zm.19.82,0,0a.38.38,0,0,0,0-.1l0,0s0,.09,0,.15l0,0h0Zm0-.88-.07-.07h.06l0,0S39.83,23.3,39.82,23.31Zm-.09-.09-.09-.09h0l.09.08ZM40,24.67l-.17-.23a.86.86,0,0,0,0-.16,0,0,0,0,0,0,0l.09.08Zm-.11-1.52Zm0,0-.09,0,0,0,.18-.09C39.9,23,39.89,23,39.87,23.1Zm.05-.19-.19.09-.12-.1.28-.06a1,1,0,0,0-.31.05h0l.09-.09h.26v.06S39.92,22.89,39.92,22.91Zm-.25-.24.07-.09h.12Zm.19-.08h0l-.11.09h-.08Zm.06.11-.13,0,.09-.09h0Zm0-.16h0Zm0,0H39.8l0-.11-.1.1-.11,0,.09-.08.19-.1A1.48,1.48,0,0,1,39.91,22.5Zm0-.22-.12.06.06-.06-.09.07-.13.06.05-.1.23-.06Zm0,0-.2,0s0,0,0,0v0c.07,0,.08,0,0-.08L39.9,22Zm0-.25-.13.11h0a.39.39,0,0,1,.08-.1l.08-.05Zm0-.05-.07,0,.06-.08h0Zm0-.05Zm0-.11-.07.07,0,0a2.31,2.31,0,0,1,.1-.21Zm.71.74c.08.13.15.26.19.34l-.4.14a1.31,1.31,0,0,0,0-.15v0Zm-.26.25s0-.08,0-.14l.16-.33a2,2,0,0,1,.11.2Zm.06.28.4-.17,0,.06s0,0,0-.06l.18-.08.12.18c-.26,0-.56.08-.71.11Zm.4-.19-.17-.39.07-.1.29.43Zm-.18-.4c0-.09-.07-.17-.11-.25l0-.07.16.23Zm-.14-.31L40.42,22v0l.08.12ZM40.41,22l0-.09v0l0,.07Zm0-.12h0l0,0Zm0,.26.06.1-.12.2,0,.05s0-.05,0-.07Zm0,0a1.86,1.86,0,0,1-.1.2.13.13,0,0,0,0-.06l.08-.2Zm-.09.61,0,.09-.06,0Zm-.1,0h0l.08-.21a.13.13,0,0,0,0,.06ZM40.3,22l-.07.15a.22.22,0,0,1,0-.08l0-.14Zm0-.09a.42.42,0,0,0,0,.1l0-.2Zm0,.48-.07.17.07-.2Zm0-.14a.46.46,0,0,0,0,.08l0-.11Zm-.08-.47v0h0Zm0,0h0s0,.17.06.32l-.09,0C40.08,22,40.09,21.89,40.1,21.84Zm0,.37.09-.05h0l-.1.27C40.06,22.36,40.07,22.29,40.07,22.21Zm0,.88.11-.28h0Zm.1-.06.1-.2.06,0Zm0,.07.14-.19c0,.05,0,.1,0,.12Zm.14,0,.06,0,0,0Zm0,.06.82-.12s0,0,0,0,0,0,0,0Zm1.22-.08h-.26l0-.06.21,0Zm-.1-.12h-.23l-.13-.19.15-.06Zm-.21-.24-.15.05-.32-.47,0,0,0,0L40.59,22v0h0a2.53,2.53,0,0,0-.15-.22h0a.11.11,0,0,0,0-.05Z"/><polyline class="cls-17" points="46.34 22.85 46.34 22.85 46.34 22.85"/><path class="cls-17" d="M51.05,25l.6.07-.28-.12-.44,0,.67-.11h-.66l-.5.14-.31-.07.55-.11-.29-.08.41,0h-.42l.38-.25a4.65,4.65,0,0,0-.52.22l.35-.29-.44.23.22-.33-.36.35.19-.36-.33.4.19-.37s-.32.36-.34.41.12-.34.12-.34l-.33.44.1-.43-.28.51.05-.41-.23.58.07-.45L49,25l.07-.46-.24.6.08-.47-.2.47,0-.42-.26.3.19-.34-.5.42.38-.39s-.56.32-.64.38l-.37.3s.29-.37.33-.4a1,1,0,0,1,.22-.2l.53-.23-.42,0,.39-.14-.29-.07.68-.09-.58-.09.77-.06.27-.06-.59-.1h-.35a1.71,1.71,0,0,1,.27-.13l.38,0,.27.06-.21-.15h-.35l.53-.17-.44.08.55-.43-.49.22.36-.36-.63.49.33-.44-.47.47L48.9,23l-.49.6.29-.51s-.37.36-.39.39l-.69.69-.37.51.39-.65.45-.42-.35.18.42-.39-.35.14.37-.3-.42.14.42-.31-.4.13.38-.32-.35.06.31-.23-.34.09.34-.42-.4.29.4-.59-.41.49.17-.62s-.2.49-.26.68c0-.14.05-.45.05-.45l-.2.7,0-.53-.14.69v-.44l-.11.65v-.54s-.09.75-.09.79,0-.44,0-.44l0,.76,0-.39-.07.69,0-.3-.06.48-.06-.48,0,.74-.08-.53,0,.83-.07-.3,0,.59,0-.24,0,.39,0,0-.08-.15.16-.39L46.4,25l.21-.46s-.13.12-.19.19l.24-.49-.21.25.22-.54-.4.5.37-.65-.4.43.31-.56-.41.43.39-.64-.36.32.39-.59-.46.41s.29-.48.32-.51l-.32.32a5.57,5.57,0,0,1,.24-.52l-.31.33.28-.5-.39.33.3-.48-.36.32.32-.63-.32.44.12-.61-.15.43V21.7l-.1.61-.14-.58.11.77L45.43,22l.17.73-.24-.42.27.77-.38-.47.35.79L45.29,23l.36.88-.3-.54.14.42-.12.58,0-.34,0-.46-.18.34,0-.63-.14.47,0-.62-.1.59,0-.61s0,.52,0,.47a3.66,3.66,0,0,0-.16-.37l-.13-.33-.06.16-.12-.34-.07.17-.2-.2.06.28-.38-.31.38.53L44,23.06l.24.22H44l.42.24-.25,0,.38.13-.22,0a1.67,1.67,0,0,0,.3.11c.1,0,.22.17.22.17L44.65,24l.27.25-.23-.08.29.31-.33-.16.39.41-.26-.14.36.39-.21-.07.4.38-.27-.11v0l-.07,0,.07,0-.12.3s-.07-.62-.06-.65l-.18.31v-.47l-.09.29,0-.62-.16.54v-.69l-.12.52,0-.64-.15.5,0-.62-.14.53,0-.55-.06.44-.07-.7L43.8,24l0-.48-.09.33-.07-.45-.1.37-.09-.4,0,.34-.12-.51,0,.27L43.08,23l-.06.28-.17-.39.06.38-.26-.22.29.39-.43-.18.5.32-.41,0,.53.13-.39,0,.61.24L43,24l.41.06-.42.1s.55,0,.58,0,.08.07.08.07l-.31.13.43,0-.3.09.3,0a1.63,1.63,0,0,1,0,.2c0,.12,0,.07-.14.06a1,1,0,0,1-.26-.08c-.09,0-.14,0-.31,0a.7.7,0,0,0-.32,0l-.64.07.61.14-.69.09.41.06.33,0-.45.34.57-.3-.38.6.19-.17s.25-.34.18-.23,0,.17-.06.27,0,.25,0,.13.21-.21.26-.24-.17.29-.17.29.36-.29.34-.26-.15.34-.15.34.39-.4.35-.29a2.41,2.41,0,0,0-.11.33l.27-.37c.07-.09.07,0,0,.05s-.2.35-.2.35l.35-.23-.08.36.19-.26c.05-.06.24-.06.24-.06l-.29.44.33-.25-.18.53s.45-.44.47-.33l.05.17-.34.48.54-.43-.33.53.49-.45h0l0,0h0l-.18.33h0l-.07.12.09-.1h0l.26.13h0a4.17,4.17,0,0,1-.63,0,2.71,2.71,0,0,0,.29.22l-.37,0v0h-.1l.1,0v.07l-.44,0,.52.22-.69-.07.51.17-.64-.1.49.2-.62-.1.52.19-.56,0,.43.1h-.7l.35.14h-.48l.31.12-.45,0,.35.14-.4.05.33.08-.52.07.26.06-.47.07.27.08-.41.13h.39l-.25.23.42-.25-.22.41.37-.47L43,29l.18-.51v.39l.3-.58v.35l.11-.39,0,.42s.1-.54.1-.57.07-.08.07-.08l.1.33,0-.43.06.31v-.3a.62.62,0,0,1,.2,0h0l.05,0a.45.45,0,0,1,0,.08l-.07,0,.07,0h0a.25.25,0,0,0,0,.07h-.08l.07,0c0,.05,0,.1-.08.16s0,.14-.07.31a.68.68,0,0,0,0,.31v.64l.2-.58,0,.69.1-.4v-.34l.29.49-.24-.6.56.44L44.87,29s-.32-.28-.22-.2.17.06.27.09.25,0,.13,0a.83.83,0,0,1-.21-.29c0,.08.27.2.27.2s-.1-.15-.16-.26l0,0,0,0,0,0,0,0,.18.1-.09-.11.11-.15,0,0,0,.12.15-.27,0,.22.12-.3,0,.23.12-.28,0,.24.13-.31,0,.25.1-.25,0,.22.13-.16-.1.18.27-.22-.2.21s.29-.17.33-.21,0,0,.07-.05v.06l0,.05s-.1.1-.12.1l-.28.13.22,0-.2.07.15,0-.36.05.31,0-.41,0-.14,0,.31.05h.19l-.15.06-.2,0-.14,0,.11.08h.19l-.29.09.24,0-.29.22.26-.11-.19.19.33-.26-.17.23.24-.25-.15.26.26-.32-.16.27s.2-.19.21-.21l.14-.14c0,.05-.06.1,0,.12s0,0,.09-.08l.11-.06-.22.21.17-.07h0L46,29l.16-.05v0L46,29.1l.18-.05v0L46,29.2l.15,0h0l-.13.1.13,0a0,0,0,0,0,0,0l-.14.18.21-.16-.21.31.22-.25,0,.06v0l-.06.12s-.06.11,0,.11l.05,0v0l0-.05.06-.05s.1,0,.07,0l0,0h0a.06.06,0,0,0,0,.08.1.1,0,0,1,0,.11.38.38,0,0,1-.09.12,1.45,1.45,0,0,0,.18-.14s0,.06,0,.08l-.11.13s0,.1,0,.16,0,.09,0,.13-.09.13-.07.13.11-.12.16-.13,0,.1,0,.14,0,.08,0,.1,0,.07,0,.06a.05.05,0,0,1,0,0s-.06,0-.1.08,0,.1,0,.11,0,0,.07,0,.08-.16.11-.15-.07.22-.09.24,0,.06.06.09,0,.07,0,.1,0,.07,0,.1,0,.06,0,.1a.45.45,0,0,1-.09.1,1.71,1.71,0,0,0,.21-.19l-.16.29s0,.1,0,.09.06-.1.08-.13,0,.15,0,.17l0,0a1.18,1.18,0,0,0,0,.16.37.37,0,0,1,0,.16s0,.1,0,.1.05,0,.09-.07V32l0,0s0,.06,0,.05h0c0,2.26,0,5.94,0,6.41s-.09,1-.12,1.56c0,0,.09.13.43.12l.55,0c.14-.07-.09-.89-.14-1.66-.08-1.11-.1-5.6-.11-7.44h0s0-.12.06-.18,0-.09,0-.18,0-.05.06-.11,0,0,.08.06,0,0,0-.08-.06,0-.1-.1,0-.08.07-.1,0-.09,0-.16-.09-.09-.11-.13.11,0,.12,0,0-.15,0-.19a.15.15,0,0,0,0-.16s0,0,0,0l0,0v-.06h0l0-.08s0,0,0,0a.18.18,0,0,0-.05-.07l0-.11h0l.11.19-.07-.21h0s0,0,0,0h0l.07.09-.06-.13a.14.14,0,0,0,0-.06l0-.07a.07.07,0,0,1,0,0l0,0,0,0,0,0h0a.27.27,0,0,0-.06-.09v0l0,0s0-.07,0-.11,0,0-.09,0a.19.19,0,0,0,0-.09.14.14,0,0,0,0-.09.79.79,0,0,0,0-.21v-.05l0,.18,0,.25.09-.19,0,.34.08-.25v.33l0-.31,0,.31a1.54,1.54,0,0,1,0-.24,1.38,1.38,0,0,0,.08.2l.07.17,0-.09.07.18,0-.09.11.11,0-.15.2.17-.2-.29.12.05h0l.22-.25V29l0-.14,0,0,0,.13,0,.12v.41l.11-.43v0l0-.14.07.25v0l0,.27.06-.24,0,.07,0-.13V29l.11.09-.1-.14v0L49,29l-.17-.1,0-.08H49l-.09,0v-.06h0a.72.72,0,0,0,.06-.31c0-.08,0-.13,0-.17l.25,0-.25-.06v0l.21,0v.1l0-.11h0l.09-.18s.08,0,.06.09,0,.58,0,.58l.14-.41,0,.41.07-.34.17.62.07-.37.07.53.06-.4.26.52-.13-.44.35.33-.19-.28.36.1-.36-.22.28,0-.44-.16h.26l-.48-.16h.33l-.37-.13.37-.07L49.73,28l.32,0-.45-.11.36-.07-.67-.14h.43l-.53-.09.53-.08-.61,0,.51-.1-.63,0,.51-.06-.66-.07.54-.11-.59-.1.29-.06-.4,0,.21,0s.28,0,.31,0,.17,0,.17,0l.4.41-.27-.56.41.26-.08-.35.48.36-.3-.42.48.31-.37-.38.39.19.45.27-.1-.21-.39-.25.29.05.45.34.06.34,0-.36s-.38-.36-.42-.38l-.34-.16-.38-.08a2.57,2.57,0,0,1,.28-.06h.88L51,26l.51-.05-.64,0,.44-.22-.51.15.28-.26-.51.28.34-.3-.49.29.35-.31-.59.33.31-.25-.57.29.31-.25-.6.25-.43.15s.32-.2.36-.21l.5-.16-.27,0,.52-.08L50,25.47h.52l-.22-.15.54.09-.3-.13.3-.11a5.06,5.06,0,0,0,.52.29s-.36-.32-.36-.32l.57.27-.47-.35.53.16Zm-3.6,3.47h0v0Zm-2.42,0Zm-.14.06h0v0S44.88,28.43,44.89,28.44Zm2-.87h0a.14.14,0,0,1,0-.09v0h0v.13Zm-.36-.14s0,0,0,.05h0l0-.05Zm-1.33.26v0l.06,0h0l0,0h0Zm.22-.11,0,0h0l0,0Zm1.85.27a.56.56,0,0,0,0-.1s0,0,0,.1Zm.11.41v0l-.06-.08h0l0,0Zm.45-.86-.06.05,0-.05Zm.05.08,0-.05H48s0,0,0,0l-.11.07Zm.3.25h0s0,0,0,0a.17.17,0,0,1-.1,0Zm-.13.58h0v0Zm0,.1v.08s0,0,0,0l0-.11Zm.06,0h0v.05l0,0Zm.13.23v0l-.05,0v-.06Zm-.86-2.78a1,1,0,0,1,.19-.22s-.1.2-.14.26,0,0,0,.06l-.06,0h0Zm-.17.35h0l-.16.31A1.47,1.47,0,0,1,47.21,26.18Zm-.71-.29V26a.33.33,0,0,1,0,.17v.07h0a.25.25,0,0,0,0-.08V26A.64.64,0,0,1,46.5,25.89Zm0,.77h0v0Zm-1-2.9c.06.19.12.39.13.44s0,.4,0,.52.13.86.15.94-.08-.38-.09-.44-.15-.53-.15-.53V24.1l-.14.37Zm-.09,1.67-.22.05s.26,0,.25.11-.07.36-.07.36l.17-.21s0,.31,0,.4a.53.53,0,0,0,.14.4v0h-.1l0,0,0-.1,0,.08a0,0,0,0,1,0,0h0v-.11l0,.06c0-.08-.05-.17-.07-.24v0h0a.93.93,0,0,0-.13-.23l-.07-.38-.09.1,0-.51Zm-.28.93Zm0,.07-.11,0,0,0Zm-.32.28h0l.18-.22.17.05-.17,0,.19,0v0l-.14,0,.12,0a.16.16,0,0,0,0,0h-.34Zm-.45.35.16.07H44.4Zm-.1.85,0,0S44.28,27.9,44.28,27.91Zm.66.63a.17.17,0,0,1,0-.05l0,0,0,0Zm.11-.12.06-.07,0,.08Zm.07.09,0-.05.1-.12h0A1.16,1.16,0,0,0,45.12,28.51Zm.15-.13,0,0,.06-.07Zm1,.27s0-.06.06-.06h0Zm1.14,1s0,0,0-.06h0l0,.06Zm.07-.77,0,0v0Zm0-1,.12,0s-.14,0-.14-.06l0-.19-.09.11s0-.16,0-.21v-.07h0s0,0,0,0h0s0,0,0,.05a.32.32,0,0,0,.06.11l0,.21.05-.06,0,.27Zm.41.84c-.05,0-.11-.09-.11-.09l.09,0-.14-.13.12,0-.15-.17.17.09-.2-.22.14.07-.19-.2.11,0L47.51,28l.14.06h0l0,0,0,0,.06-.16s0,.33,0,.35l.09-.17v.25l0-.15v.09l0,0h0l0,.22.07-.25h0v.16l-.07.08.07,0v.1l0,0c-.1,0,0,.06.09.06h.06v.07l0-.07h.06v.06l-.09.06-.1.1-.07,0,.11,0A.78.78,0,0,0,47.88,28.72Zm.19.29h.14L48,28.89h.13l-.09,0,.22-.11v.09l0-.11h0l0,.18-.15.24Zm.28-.13,0-.17v.08Zm.6-1.14a1.14,1.14,0,0,1,.19.07l-.06.3.12-.29,0,.3-.14,0h-.09s0,0,0-.05l.17-.12L48.9,28a.34.34,0,0,1,0-.1l.09-.15-.1.08C48.88,27.77,48.84,27.72,49,27.74Z"/><polygon class="cls-17" points="44.51 26.8 44.52 26.8 44.51 26.8 44.51 26.8"/><path class="cls-17" d="M29.67,26.15v0"/><path class="cls-17" d="M25.89,21.34s0,0,0,0l0,0"/><path class="cls-17" d="M27.68,21.56h0s0,0,0,0"/><path class="cls-17" d="M24.84,29.86l0-.32v0Z"/><path class="cls-17" d="M29.24,26.09h.59L29.2,26h.57l-.6-.12H30l-.79-.1.82-.09-1-.06.81-.09-.95-.05.71-.13-.93.07.17,0c.09,0,.17-.1.14-.15s.21-.22.21-.22.41-.24.46-.25l-.59.13.56-.23-.58.1.53-.25-.58.1.58-.29-.63.19.46-.31-.57.24.42-.35-.54.35.35-.45s-.47.4-.52.43l-.24.1c-.08,0-.08.07-.13.07h0l.13-.24-.18.24a.6.6,0,0,1-.22,0c-.05-.05.1-.12.16-.13l.64-.32-.58.11.51-.28-.46.12.48-.34-.51.17.41-.31-.63.19.47-.37-.52.2.51-.37-.51.24.35-.42-.4.25.39-.52-.46.44.21-.72-.36.7,0-.92-.12.6-.2,0h0l-.15,0,.39-.28-.44.24.16-.36-.33.34,0-.24a2.54,2.54,0,0,1-.23.34,2.07,2.07,0,0,0-.14.42s0,.08,0,.16l-.1.09,0-.21h0l.07-.27-.11.25h0v-.06l-.08,0-.06,0V23.3l.22-.09-.23,0v0h0v-.12l.28,0L26.29,23l0,0,.28-.12a1.27,1.27,0,0,1-.24,0l.08-.13-.22.12v0c0-.08.12-.29.12-.29l-.12.15v-.27l0,.33-.06.08L26,22.45l.12-.15-.12.14,0-.08,0-.11-.3.22v-.11l.07-.4-.23.33,0-.1,0-.32-.05.21,0-.1v.15l-.05.22-.13-.68,0,.59-.07-.12-.11-.4.08.64L25,21.94l.17.59-.3-.5.18.5-.11,0-.25-.31.17.28-.09,0,.12.07.16.27h0l-.23-.21.12.19-.32,0,.32.05a.35.35,0,0,1,0,.08l-.16,0-.06,0,0,0h-.11l.12,0L25,23l0,0-.11,0,.09.07-.15.23,0-.16-.05.06,0-.29-.07.23,0-.17-.13.26h0l0-.43-.09.24,0-.06v-.5l-.14.58,0-.65s0,.46-.12.3S24,22.1,24,22.1a3.82,3.82,0,0,1,.11.6l-.06.2-.17-.57,0,.57-.16-.54.08.46-.41-.75.29.78-.44-.39.37.52-.42-.39.37.49L23,22.56l.52.6-.67-.49.45.46v.07l-.41-.31.4.41v.1l-.11-.07-.1-.22.05.19-.18-.11.19.15.06.25-.43-.54.36.62-.47-.48.35.5h0l-.38-.23.19.19-.25-.06.41.23,0,0-.07,0-.39-.23.18.16-.22-.08.44.28,0,0-.4-.12-.12-.05.05,0-.06,0,.49.31L22.23,24l.59.28-.44-.07h-.1l.1,0,0,.16h-.11l.11,0,0,.17H22.4l-.23-.37s.19.43,0,.33-.52-.43-.52-.43a4.43,4.43,0,0,1,.39.48l0,.2-.41-.42.29.49-.4-.4.29.37-.72-.48.62.56-.57-.14.57.28-.55-.14.56.26L21,24.94l.74.29-.82-.12.93.31-.8-.12.9.28-.72,0,.91.17-.16,0c-.09,0-.19.06-.17.11s-.27.16-.27.16-.45.13-.5.13.6,0,.6,0l-.6.09.59,0-.57.12.58,0-.63.14.65,0-.52.18.62-.08-.5.23.61-.21-.45.36.61-.3c.06,0,.16,0,.25,0s.1,0,.15,0h0l-.19.2.24-.18c.07,0,.17.05.19.1s-.12.09-.18.09-.7.15-.7.15l.59,0-.56.15h.47l-.54.21.53,0-.47.19.65,0-.55.24.56-.07-.58.23.54-.1-.44.32L22.5,28l-.5.4.54-.3-.37.64.52-.59-.26.88.46-1v.46l.14-.66.07.45,0-.58.12.48.07-.5.15.37,0-.44,0,0,.16.06-.11.18.15-.17.06,0,0,0,0-.06.07.06-.12.14.18-.1s0,.08,0,.08l-.3.11h.24l-.08.11.14-.1h0l-.39.3L23.9,28l-.24.44.2-.26,0,.1a.58.58,0,0,1,.16,0l-.07.27.1-.22c0,.07-.08.21-.09.27a2.29,2.29,0,0,1-.27.31l.24-.06-.11.42.22-.5,0,.61.13-.58.07.05-.08.41.2-.31-.06.35-.13.08.13,0,0,.09.05-.11.1,0v.09l-.22.17.22-.11v.14l-.11.14.11-.11v.22l0-.26.14-.12,0,.14,0,.17.05-.09,0,.12,0-.15.17-.29,0,.24s0-.1.06-.18c0,3.13,0,8.89,0,9.41s-.09,1.1-.12,1.63c0,0,.09.14.44.13l.58,0c.15-.07-.09-.93-.14-1.74-.07-1-.1-6.49-.12-9.47l.16-.37a.21.21,0,0,1,.13.12.49.49,0,0,1,0,.21,2,2,0,0,1-.15.4l.16-.31-.06.34.26-.32,0,.54.17-.43.08.46v-.49l.29.63-.2-.7.34.58-.24-.6.36.36-.31-.52.42.4L26.55,29l.54.4-.52-.52.31.16a1.76,1.76,0,0,0-.31-.27l.3,0-.28-.15v0h.12l-.1,0,.09-.26v.16l0-.06.09.27v-.07l.07-.29v0l.07.42,0-.25,0,.05.11.48v-.59l.2.62s-.08-.46,0-.32.4.53.4.53a3.59,3.59,0,0,1-.26-.55,1.54,1.54,0,0,1,0-.2l.3.5-.17-.54L28,29l-.19-.42.58.63-.48-.69.52.28L28,28.38l.5.26L28,28.26l.7.37L28,28.17l.77.31-.55-.34v-.07l.48.2-.49-.3v-.09l.12,0,.15.18-.09-.17.2.06-.22-.09-.13-.23.56.42-.51-.52.57.35-.46-.4h.05l.41.13-.22-.14h.26l-.46-.12,0,0h.07l.43.13-.21-.11.23,0-.5-.16,0,0,.42,0h.13l-.55-.18.64,0L28.39,27l.45-.05v0h.09l-.1,0-.08-.14.11,0h-.11l-.09-.15.06,0,.31.3s-.28-.37-.11-.3l.6.28a3.93,3.93,0,0,1-.49-.37L29,26.29l.5.3-.4-.4.49.28-.37-.28.81.28Zm-2-3.13V23H27.1Zm-.41.53.12-.16.05.44-.19-.25Zm.23.73a.38.38,0,0,1,.09.09s0,.08,0,.1a.54.54,0,0,1-.15.09.41.41,0,0,0-.12.08.26.26,0,0,1-.15,0s0-.06,0-.09a.23.23,0,0,1,.08-.13l.12-.08h0l.13-.08h-.12c.05-.05,0-.06.09-.09s0,0,0,0h0A.24.24,0,0,0,27.09,24.22Zm-.36.77s0-.06.05-.1,0,0,.09,0,0,0,0,.08Zm.15,0v0l-.14.12h-.09v0h0ZM27,23.91h0Zm0,0Zm0,0-.17-.06,0-.05.11,0,.05.12Zm0,0h-.17Zm0,.21-.11.1,0,0,.09-.15h0A.18.18,0,0,1,26.93,24.11ZM26.84,24l-.09.12-.05-.05,0-.09Zm-.12.16-.07.09,0-.11Zm.06-.54h-.05a1.35,1.35,0,0,0,.09-.11l.07.18H26.8v0l-.1,0Zm0,.13,0,.05-.09,0Zm-.14.09h0Zm-.08.88,0,0c0-.07.05,0,.11,0a.36.36,0,0,1,.15,0s0,0,0,.05a1.1,1.1,0,0,1-.11.14.74.74,0,0,1-.11.1l-.06,0,.17-.26A.41.41,0,0,1,26.55,24.74Zm-.06-1.07a0,0,0,0,0,0,0h0Zm-.08-.25h0v0Zm0,2.26h.05l.15,0h0l-.2.05-.07-.06h0Zm0,2c0-.05,0-.08,0-.08s.07,0,.07,0a0,0,0,0,1,0,0S26.42,27.72,26.37,27.68Zm-2-2.13.1.2h0l-.14-.2h0v0Zm.07,0s0,0,.05,0a.28.28,0,0,0,0,.09ZM24.93,24s0,0,0,0,0,.08,0,.08-.06-.06-.06-.06S24.9,24,24.93,24Zm0-.6.13-.15.06,0Zm.77,1.37.1.11h0v0h-.07A.86.86,0,0,0,25.67,24.8Zm-.82,2.7v.05h0l0,0v0a.25.25,0,0,1-.11,0Zm-.08.18a.15.15,0,0,1,.1-.05v.1C24.8,27.72,24.74,27.71,24.77,27.68Zm.09-.16v0h0Zm1.26-1,.18,0,0,.16h-.1L26,26.6S26.08,26.55,26.12,26.55Zm.2-.24c.06,0,0,0,.07,0s0,.08-.05.1S26.33,26.35,26.32,26.31Zm0,.44s0,.06,0,.09h0a.53.53,0,0,1-.13-.06Zm.07.09,0-.06v0h.07l.13,0,0,0-.09,0Zm.13-.14-.11,0h-.06a.43.43,0,0,0,0-.11v-.06h0a.24.24,0,0,1,.13,0c.07,0,.05,0,.08.08l.05.08A.11.11,0,0,1,26.54,26.7ZM26.39,26a.21.21,0,0,1,0-.06l.12.13S26.41,26,26.39,26Zm.2.06-.15-.17h0l.18.15h0v0Zm-.28,0c.05,0,.09,0,.12.08s0,0,0,0l-.07,0a1.11,1.11,0,0,1,0-.17Zm0,.24v0a.84.84,0,0,0,0,.1l-.14,0-.07,0v-.05a.14.14,0,0,1,.1,0C26.23,26.38,26.23,26.35,26.26,26.33Zm0,0a.38.38,0,0,1-.14,0h0c0-.05,0-.1,0-.15h0s0-.07.11-.12a.08.08,0,0,1,0,0,.9.9,0,0,1,.05.19Zm0-3v0h0Zm-.22-.4h0l-.08,0V22.6l.09-.11Zm0-.54v.09l-.09.09h0Zm-.08,1.86.08,0a.84.84,0,0,1,0,.13l-.09-.08Zm-.23.13c0-.06,0-.08.06-.08h0l.11.31-.19-.21Zm0,.09.16.29-.16-.06Zm-.06.21-.05,0,0,.06,0,0V25h0c0-.07-.05-.27-.05-.33v0a.16.16,0,0,1,0-.08l0,.1Zm-.1-1v0l.09.06h-.06S25.5,23.68,25.51,23.67Zm-.22.74.11,0s.05,0,.08.08a1.85,1.85,0,0,1,.07.46h-.09l.09,0a.1.1,0,0,1,0,0c0,.05,0,.06,0,.06l-.08-.1-.08-.12a.34.34,0,0,1-.07-.19.17.17,0,0,1,0-.05h0a.31.31,0,0,1,0-.09A.49.49,0,0,1,25.29,24.41Zm0-.83c0,.05,0,.16-.2.14s-.1,0-.1-.11v-.07l.09-.09A1.6,1.6,0,0,1,25.26,23.58Zm-.1-.19h-.05l0,0Zm-.1-.16,0,0,.05,0Zm0-.63.06,0,0,.08Zm0,.2v0l0,0Zm-.17.06.09,0h0l0,0Zm.17.22-.06,0,0,0Zm-.08,0,.08.07-.05,0h-.06l0,0-.12.1Zm-.19,1.76.11.09-.13-.08v0Zm-.16-.76s0,.05,0,.07,0,0,0,0Zm.05.71,0,0v0l0,0-.09,0ZM24.51,23l0,.05,0,.06Zm-.69,3.16h0l0,0Zm0,.12.21,0,0,0-.19,0,.12.07-.19.08a.35.35,0,0,1-.14,0c-.07,0,0,0-.09-.06l0,0,0-.05h.18l0,.14.06-.14Zm-.06.26,0,0,.15-.07h.1v0h0Zm.15,0s0,.05-.08.08-.05,0-.09,0,0-.05,0-.08Zm-.45-.32h0l0,0Zm.18-.09h.07v.07l-.12,0h0Zm-.18-2.78-.17-.12,0-.08Zm0,.16h0l-.06,0v-.05Zm-.25-.08v.09l-.07-.15Zm-.83.75.37.13h0l.14,0-.39,0Zm0,.35h.07l.05.18Zm.08-.18.13,0v.11l-.07,0Zm.08.18h.06l0,.16Zm.05-.16.34.05-.3.06Zm.07.16h.11v.19h0Zm.08.2h0v.06Zm.39.1v-.1l-.07.07H23l0-.21-.06.18h0l-.08-.22h.27l.17,0,.07,0h0l-.12.09a2.36,2.36,0,0,1,.32,0s0,.1,0,.17l-.06,0Zm.3,2.72v0h0Zm.08-.21.14-.07h0l-.16.17A.24.24,0,0,1,23.53,27.36Zm.13.22-.1-.09.27-.21Zm.18-.53a.17.17,0,0,1-.11.09l-.27.1.11,0c-.06,0-.05.05-.11.07h0a.37.37,0,0,0,0-.13.47.47,0,0,1-.07-.12s.05-.06.07-.08a.58.58,0,0,1,.17-.05l.13,0s.13,0,.15,0A.19.19,0,0,1,23.84,27.05Zm.06-.28a.85.85,0,0,1,.15.07s0,0,0,0-.07,0-.12,0a.29.29,0,0,1-.14-.05s0,0,0-.06a.64.64,0,0,1,.14-.1l.13-.07h.06Zm.25-1,0-.05a.67.67,0,0,1-.1-.12h0v-.07c0-.06.07,0,.1-.05h.09a3,3,0,0,1,.19.26h0C24.26,25.76,24.22,25.79,24.15,25.8Zm.23,3.36-.07,0,.07-.15Zm0-3.21-.13-.07h.19a.78.78,0,0,1,0,.07v0h-.07Zm0,3.52,0-.11.09,0v0Zm0-.21v0h0Zm0-1.77.06-.12.06.09v0Zm.16,1.9v-.05h0Zm.05-.71h0a.52.52,0,0,1,0-.21l.08.05Zm.06-.41,0,0h0l0,0Zm.05.08Zm0-.2,0,0,.06,0Zm-.06-.29.07,0,0,.11Zm.14-.06h0v0Zm.66-.14v0h.06A.05.05,0,0,1,25.51,27.66Zm.42.52,0,.09-.06-.08a.1.1,0,0,1,0-.06h0S25.94,28.16,25.93,28.18Zm0-.77,0,0v0Zm.26.79c-.06,0,0-.16.16-.19s.1,0,.12.09h0a.28.28,0,0,1,0,.06l-.06.11Zm.18.18h0l.06,0Zm.08.14-.05,0h.07Zm0-.08-.07,0,.15-.16Zm.08.22-.05,0h.06Zm0-.08-.1,0,0-.05h.07l-.05,0,.09-.12Zm.09-1.06,0-.05s0,0,0,0S26.69,27.52,26.68,27.52Zm.16-1.47h-.09l-.24-.2h0c.07,0,.09-.05.17-.07l.06,0a.44.44,0,0,1,.12.1h0a.19.19,0,0,0,0,.07C26.94,26,26.87,26,26.84,26.05Zm.11-.71h0l0,0ZM27,28.53v-.06l0,.11Zm.06-3.21h0s0,0,0,0v-.07l.1-.06h0Zm.08-.2-.11,0-.06,0,0-.13,0,.15-.07,0-.21,0a.18.18,0,0,1,0-.05l.19,0-.13,0a.76.76,0,0,1,.17-.13.38.38,0,0,1,.13,0c.06,0,.05,0,.1,0l.05,0ZM27,23.31l.11-.16h0l.09.56Zm.24,1.91v0h0Zm-.12-2.07.16,0,0,.45Zm.26.17-.06-.24.12,0Zm.06-.31H27.3l0-.07.19-.08Zm1.12,3.58-.06,0-.06-.15Zm-.11,0-.1,0-.06-.18h0Zm-.13-.17h0l0-.05Zm-.43.24h-.1l.1-.12a3.15,3.15,0,0,1-.32.05c-.06,0-.08-.09,0-.17h.36l0,.09.06-.09h.06l.09.19v-.19h0l.13.2-.26.05H28l0,0Zm.05,1.12h0l.07,0,0,.05ZM28,28l.2.07,0,.07Zm.34-.11-.09,0v-.1Zm-.08-1.07.28-.12.07.09Zm.61.1-.39,0,0,0h-.13l.37-.08Zm-.13-.14h-.13l0-.11.07,0Zm0-.18-.09-.16.16.15Z"/><path class="cls-17" d="M27,22.31l-.05.31h0Z"/><path class="cls-18" d="M61.93,19.86a33.92,33.92,0,0,0-1.56-5.5,15,15,0,0,0,.26,1.71c.43,1.95.43,2.76.63,4.08,0,0,0,0,.05,0,.63,3,2.76,13.45,2.76,20.65,0,8.45-1.86,15.87-6.42,20.42l0,0a9.77,9.77,0,0,1-2.41,1.82l.4.71a13.89,13.89,0,0,0,4.08-3.62c1.77-2.1,4.48-6.41,5.17-13.66.62-6.44,1.06-9.72-3-26.66"/><path class="cls-18" d="M15,61.33l0,0c-4.66-4.43-6.56-11.67-6.56-19.92,0-6.2,1.88-14.91,2.71-18.85l-.34.1-.33-.38C6.72,37.64,7,40.84,7.59,47,8.3,54,11.06,58.22,12.87,60.27A14.26,14.26,0,0,0,17,63.8l.41-.69A10,10,0,0,1,15,61.33"/><path class="cls-18" d="M17.41,63.21l-.17-.08v0a6.78,6.78,0,0,1-.75-.45,14.72,14.72,0,0,1-3.69-3.86A2.65,2.65,0,0,0,16.38,58a4.62,4.62,0,0,0-1.24-.7,3.22,3.22,0,0,0,2.1-2.19.13.13,0,0,0,0-.06,3.11,3.11,0,0,0-3.18-.55A4.23,4.23,0,0,1,14.8,53a3.52,3.52,0,0,0-3.75,2.63,27,27,0,0,1-1.18-3.18c1.28.77,3.19,1.34,4.65-.75a5.28,5.28,0,0,0-1.43-.69,3.57,3.57,0,0,0,2.18-2.58.13.13,0,0,0,0-.06A3.46,3.46,0,0,0,11.7,48a4.74,4.74,0,0,1,.71-1.67,4.11,4.11,0,0,0-3.52,1.88c-.16-1.06-.3-2.18-.38-3.38l.34-.19a2.73,2.73,0,0,0,2.47,1.44,4.05,4.05,0,0,0,.95-.12,2.35,2.35,0,0,0,1.89-1.3,1.79,1.79,0,0,0,.08-.65,1,1,0,0,0,.24-.11,2.27,2.27,0,0,0,.84-1,7,7,0,0,0,.6-1.84,5.33,5.33,0,0,0-2.68-.51,1.42,1.42,0,0,0-.2-.28,1.4,1.4,0,0,0-1-.39,3,3,0,0,0-1,.21,4.24,4.24,0,0,0-.37-.78,12.35,12.35,0,0,1-1.16.48,3.12,3.12,0,0,0-1.06.43c0-1,.08-2.1.16-3.21.51,1.12,1.61,2.65,3.7,1.73a4,4,0,0,0-.7-1.08,3,3,0,0,0,2.63-.88l0,0A2.8,2.8,0,0,0,11.87,35a3.86,3.86,0,0,1,1.22-.87,3.19,3.19,0,0,0-4.36.81c.11-1.07.25-2.19.43-3.35.62.72,3.1,3.24,5.31.76a4.59,4.59,0,0,0-1.23-.78,3.26,3.26,0,0,0,2.26-2.12.14.14,0,0,0,0-.06,3.17,3.17,0,0,0-3.22-.73,4.54,4.54,0,0,1,.64-1.23,3.2,3.2,0,0,0,.91-.68,2.61,2.61,0,0,0-.79-.61A3.12,3.12,0,0,0,15,24.39l0,0a1.87,1.87,0,0,0-2.23-.54,4.47,4.47,0,0,1,.79-1.17,3,3,0,0,0-3,1.61l.21-.9a2.37,2.37,0,0,1,.64-1.15l.19-.15h0a3.1,3.1,0,0,1,.57-.36,3.86,3.86,0,0,0,2.16-2.32,1.83,1.83,0,0,0,.11-1.64,1.66,1.66,0,0,0-1.52-.63,5.41,5.41,0,0,0-.87.08,4.21,4.21,0,0,0-1.72-.49,1.31,1.31,0,0,0-1,.42,2.21,2.21,0,0,0-.42,1.52,6,6,0,0,0,.16,1,2.43,2.43,0,0,0,.28.85c.23.4.53.74.77,1.13l-.13,0a2.47,2.47,0,0,1,.28,1.91l-.08.27a2.93,2.93,0,0,0-2.47-2.45,5.18,5.18,0,0,0-.14,1.62,3.71,3.71,0,0,0-3.31-1.14l-.06,0a3.5,3.5,0,0,0,.94,3.56,5,5,0,0,1-1.89-.06A4.86,4.86,0,0,0,4,26.55l-.11.11a2.39,2.39,0,0,0-.31,1.94c-.77,1.09-1,2-.66,2.67a2,2,0,0,0,.29.4A2.63,2.63,0,0,0,2,32l0,0A3.31,3.31,0,0,0,3.6,35a4.6,4.6,0,0,1-1.73.35,4.32,4.32,0,0,0,1.46,1.34,1.86,1.86,0,0,0-.15.56A4,4,0,0,0,1,38.77s.75.68.89.87a3,3,0,0,0,.68.7,2.23,2.23,0,0,0,.26.41,4.36,4.36,0,0,0-1.33,1A6.12,6.12,0,0,0,3,42.79a4.23,4.23,0,0,0-3,2.63l0,.06a4.08,4.08,0,0,0,4.1,1.1,6.57,6.57,0,0,1-.63,1.23l-.16,0a.7.7,0,0,1,0,.11,4,4,0,0,1-.38.44,5.63,5.63,0,0,0,.59.06,5,5,0,0,0,.67,1.11,4.44,4.44,0,0,0-4.07,1l-.06.05a4.25,4.25,0,0,0,3.28,3,5.87,5.87,0,0,1-1.93,1.16,5.5,5.5,0,0,0,3.28,1.06A2,2,0,0,0,5.26,57a2,2,0,0,0,.21,1.51,4.56,4.56,0,0,0-.69,1.2,5.85,5.85,0,0,0,1.81.41,4.18,4.18,0,0,0-1.8,3.53s0,.05,0,.07A4.06,4.06,0,0,0,9,63.23a5.38,5.38,0,0,1-.36,2.1,4.56,4.56,0,0,0,3.55-5.78A14.56,14.56,0,0,0,15.52,63a13.39,13.39,0,0,0,1.48,1ZM10.78,40.74a3.75,3.75,0,0,0-1.31.72,2.39,2.39,0,0,1,1-.79l.11-.05A4,4,0,0,1,12,40.21a1.06,1.06,0,0,1,.79.3,2.89,2.89,0,0,1,.51,2v.06l0,0a2.4,2.4,0,0,1,.5,1.93c-.18.52-.74.89-1.64,1.09l-.15,0a3.42,3.42,0,0,0,1.45-1.35c-2.72,2.28-3.87,0-3.87,0l1.11-1-1.61.22C8.74,41.75,10.78,40.74,10.78,40.74ZM9.2,18.58a1.87,1.87,0,0,1,.33-1.26c.43-.46,1.26-.4,2.41.17l.06,0h.05a4.4,4.4,0,0,1,.86-.09,1.41,1.41,0,0,1,1.23.47c.23.38.08,1.06-.41,1.93l-.35.43a4.22,4.22,0,0,1-1.74.83l-.21-1.51L10.77,21a4.88,4.88,0,0,1-1.46-1.66A5,5,0,0,1,9.2,18.58ZM8.09,33.35A3.7,3.7,0,0,0,7.56,32c.33-.16.61-.31.83-.44C8.28,32.12,8.19,32.73,8.09,33.35ZM7.76,36c0,.48-.09,1-.12,1.43a6.82,6.82,0,0,0-.88-.73c.21-.11.43-.23.66-.38Zm-.21,4c0,.31,0,.61,0,.91l0,.47c0,.31,0,.61.05.9a6.94,6.94,0,0,0-1.76-1.33A3.84,3.84,0,0,0,7.55,40Zm.34,6.13a38.82,38.82,0,0,0,.46,4,4.56,4.56,0,0,0-2.1-2.28A4.18,4.18,0,0,0,7.89,46.1Zm.66,7.47L9,52.73c.18.61.37,1.22.6,1.83l-.05,0,.05.12-.3.21A4.82,4.82,0,0,0,8,54.2,5.67,5.67,0,0,0,8.55,53.57Zm2.74-26.21a3.21,3.21,0,0,0-1.64,1.26c.15-.78.31-1.58.48-2.39A3.47,3.47,0,0,0,11.29,27.36Zm-2.54.26.49-.28c-.09.38-.18.79-.27,1.21l-.19-.26c-.08-.19-.18-.41-.27-.6ZM3.19,31.13c-.28-.58-.06-1.39.67-2.4l.05-.06,0-.08a2.17,2.17,0,0,1,.24-1.73s0,0,.06-.06a3.8,3.8,0,0,0,4,1c.12.27.27.6.39.83a.87.87,0,0,1-.43.89A1.76,1.76,0,0,1,8,31.36a5.43,5.43,0,0,1-2.48.81H5.43C5.25,32.15,3.64,32.05,3.19,31.13Zm0,9.49a1.63,1.63,0,0,1-.47-1.18,1.36,1.36,0,0,1,.88-.94l.13-.06,0-.15a2.18,2.18,0,0,1,0-1.43,3.43,3.43,0,0,0,2.57.08l.26.32A1.18,1.18,0,0,1,5.7,39s.86.56.45,1.24l-.84.42,0,0A3.24,3.24,0,0,0,3.15,40.62ZM7.93,58.24a4.66,4.66,0,0,0,1-.35,2.36,2.36,0,0,1-1.61.92H7a1.53,1.53,0,0,1-1.19-.43A1.66,1.66,0,0,1,5.6,57l0-.09-.07-.06a1.8,1.8,0,0,1-.49-1A4.59,4.59,0,0,0,7.72,54.5h0c.15.11.73.54,1,.7L8,56l1.17-.28.16.28C9.56,57.41,7.93,58.24,7.93,58.24Zm1.6-.71.1-.2a1.21,1.21,0,0,0,.26-.57.19.19,0,0,0,0-.13h0a2.51,2.51,0,0,0-.24-1c0-.09.13-.19.23-.25a20.68,20.68,0,0,0,1.42,2.87h0A9.2,9.2,0,0,0,9.53,57.53Z"/><path class="cls-18" d="M64.45,36.35c0,.74,0,1.49.08,2.24,1.12-.61,2.07-1.22,3.24-1.76a23.65,23.65,0,0,1,4.61,2.45C70.23,37,67.8,34.9,67.8,34.74c-1.14.5-2.26,1-3.35,1.61"/><path class="cls-18" d="M72.53,44.79c-1.8-2.26-2.36-3.32-4-5.25-1.34.46-2.84,1.18-4.13,1.75,0,.75,0,1.5,0,2.25,1.23-.69,2.5-1.32,3.81-1.9,2,1.43,4.25,3.14,4.32,3.15"/><path class="cls-18" d="M63,26.72l.21,2.4q1.75-1,3.6-1.89a28.59,28.59,0,0,1,4.53,2.69,38.88,38.88,0,0,0-5.25-4.81c-1,.49-2.08,1-3.09,1.61"/><path class="cls-18" d="M72,35a46.74,46.74,0,0,0-4.73-4.82c-1.23.41-2.43.87-3.61,1.38.07.75.14,1.51.2,2.27,1.2-.62,2.42-1.19,3.67-1.71A39.16,39.16,0,0,1,72,35"/><path class="cls-18" d="M62.4,22.71c.08.8.15,1.59.22,2.38a37.82,37.82,0,0,1,3.48-2.22A44.47,44.47,0,0,1,71,26.24,59.1,59.1,0,0,0,66,21.17a35.11,35.11,0,0,0-3.64,1.54"/><path class="cls-18" d="M56.7,53.89c1-.52,2.09-1,3.16-1.4.82.71,1.6,1.46,2.35,2.24L63,53c-.7-.82-1.44-1.6-2.22-2.35a44.76,44.76,0,0,0-4,3.27"/><path class="cls-18" d="M55.92,24.65c.91-.86,1.86-1.67,2.85-2.44,1.12.26,2.23.57,3.32.93q.06-.88.15-1.77c-1.05-.4-2.13-.76-3.23-1.08a46.55,46.55,0,0,0-3.09,4.36"/><path class="cls-18" d="M56.74,28.58c.91-.85,1.86-1.66,2.84-2.43q1.7.39,3.33.93c0-.59.09-1.18.14-1.77-1-.4-2.12-.76-3.22-1.08a44.14,44.14,0,0,0-3.09,4.35"/><path class="cls-18" d="M56.75,42.39a44.43,44.43,0,0,1,4.78-2.94c1,.6,2,1.26,3,1.95,0-.69.07-1.39.11-2.09-.9-.66-1.81-1.28-2.76-1.86a54.58,54.58,0,0,0-5.15,4.94"/><path class="cls-18" d="M62.16,21.25c0-.14,0-.28,0-.42q1.32-.7,2.7-1.32c1.31.4,2.59.85,3.86,1.37q-2-1.72-4.11-3.25c-1,.44-1.92.92-2.85,1.43q.23,1.1.42,2.19"/><path class="cls-18" d="M61.69,44.34c.84.59,1.66,1.22,2.45,1.87.09-.65.17-1.3.25-2-.87-.81-1.77-1.58-2.7-2.32a51,51,0,0,0-4.84,4.8,38.9,38.9,0,0,1,4.84-2.4"/><path class="cls-18" d="M61.27,48.84c.83.7,1.63,1.44,2.39,2.21l.12-2.2c-.77-.63-1.56-1.22-2.38-1.79a44.75,44.75,0,0,0-4.31,4.72,36.56,36.56,0,0,1,4.18-2.94"/><path class="cls-18" d="M64.11,50.2c-.34.86-.68,1.71-1,2.57a37,37,0,0,1,3.78-1.22c.78,1.21,1.51,2.45,2.18,3.71a58.42,58.42,0,0,0-1.59-5.67c-1.13.16-2.25.36-3.36.61"/><path class="cls-18" d="M62.44,54.51c-.71,1-1.39,2.08-2,3.14a35.12,35.12,0,0,1,4.33-1.92c.78,1.18,1.5,2.39,2.16,3.62-.38-1.84-.85-3.68-1.4-5.5-1,.18-2.06.4-3.07.66"/><path class="cls-18" d="M60.09,58.67,60,59c-.24.49-.47,1-.69,1.48q1.58-.28,3.18-.42c.7,1.08,1.36,2.17,2,3.29q-.27-2.52-.63-5a32.43,32.43,0,0,0-3.69.34"/><path class="cls-18" d="M64.82,45.51c-.07.76-.15,1.53-.22,2.29.87-.39,1.76-.76,2.66-1.1a45,45,0,0,0,3.82,3.46c-.91-2-1.91-3.3-2.92-5.43-1.13.21-2.24.47-3.34.78"/><path class="cls-18" d="M60.6,58.13c.32-.43.65-.85,1-1.27-.69-.68-1.41-1.34-2.16-2a40.7,40.7,0,0,0-3.64,2.91c.94-.48,1.91-.94,2.9-1.36.66.55,1.29,1.12,1.9,1.71"/><path class="cls-18" d="M61.23,19.57l-.18-1.88-1.27-.43c-.83,1-1.63,2-2.41,3,.78-.56,1.56-1.1,2.36-1.59.51.27,1,.55,1.5.85"/><path class="cls-18" d="M64.49,37.12c0-.7,0-1.39.05-2.09-1-.71-2-1.37-3-2a51.5,51.5,0,0,0-5,5.42,41.85,41.85,0,0,1,4.89-3.35c1.07.62,2.11,1.29,3.11,2"/><path class="cls-18" d="M63.82,31.9l-.21-2.2q-1.5-1-3.09-1.77a56.37,56.37,0,0,0-4.44,6.32,39.69,39.69,0,0,1,4.79-3.84c1,.45,2,.95,3,1.49"/><path class="cls-18" d="M53.15,41.45v-1C52.23,39.59,50,39,47.4,39a16.37,16.37,0,0,0-2.72.22A3.65,3.65,0,0,1,42.54,39a16.79,16.79,0,0,0-6.47-1.12A16.68,16.68,0,0,0,29.57,39a3.72,3.72,0,0,1-2.21.29A16.42,16.42,0,0,0,24.53,39a11.49,11.49,0,0,0-5.23,1v1.4Z"/><path class="cls-4" d="M109.47,26.3a9.18,9.18,0,0,1-1,4.5,8.34,8.34,0,0,1-2.84,3.06,13.11,13.11,0,0,1-4.28,1.77,24.68,24.68,0,0,1-5.4.54H93.5v8.69a3.14,3.14,0,0,0,.28,1.36,2,2,0,0,0,1.08.93,7.64,7.64,0,0,0,1.35.37l1.05.19a.65.65,0,0,1,.53.66v.45a.64.64,0,0,1-.63.66H82.5a.73.73,0,0,1-.72-.75v-.28a.73.73,0,0,1,.63-.74l1-.11a5.26,5.26,0,0,0,1.39-.3,2,2,0,0,0,1.07-.85,3.1,3.1,0,0,0,.26-1.39V23.26a3.14,3.14,0,0,0-.25-1.32A2,2,0,0,0,84.78,21a8.56,8.56,0,0,0-1.55-.47c-.36-.07-.67-.14-.93-.18a.66.66,0,0,1-.52-.65v-.48a.65.65,0,0,1,.63-.66H98.08q5.73,0,8.56,1.91a6.53,6.53,0,0,1,2.83,5.82m-8.12,1.12A8.23,8.23,0,0,0,100,22.24c-.9-1.12-2.49-1.69-4.78-1.69H93.5V34.13h.88a7.37,7.37,0,0,0,5.19-1.65Q101.36,30.85,101.35,27.42Z"/><path class="cls-4" d="M123.74,49.48H111.9a.73.73,0,0,1-.71-.74v-.18a.73.73,0,0,1,.63-.73l.44,0a3.51,3.51,0,0,0,.89-.22,1.73,1.73,0,0,0,.94-.75,2.66,2.66,0,0,0,.27-1.29V32.84A2.64,2.64,0,0,0,114,31.5a3.15,3.15,0,0,0-.84-.93,4.38,4.38,0,0,0-1.13-.5,8.13,8.13,0,0,0-.81-.21.74.74,0,0,1-.58-.74V28.9a.75.75,0,0,1,.69-.76l8.78-.44c.56,0,1,.72,1,1.31V45.23a2.53,2.53,0,0,0,.31,1.3,1.9,1.9,0,0,0,.89.79,5.86,5.86,0,0,0,.92.35,4.42,4.42,0,0,0,.52.14.64.64,0,0,1,.52.63v.39a.63.63,0,0,1-.61.65m-2.43-27.69a3.71,3.71,0,0,1-1.22,2.82,4.15,4.15,0,0,1-5.78,0,3.75,3.75,0,0,1-1.22-2.82A3.82,3.82,0,0,1,114.31,19a4,4,0,0,1,2.9-1.17A4,4,0,0,1,120.1,19,3.81,3.81,0,0,1,121.31,21.79Z"/><path class="cls-4" d="M188.09,49.48H176.26a.73.73,0,0,1-.71-.74v-.18a.73.73,0,0,1,.63-.73l.43,0a3.49,3.49,0,0,0,.9-.22,1.73,1.73,0,0,0,.94-.75,2.66,2.66,0,0,0,.27-1.29V32.84a2.64,2.64,0,0,0-.34-1.34,3,3,0,0,0-.83-.93,4.55,4.55,0,0,0-1.13-.5,7.63,7.63,0,0,0-.82-.21.75.75,0,0,1-.57-.74V28.9a.74.74,0,0,1,.69-.76l8.78-.44c.56,0,1.05.72,1.05,1.31V45.23a2.53,2.53,0,0,0,.31,1.3,1.85,1.85,0,0,0,.89.79,5.86,5.86,0,0,0,.92.35,4.42,4.42,0,0,0,.52.14.64.64,0,0,1,.52.63v.39a.64.64,0,0,1-.62.65"/><path class="cls-4" d="M148.51,48.55a.68.68,0,0,1-.42.65,17.58,17.58,0,0,1-1.74.59,9.85,9.85,0,0,1-2.64.34,7,7,0,0,1-3.76-.79,3.93,3.93,0,0,1-1.64-2.28h-.13a14,14,0,0,1-1.36,1.27,8.59,8.59,0,0,1-1.41.89,10.09,10.09,0,0,1-1.89.72,10.36,10.36,0,0,1-2.53.24,6,6,0,0,1-4.13-1.5,5,5,0,0,1-1.71-4,6.9,6.9,0,0,1,.37-2.41A5.66,5.66,0,0,1,128,39.4a16.75,16.75,0,0,1,1.8-.85q1.88-.72,4.51-1.49a24.78,24.78,0,0,0,3.83-1.39V33.58c0-.36,0-.84-.08-1.44a5.34,5.34,0,0,0-.35-1.5,3,3,0,0,0-.92-1.18,2.65,2.65,0,0,0-1.65-.48,3.64,3.64,0,0,0-1.53.28l-.5.24a.78.78,0,0,0-.36.89c.06.22.14.47.23.75a5.69,5.69,0,0,1,.29,1.72,2.89,2.89,0,0,1-.19.93,2,2,0,0,1-.54.88,3.56,3.56,0,0,1-1.08.67,4.91,4.91,0,0,1-1.82.24A3.65,3.65,0,0,1,127,34.7a3.24,3.24,0,0,1,0-4.49,7.67,7.67,0,0,1,2.26-1.6,12.89,12.89,0,0,1,3-1,15.41,15.41,0,0,1,3.17-.36,24.84,24.84,0,0,1,3.7.25,8.36,8.36,0,0,1,3,1,5.3,5.3,0,0,1,2,2.21,8.06,8.06,0,0,1,.76,3.78c0,1.64,0,3.58-.09,5.83s-.09,3.74-.09,4.45a3.45,3.45,0,0,0,.28,1.54,1.74,1.74,0,0,0,.86.85,2.86,2.86,0,0,0,1.11.21l.74,0a.67.67,0,0,1,.65.69ZM138.18,37.68a24.07,24.07,0,0,0-2.32,1A9.24,9.24,0,0,0,134,39.75a4.27,4.27,0,0,0-1.21,1.56,5.33,5.33,0,0,0-.44,2.24,3.49,3.49,0,0,0,.74,2.47,2.5,2.5,0,0,0,1.83.76,3.32,3.32,0,0,0,1.89-.49,5.57,5.57,0,0,0,1.31-1.21Z"/><path class="cls-4" d="M174.42,48.81a.65.65,0,0,1-.59.66l-8.93,0c-.39,0-.72-.49-.72-.9V46.5h-.13l-1.38,1.31A7.76,7.76,0,0,1,161.06,49a8.1,8.1,0,0,1-4.76,1.15,5.94,5.94,0,0,1-4.81-2,8.4,8.4,0,0,1-1.68-5.6v-9.8a2.71,2.71,0,0,0-.31-1.38,3.35,3.35,0,0,0-.82-.95A2.68,2.68,0,0,0,147.6,30l-.65-.12a.66.66,0,0,1-.55-.66v-.35a.67.67,0,0,1,.61-.68l8.76-.44c.45,0,.92.62.92,1.09V42.42a5.39,5.39,0,0,0,.82,3.31,2.68,2.68,0,0,0,2.26,1.07,4.62,4.62,0,0,0,2.65-.8,5.53,5.53,0,0,0,1.72-1.73V32.53a3.11,3.11,0,0,0-.27-1.32,2.33,2.33,0,0,0-.79-1A2.37,2.37,0,0,0,162,29.9l-.83-.09a.65.65,0,0,1-.59-.66v-.34a.65.65,0,0,1,.6-.67L170,27.7c.45,0,1,.62,1,1.09V45.25c0,1.72.76,1.87,1.14,2.11a2.36,2.36,0,0,0,1,.36c.22,0,.44.06.66.08a.67.67,0,0,1,.59.67Z"/><path class="cls-4" d="M187.49,19.39a2.36,2.36,0,0,1-.39,1.42,4.65,4.65,0,0,1-1.22,1.1c-.61.42-1.57,1-2.89,1.77s-2.56,1.52-4.07,2.46a.63.63,0,0,1-.76-.07.71.71,0,0,1-.08-.9q1.39-2,2.19-3.15c.59-.91,1.11-1.68,1.55-2.32a5.07,5.07,0,0,1,1.53-1.61,3.54,3.54,0,0,1,1.81-.42,2.73,2.73,0,0,1,1.61.51,1.46,1.46,0,0,1,.72,1.21"/><path class="cls-4" d="M87.11,63.38h-.74l-.26-.76a2.13,2.13,0,0,1-1.76.9,2,2,0,0,1-1.93-1.05,5.19,5.19,0,0,1-.4-2.39V57.6a9.86,9.86,0,0,1,0-1.3,2.67,2.67,0,0,1,.49-1.18,2.34,2.34,0,0,1,2-.84,2.37,2.37,0,0,1,1.93.81,3,3,0,0,1,.6,2v.27H85.63c0-1.17-.36-1.75-1.09-1.75a.91.91,0,0,0-.94.59,3.32,3.32,0,0,0-.14,1.16v2.74a4.4,4.4,0,0,0,.14,1.35,1,1,0,0,0,1,.78.94.94,0,0,0,1-.78,5.76,5.76,0,0,0,.1-1.35H84.48V58.93h2.63Z"/><path class="cls-4" d="M94.23,60.54a3.56,3.56,0,0,1-.53,2.12,2.37,2.37,0,0,1-2,.86,2.44,2.44,0,0,1-2-.86,3.46,3.46,0,0,1-.53-2.12V57.27a3.57,3.57,0,0,1,.53-2.11,2.36,2.36,0,0,1,2-.88,2.43,2.43,0,0,1,2,.88,3.47,3.47,0,0,1,.53,2.11Zm-1.44,0V57.3a2.83,2.83,0,0,0-.18-1.23,1,1,0,0,0-.93-.48.94.94,0,0,0-1,.56,3.08,3.08,0,0,0-.16,1.15v3.21a3,3,0,0,0,.16,1.14,1.08,1.08,0,0,0,1.9,0A2.83,2.83,0,0,0,92.79,60.51Z"/><polygon class="cls-4" points="101.8 54.42 100 63.38 98.21 63.38 96.2 54.42 97.69 54.42 99.11 61.23 100.34 54.42 101.8 54.42"/><polygon class="cls-4" points="107.82 63.38 103.59 63.38 103.59 54.42 107.82 54.42 107.82 55.7 105.03 55.7 105.03 58.06 107.09 58.06 107.09 59.34 105.03 59.34 105.03 62.11 107.82 62.11 107.82 63.38"/><path class="cls-4" d="M115,63.38h-1.51l-1.23-3.68h-.87v3.68h-1.44v-9h2.25c1.79,0,2.69.85,2.69,2.57a2.37,2.37,0,0,1-1.26,2.33Zm-1.61-6.31A1.51,1.51,0,0,0,113,56a1.55,1.55,0,0,0-1.12-.29h-.53v2.72h.53a1.79,1.79,0,0,0,1.14-.29A1.39,1.39,0,0,0,113.38,57.07Z"/><polygon class="cls-4" points="122.1 63.38 120.8 63.38 118.28 57.41 118.28 63.38 116.92 63.38 116.92 54.42 118.39 54.42 120.74 60 120.74 54.42 122.1 54.42 122.1 63.38"/><path class="cls-4" d="M129.09,60.54a3.49,3.49,0,0,1-.54,2.12,2.36,2.36,0,0,1-2,.86,2.44,2.44,0,0,1-2-.86,3.39,3.39,0,0,1-.53-2.12V57.27a3.5,3.5,0,0,1,.53-2.11,2.35,2.35,0,0,1,2-.88,2.41,2.41,0,0,1,2,.88,3.39,3.39,0,0,1,.54,2.11Zm-1.45,0V57.3a2.83,2.83,0,0,0-.18-1.23,1,1,0,0,0-.92-.48.94.94,0,0,0-1,.56,3.13,3.13,0,0,0-.15,1.15v3.21a3.07,3.07,0,0,0,.15,1.14,1.09,1.09,0,0,0,1.91,0A3.07,3.07,0,0,0,127.64,60.51Z"/><path class="cls-4" d="M139.45,60.59c0,1.86-.89,2.79-2.69,2.79h-2.28v-9h2.28c1.8,0,2.69.94,2.69,2.81ZM138,60.2V57.6a2.93,2.93,0,0,0-.22-1.33,1.22,1.22,0,0,0-1.17-.57h-.7v6.41h.7a1.23,1.23,0,0,0,1.18-.58A3,3,0,0,0,138,60.2Z"/><path class="cls-4" d="M146.63,60.54a3.56,3.56,0,0,1-.53,2.12,2.39,2.39,0,0,1-2,.86,2.44,2.44,0,0,1-2-.86,3.39,3.39,0,0,1-.53-2.12V57.27a3.5,3.5,0,0,1,.53-2.11,2.35,2.35,0,0,1,2-.88,2.44,2.44,0,0,1,2,.88,3.47,3.47,0,0,1,.53,2.11Zm-1.45,0V57.3a2.83,2.83,0,0,0-.18-1.23,1,1,0,0,0-.92-.48.94.94,0,0,0-1,.56A3.13,3.13,0,0,0,143,57.3v3.21a3.07,3.07,0,0,0,.15,1.14,1.09,1.09,0,0,0,1.91,0A3.07,3.07,0,0,0,145.18,60.51Z"/><polygon class="cls-4" points="155.69 63.38 151.46 63.38 151.46 54.42 155.69 54.42 155.69 55.7 152.9 55.7 152.9 58.06 154.96 58.06 154.96 59.34 152.9 59.34 152.9 62.11 155.69 62.11 155.69 63.38"/><path class="cls-4" d="M162.21,61.23a2.09,2.09,0,0,1-.73,1.67,2.77,2.77,0,0,1-1.84.62A2.65,2.65,0,0,1,156.81,61l1.39-.39c.18,1.08.66,1.61,1.44,1.61a1.05,1.05,0,0,0,.78-.28,1,1,0,0,0,.29-.74,2,2,0,0,0-.94-1.42L158,58.43a2.68,2.68,0,0,1-.94-1.93,2,2,0,0,1,.69-1.6,2.56,2.56,0,0,1,1.75-.61,2.58,2.58,0,0,1,2.62,2.24l-1.39.39c-.23-.89-.64-1.33-1.23-1.33a.92.92,0,0,0-.67.26.86.86,0,0,0-.27.65c0,.43.31.89.94,1.39l1.74,1.34a2.78,2.78,0,0,1,.94,2"/><polygon class="cls-4" points="168.59 55.7 166.77 55.7 166.77 63.38 165.33 63.38 165.33 55.7 163.52 55.7 163.52 54.42 168.59 54.42 168.59 55.7"/><path class="cls-4" d="M174.79,63.38H173.3l-.39-2h-2l-.36,2h-1.42l1.79-9h2Zm-2.13-3.22-.77-4-.74,4Z"/><path class="cls-4" d="M181.72,60.59c0,1.86-.9,2.79-2.69,2.79h-2.28v-9H179c1.79,0,2.69.94,2.69,2.81Zm-1.44-.39V57.6a2.91,2.91,0,0,0-.23-1.33,1.19,1.19,0,0,0-1.16-.57h-.7v6.41h.7a1.23,1.23,0,0,0,1.18-.58A3,3,0,0,0,180.28,60.2Z"/><path class="cls-4" d="M188.89,60.54a3.49,3.49,0,0,1-.53,2.12,2.37,2.37,0,0,1-2,.86,2.42,2.42,0,0,1-2-.86,3.39,3.39,0,0,1-.54-2.12V57.27a3.5,3.5,0,0,1,.54-2.11,2.34,2.34,0,0,1,2-.88,2.43,2.43,0,0,1,2,.88,3.4,3.4,0,0,1,.53,2.11Zm-1.44,0V57.3a2.83,2.83,0,0,0-.18-1.23,1,1,0,0,0-.93-.48.94.94,0,0,0-1,.56,3.13,3.13,0,0,0-.15,1.15v3.21a3.07,3.07,0,0,0,.15,1.14,1.09,1.09,0,0,0,1.91,0A3.07,3.07,0,0,0,187.45,60.51Z"/></g></g></svg>