<svg id="VETORES" xmlns="http://www.w3.org/2000/svg" viewBox="0 0 471.89 358.61"><defs><style>.cls-1{fill:#2a2a2a;}</style></defs><path class="cls-1" d="M250.58,96c12.75-18.76,32.25-33,58.51-33,27.76,0,57,15,57,66.77v77.27c0,39.76,15.75,53.27,40.51,65.27,2.25,1.5,2.25,3.75,2.25,5.25,0,10.51-15,18-37.51,18-42.76,0-68.27-29.26-68.27-78V153.8c0-24-12.75-33.76-25.51-33.76-15.75,0-31.51,13.5-31.51,48.76v88.53c0,9-13.5,14.25-32.26,14.25s-30.76-5.25-30.76-14.25V153.8c0-24-12.75-33.76-25.5-33.76C141,120,126,135,126,168.8v88.53c0,9-13.51,14.25-32.26,14.25S63,266.33,63,257.33V96c0-11.25,4.5-18,11.25-20.26l32.26-11.25a21.9,21.9,0,0,1,6.75-1.5c6.76,0,10.51,4.5,10.51,12.75V96c0,4.5,5.25,4.5,7.5,1.5C141.79,84,156.05,63,188.31,63c24,0,41.26,15,53.26,33Q246.07,102.78,250.58,96Z"/></svg>