<?xml version="1.0" standalone="no"?>
<!DOCTYPE svg PUBLIC "-//W3C//DTD SVG 20010904//EN"
 "http://www.w3.org/TR/2001/REC-SVG-20010904/DTD/svg10.dtd">
<svg version="1.0" xmlns="http://www.w3.org/2000/svg"
 width="99.000000pt" height="149.000000pt" viewBox="0 0 99.000000 149.000000"
 preserveAspectRatio="xMidYMid meet">

<g transform="translate(0.000000,149.000000) scale(0.100000,-0.100000)"
fill="#000000" stroke="none">
<path d="M505 1440 c10 -11 20 -20 23 -20 3 0 -3 9 -13 20 -10 11 -20 20 -23
20 -3 0 3 -9 13 -20z"/>
<path d="M550 1385 c0 -5 5 -17 10 -25 5 -8 10 -10 10 -5 0 6 -5 17 -10 25 -5
8 -10 11 -10 5z"/>
<path d="M485 1370 c-4 -6 -11 -7 -17 -4 -7 4 -8 2 -4 -5 6 -9 11 -9 22 0 14
11 18 19 10 19 -3 0 -8 -5 -11 -10z"/>
<path d="M291 1359 c-1 -8 6 -24 15 -35 15 -19 15 -19 6 1 -5 11 -12 27 -15
35 -5 13 -6 13 -6 -1z"/>
<path d="M700 1330 c-6 -11 -8 -20 -6 -20 3 0 10 9 16 20 6 11 8 20 6 20 -3 0
-10 -9 -16 -20z"/>
<path d="M740 1308 c0 -4 4 -8 9 -8 6 0 12 4 15 8 3 5 -1 9 -9 9 -8 0 -15 -4
-15 -9z"/>
<path d="M492 1240 c0 -14 2 -19 5 -12 2 6 2 18 0 25 -3 6 -5 1 -5 -13z"/>
<path d="M270 1218 c0 -26 -3 -30 -11 -18 -9 12 -10 12 -7 1 9 -32 28 -22 28
13 0 20 -2 36 -5 36 -3 0 -5 -15 -5 -32z"/>
<path d="M511 1234 c0 -11 3 -14 6 -6 3 7 2 16 -1 19 -3 4 -6 -2 -5 -13z"/>
<path d="M700 1218 c0 -26 -3 -30 -11 -18 -9 12 -10 12 -7 1 9 -32 28 -22 28
13 0 20 -2 36 -5 36 -3 0 -5 -15 -5 -32z"/>
<path d="M302 1210 c0 -19 2 -27 5 -17 2 9 2 25 0 35 -3 9 -5 1 -5 -18z"/>
<path d="M791 1224 c0 -11 3 -14 6 -6 3 7 2 16 -1 19 -3 4 -6 -2 -5 -13z"/>
<path d="M732 1205 c0 -16 2 -22 5 -12 2 9 2 23 0 30 -3 6 -5 -1 -5 -18z"/>
<path d="M320 1196 c0 -8 4 -17 9 -20 5 -4 7 3 4 14 -6 23 -13 26 -13 6z"/>
<path d="M751 1198 c-2 -25 15 -30 30 -10 13 15 12 16 -3 4 -14 -11 -17 -10
-21 5 -4 16 -5 16 -6 1z"/>
<path d="M150 670 l0 -350 345 0 345 0 0 350 0 350 -345 0 -345 0 0 -350z
m107 300 c-6 -23 14 -43 36 -34 20 7 32 -13 17 -31 -9 -11 -17 -12 -32 -4 -17
9 -19 8 -16 -8 2 -10 10 -17 17 -15 7 1 10 -2 7 -7 -4 -5 -2 -20 3 -33 8 -22
7 -23 -30 -20 -45 5 -47 8 -17 31 22 18 18 44 -6 35 -19 -7 -28 35 -11 52 7 8
11 23 8 34 -4 14 0 20 12 20 12 0 16 -6 12 -20z m547 -28 c3 -9 4 -28 1 -42
-3 -13 0 -27 6 -31 7 -4 -8 -10 -32 -14 -24 -4 -50 -12 -58 -19 -11 -8 -13 -8
-8 0 4 7 -5 17 -23 24 -31 13 -57 39 -27 27 11 -4 15 -1 12 14 -2 10 0 19 5
19 5 0 10 7 12 16 4 21 67 43 90 32 9 -4 19 -16 22 -26z m-169 -157 c33 -9 65
-21 70 -29 6 -7 22 -21 38 -31 18 -11 24 -21 18 -29 -5 -6 -10 -19 -12 -28 -4
-16 -9 -14 -49 12 -59 39 -129 54 -233 48 -72 -4 -96 -10 -147 -36 -69 -36
-74 -38 -66 -17 4 10 -2 19 -17 24 -21 8 -20 10 16 27 20 10 37 23 37 29 0 17
123 43 210 44 42 1 103 -6 135 -14z m-113 -130 l4 50 3 -55 3 -55 19 55 c13
39 17 45 13 20 -9 -55 -25 -101 -34 -95 -5 3 -13 -3 -19 -12 -9 -17 -10 -17
-16 0 -5 11 -15 16 -31 13 -21 -4 -28 3 -50 46 -14 27 -24 52 -21 54 2 2 16
-20 30 -48 31 -59 33 -55 12 16 -21 70 -11 69 14 -1 l20 -58 -4 60 -4 60 13
-60 14 -60 2 65 2 65 13 -55 12 -55 5 50z m-133 -21 c24 -29 60 -94 53 -94 -8
0 -32 35 -86 125 l-18 30 21 -25 c12 -14 25 -30 30 -36z m219 -24 c-37 -71
-43 -78 -51 -58 -5 15 -1 39 14 75 28 69 36 62 10 -8 -11 -29 -19 -54 -18 -56
2 -1 20 27 40 62 53 91 56 81 5 -15z m46 28 c-4 -7 -21 -33 -37 -58 l-30 -45
49 45 48 45 -38 -47 c-25 -32 -31 -46 -19 -41 16 6 16 5 5 -9 -12 -15 -15 -15
-32 -1 -21 18 -21 18 23 81 28 39 47 58 31 30z m-258 -102 c-9 -14 -12 -26 -6
-26 5 0 10 -4 10 -10 0 -5 -6 -7 -14 -4 -7 3 -16 -2 -20 -12 -5 -13 -14 -15
-54 -9 -26 4 -54 11 -62 16 -12 8 -11 9 5 5 11 -2 40 -7 65 -10 l45 -6 -60 24
c-66 27 -62 35 5 11 70 -25 69 -16 -2 21 -38 19 -68 36 -68 39 0 2 29 -9 65
-25 36 -16 63 -24 59 -18 -5 8 -1 9 12 5 10 -4 -3 14 -31 39 -43 40 -44 42
-10 17 67 -49 71 -49 30 2 l-39 50 44 -42 c43 -41 43 -42 26 -67z m289 34
c-16 -16 -34 -30 -39 -30 -10 1 53 59 63 60 3 0 -8 -13 -24 -30z m-328 -26
c-5 -5 -77 35 -77 42 0 3 18 -5 41 -16 23 -12 39 -24 36 -26z m390 30 c-3 -3
-29 -21 -58 -40 -56 -36 -60 -45 -8 -18 17 8 33 13 35 11 3 -2 -14 -14 -38
-27 -32 -16 -36 -20 -15 -16 70 15 78 14 27 -4 l-55 -20 65 4 65 4 -60 -12
c-68 -15 -59 -24 30 -29 44 -2 36 -4 -32 -5 -57 -1 -93 2 -93 8 0 6 7 10 15
10 18 0 18 5 4 31 -5 11 -14 17 -20 14 -5 -4 -9 -2 -9 2 0 5 33 28 73 51 70
40 87 48 74 36z m-316 -128 c5 -6 9 -2 9 11 0 12 5 25 11 28 7 5 9 -3 7 -21
-2 -21 -9 -30 -25 -32 -20 -3 -23 1 -22 30 1 21 3 26 6 13 3 -11 9 -24 14 -29z
m65 37 c-14 -4 -16 -7 -6 -13 11 -7 10 -12 -3 -25 -16 -15 -17 -14 -17 14 0
26 4 31 23 30 19 -1 19 -2 3 -6z m64 -13 c0 -11 -6 -20 -14 -20 -8 0 -17 -6
-19 -12 -3 -7 -6 2 -6 20 -1 26 3 32 19 32 13 0 20 -7 20 -20z m17 -27 c-3
-10 -5 -2 -5 17 0 19 2 27 5 18 2 -10 2 -26 0 -35z m-250 10 c-20 -2 -52 -2
-70 0 -17 2 0 4 38 4 39 0 53 -2 32 -4z m3 -23 c-30 -5 -73 -8 -95 -8 l-40 1
45 7 c25 4 68 7 95 7 l50 0 -55 -7z"/>
<path d="M530 470 c0 -5 5 -10 11 -10 5 0 7 5 4 10 -3 6 -8 10 -11 10 -2 0 -4
-4 -4 -10z"/>
<path d="M479 260 c-6 -22 -5 -50 3 -50 15 0 21 31 9 43 -6 6 -12 9 -12 7z"/>
<path d="M513 233 c-1 -19 1 -22 8 -12 11 17 12 39 2 39 -5 0 -9 -12 -10 -27z"/>
<path d="M447 230 c3 -11 7 -20 9 -20 2 0 4 9 4 20 0 11 -4 20 -9 20 -5 0 -7
-9 -4 -20z"/>
<path d="M547 230 c3 -11 7 -20 9 -20 2 0 4 9 4 20 0 11 -4 20 -9 20 -5 0 -7
-9 -4 -20z"/>
<path d="M203 221 c-14 -8 -25 -83 -12 -75 12 7 99 -24 99 -36 0 -21 166 -59
234 -53 22 1 71 12 110 23 61 17 72 18 86 5 14 -13 20 -12 53 11 20 13 37 27
37 30 0 7 -44 1 -75 -10 -13 -5 -11 -2 5 8 14 8 35 15 48 16 21 0 23 4 20 38
-4 50 -28 52 -101 8 -75 -45 -140 -60 -238 -54 -71 4 -90 10 -168 50 -49 25
-93 43 -98 39z m537 -68 c0 -13 -38 -32 -49 -24 -2 2 -7 -3 -12 -10 -6 -10 -9
-9 -15 4 -8 22 -3 28 25 30 11 1 23 7 26 15 6 17 25 6 25 -15z m-422 -3 c22
-11 46 -20 52 -20 6 0 9 -4 6 -9 -4 -5 2 -7 13 -4 10 3 22 0 25 -5 3 -6 15 -8
26 -5 15 4 20 0 20 -15 0 -17 -5 -20 -27 -16 -43 7 -64 14 -123 42 -66 30 -64
28 -55 41 9 15 15 14 63 -9z m342 -41 c0 -4 -9 -9 -20 -12 -11 -3 -20 -4 -20
-2 0 2 -3 10 -6 18 -3 10 1 17 13 19 16 4 32 -8 33 -23z m-62 -8 c-2 -10 -14
-16 -30 -16 -15 1 -24 -3 -21 -8 2 -4 -14 -7 -36 -5 -32 1 -41 6 -39 17 2 11
19 18 53 21 76 8 76 8 73 -9z"/>
<path d="M64 186 c-48 -21 -50 -35 -4 -29 41 6 57 -10 22 -21 -10 -4 -32 -20
-48 -37 l-29 -30 37 16 c53 21 95 19 157 -10 30 -14 56 -24 58 -21 2 2 -15 17
-39 33 -37 25 -43 34 -43 63 0 19 -4 38 -10 42 -16 12 -67 9 -101 -6z"/>
<path d="M838 193 c-13 -3 -18 -15 -18 -38 0 -28 -7 -39 -37 -61 -21 -16 -42
-32 -48 -37 -15 -12 42 3 94 26 43 19 79 19 126 1 18 -7 19 -6 6 10 -8 9 -28
25 -45 33 l-31 16 28 8 c16 4 35 5 43 2 22 -8 17 3 -10 20 -26 17 -82 28 -108
20z"/>
<path d="M186 132 c-2 -4 15 -20 39 -34 36 -22 44 -24 49 -11 3 8 6 16 6 18 0
3 -77 35 -85 35 -2 0 -6 -4 -9 -8z"/>
</g>
</svg>
