<?xml version="1.0" standalone="no"?>
<!DOCTYPE svg PUBLIC "-//W3C//DTD SVG 20010904//EN"
 "http://www.w3.org/TR/2001/REC-SVG-20010904/DTD/svg10.dtd">
<svg version="1.0" xmlns="http://www.w3.org/2000/svg"
 width="200.000000pt" height="200.000000pt" viewBox="0 0 200.000000 200.000000"
 preserveAspectRatio="xMidYMid meet">

<g transform="translate(0.000000,200.000000) scale(0.100000,-0.100000)"
fill="#000000" stroke="none">
<path d="M515 1249 c-4 -6 -5 -12 -4 -13 2 -2 49 -14 104 -26 55 -12 152 -40
216 -61 307 -101 480 -212 541 -348 l29 -63 44 4 c60 7 203 79 252 126 67 66
65 131 -8 182 -39 28 -55 14 -24 -22 12 -15 26 -24 29 -21 3 4 6 -4 6 -16 0
-14 -4 -20 -12 -15 -6 4 -4 -3 5 -17 9 -13 17 -28 17 -34 0 -5 -5 -2 -11 9 -8
12 -14 15 -18 7 -5 -8 -17 -7 -42 4 -56 27 -62 31 -73 51 -6 10 -16 22 -23 27
-7 4 -18 14 -26 21 -33 33 -195 89 -250 87 -15 -1 -69 9 -120 23 -51 13 -123
29 -162 36 -38 7 -88 19 -110 26 -37 13 -31 13 75 9 103 -4 374 -42 425 -61
14 -5 17 -4 10 4 -11 12 -170 46 -290 61 -226 29 -568 41 -580 20z"/>
<path d="M1405 1160 c3 -5 8 -10 11 -10 2 0 4 5 4 10 0 6 -5 10 -11 10 -5 0
-7 -4 -4 -10z"/>
<path d="M1530 1125 c0 -1 23 -18 51 -35 37 -24 53 -30 61 -22 8 8 6 13 -8 18
-10 4 -38 15 -61 25 -24 10 -43 16 -43 14z"/>
<path d="M303 889 c-13 -5 -23 -12 -23 -16 0 -4 -7 -29 -15 -55 -12 -42 -12
-48 0 -48 8 0 17 11 21 25 5 19 13 25 35 25 16 0 29 5 29 10 0 6 -9 10 -20 10
-11 0 -20 7 -20 15 0 10 10 15 30 15 17 0 30 5 30 13 0 14 -36 18 -67 6z"/>
<path d="M395 875 c-29 -29 -35 -89 -9 -99 33 -13 63 -5 83 20 25 32 27 67 5
88 -22 23 -51 20 -79 -9z m63 -31 c3 -23 -31 -59 -47 -49 -15 9 -14 48 1 63
18 18 42 10 46 -14z"/>
<path d="M534 890 c-25 -10 -60 -120 -38 -120 8 0 16 11 20 25 7 30 28 28 32
-3 2 -12 10 -22 19 -22 11 0 14 7 10 26 -3 18 2 33 15 46 10 10 18 24 15 31
-5 15 -49 26 -73 17z m34 -32 c-6 -18 -28 -21 -28 -4 0 9 7 16 16 16 9 0 14
-5 12 -12z"/>
<path d="M678 893 c-32 -2 -58 -8 -58 -13 0 -6 7 -10 15 -10 12 0 12 -5 0 -41
-18 -51 -19 -59 -1 -59 7 0 19 20 26 46 9 30 20 49 34 54 12 4 23 6 25 4 2 -1
-4 -24 -13 -50 -9 -26 -16 -49 -16 -51 0 -2 20 -3 44 -3 48 0 71 18 63 50 -3
11 -1 23 4 26 5 3 9 14 9 25 0 13 -7 19 -24 19 -13 0 -30 1 -38 3 -7 2 -39 1
-70 0z m102 -33 c0 -5 -9 -10 -21 -10 -11 0 -17 5 -14 10 3 6 13 10 21 10 8 0
14 -4 14 -10z m-12 -52 c-7 -19 -38 -22 -38 -4 0 10 9 16 21 16 12 0 19 -5 17
-12z"/>
<path d="M836 889 c-2 -8 -11 -36 -20 -63 -19 -60 -19 -56 -2 -56 8 0 17 12
20 26 8 30 30 27 34 -4 3 -17 10 -22 32 -22 16 0 32 5 35 10 8 12 45 13 45 1
0 -12 89 -12 111 0 28 14 23 46 -8 63 -24 12 -26 15 -10 21 9 4 24 5 32 1 9
-3 15 0 15 8 0 34 -62 29 -81 -6 -9 -17 -8 -24 6 -34 10 -7 23 -15 29 -17 8
-3 8 -8 -1 -17 -7 -8 -19 -10 -30 -5 -10 5 -21 7 -25 7 -5 -1 -8 18 -8 42 0
73 -25 68 -77 -15 -28 -44 -29 -45 -39 -24 -9 18 -7 24 8 34 27 17 24 51 -6
51 -13 0 -31 3 -40 6 -9 3 -18 0 -20 -7z m54 -29 c0 -12 -28 -25 -36 -17 -9 9
6 27 22 27 8 0 14 -5 14 -10z m90 -25 c0 -8 -4 -15 -10 -15 -5 0 -7 7 -4 15 4
8 8 15 10 15 2 0 4 -7 4 -15z"/>
<path d="M1133 848 c-7 -24 -15 -51 -18 -60 -5 -12 -2 -18 7 -18 9 0 21 22 31
53 20 64 21 67 4 67 -7 0 -18 -19 -24 -42z"/>
<path d="M1186 878 c-3 -7 -11 -34 -20 -60 l-15 -48 45 0 c24 0 44 5 44 10 0
6 -11 10 -25 10 -29 0 -30 4 -10 59 12 36 12 41 -1 41 -8 0 -16 -6 -18 -12z"/>
</g>
</svg>
