<?xml version="1.0" standalone="no"?>
<!DOCTYPE svg PUBLIC "-//W3C//DTD SVG 20010904//EN"
 "http://www.w3.org/TR/2001/REC-SVG-20010904/DTD/svg10.dtd">
<svg version="1.0" xmlns="http://www.w3.org/2000/svg"
 width="300.000000pt" height="300.000000pt" viewBox="0 0 300.000000 300.000000"
 preserveAspectRatio="xMidYMid meet">

<g transform="translate(0.000000,300.000000) scale(0.100000,-0.100000)"
fill="#000000" stroke="none">
<path d="M192 2313 l3 -688 83 -3 82 -3 0 691 0 690 -85 0 -85 0 2 -687z"/>
<path d="M1500 2735 c0 -20 4 -26 18 -23 9 2 17 12 17 23 0 11 -8 21 -17 23
-14 3 -18 -3 -18 -23z m30 0 c0 -8 -4 -15 -10 -15 -5 0 -10 7 -10 15 0 8 5 15
10 15 6 0 10 -7 10 -15z"/>
<path d="M1420 2739 c0 -6 -7 -9 -15 -5 -25 9 -43 -3 -37 -26 4 -18 3 -19 -17
-8 -28 14 -30 12 -20 -20 4 -14 7 -20 8 -13 1 6 15 14 32 18 17 4 33 13 36 21
4 11 9 12 19 3 18 -15 45 5 37 27 -6 16 -43 19 -43 3z m32 -14 c0 -5 -5 -11
-11 -13 -6 -2 -11 4 -11 13 0 9 5 15 11 13 6 -2 11 -8 11 -13z m-52 -16 c0 -5
-4 -9 -10 -9 -5 0 -10 7 -10 16 0 8 5 12 10 9 6 -3 10 -10 10 -16z"/>
<path d="M1554 2735 c-4 -9 -2 -21 4 -27 15 -15 44 -1 40 19 -4 23 -36 29 -44
8z m34 -7 c-6 -18 -28 -21 -28 -4 0 9 7 16 16 16 9 0 14 -5 12 -12z"/>
<path d="M1630 2710 c-15 -28 -13 -31 15 -20 22 8 24 7 22 -13 -1 -12 3 -22
10 -22 6 0 24 -16 40 -36 l29 -37 25 19 c13 10 19 19 12 19 -6 0 -15 -4 -18
-10 -3 -5 -11 -10 -17 -10 -6 0 -5 7 3 18 12 15 12 16 -2 5 -23 -19 -32 -3
-12 21 l18 21 -24 -20 -24 -20 7 28 c7 30 4 32 -25 17 -20 -11 -28 3 -9 15 6
3 10 11 10 16 0 6 -4 7 -10 4 -5 -3 -10 -2 -10 3 0 20 -30 21 -40 2z"/>
<path d="M1292 2687 c-8 -10 -6 -16 9 -25 18 -12 19 -11 10 6 -6 11 -7 22 -4
26 3 3 4 6 1 6 -3 0 -10 -6 -16 -13z"/>
<path d="M1255 2651 c-6 -11 33 -36 42 -27 10 10 -8 25 -24 19 -11 -4 -14 -3
-9 5 4 7 5 12 2 12 -3 0 -7 -4 -11 -9z"/>
<path d="M1225 2619 c-4 -6 -5 -11 -4 -12 2 -2 11 -8 20 -15 13 -10 19 -9 30
5 12 16 12 17 -1 7 -11 -9 -18 -9 -27 1 -6 7 -9 16 -6 19 4 3 4 6 0 6 -3 0 -9
-5 -12 -11z"/>
<path d="M1871 2466 c-6 -7 -1 -11 15 -12 13 -1 24 4 24 10 0 16 -27 17 -39 2z"/>
<path d="M1928 2459 c-10 -5 -18 -17 -18 -25 0 -10 -6 -13 -18 -10 -12 4 -26
-2 -38 -15 -19 -22 -19 -22 4 -15 29 10 62 -1 62 -21 0 -10 -6 -14 -20 -10
-13 3 -24 -3 -36 -22 -14 -21 -15 -24 -2 -13 21 17 68 5 68 -17 0 -11 -7 -17
-21 -17 -13 1 -31 -13 -47 -34 l-27 -34 32 22 c26 19 36 21 53 12 11 -6 20
-15 20 -20 0 -4 3 -16 6 -25 6 -15 4 -15 -14 -4 -20 12 -25 11 -54 -20 -33
-34 -33 -34 -4 -17 35 22 76 9 76 -25 0 -18 -3 -19 -15 -9 -11 9 -21 6 -50
-15 -43 -33 -46 -42 -5 -18 38 22 63 9 68 -33 4 -28 3 -28 -15 -12 -18 16 -20
16 -46 -8 -34 -32 -34 -35 2 -21 34 13 61 -3 61 -34 0 -15 -5 -18 -23 -14 -16
4 -29 0 -42 -16 l-20 -22 22 14 c20 12 25 11 38 -2 9 -9 13 -23 9 -33 -6 -15
-8 -15 -23 -2 -14 13 -19 13 -41 -5 -16 -12 -18 -17 -7 -13 22 8 58 -22 50
-42 -3 -10 -10 -11 -23 -4 -12 6 -23 5 -36 -5 -13 -11 -14 -13 -3 -10 9 3 22
-1 29 -10 11 -14 7 -22 -31 -62 -24 -25 -35 -41 -24 -35 11 6 29 20 39 31 23
26 61 27 75 4 9 -15 10 -14 11 10 0 22 -4 27 -25 27 -31 0 -23 27 13 41 19 7
27 6 38 -8 16 -21 18 -14 4 21 -6 17 -14 24 -25 20 -10 -4 -15 0 -15 10 0 9
12 21 27 27 23 8 30 7 41 -8 13 -17 14 -16 8 7 -3 14 -6 28 -6 31 0 3 -11 4
-25 1 -20 -3 -25 0 -25 17 0 13 9 25 23 30 17 7 28 3 50 -18 l29 -26 -22 38
c-16 26 -29 37 -46 37 -32 0 -32 33 0 48 18 8 28 7 45 -4 26 -18 27 -7 2 25
-15 20 -21 22 -39 12 -29 -15 -32 -14 -32 12 0 30 38 50 66 34 19 -10 19 -10
0 12 -15 17 -27 20 -48 16 -24 -6 -28 -3 -28 14 0 30 40 47 71 31 l24 -13 -24
26 c-18 20 -30 25 -52 20 -25 -5 -29 -2 -29 16 0 30 40 47 71 30 22 -11 23
-11 10 5 -24 29 -49 38 -71 26 -17 -9 -20 -8 -20 8 0 10 11 24 24 31 20 11 28
10 52 -5 l29 -18 -25 28 c-21 23 -29 26 -62 21 -29 -5 -38 -3 -38 8 0 21 41
36 70 26 l25 -9 -25 20 c-28 22 -38 24 -62 9z"/>
<path d="M1476 2444 c-3 -8 -10 -13 -15 -10 -12 8 -35 -50 -27 -69 3 -8 12
-15 21 -15 8 0 15 -5 15 -11 0 -5 4 -8 9 -5 15 9 21 -21 21 -102 l0 -77 -67
-16 c-99 -24 -103 -21 -103 66 0 63 3 75 18 80 18 5 42 44 42 66 0 42 -84 58
-113 22 -19 -23 -16 -63 5 -63 24 0 37 -37 38 -106 l0 -72 -45 -6 c-29 -5 -45
-12 -45 -22 0 -12 42 -14 271 -14 212 0 270 3 267 13 -3 6 -23 16 -46 21 l-42
9 0 77 c0 62 3 79 16 84 9 3 20 3 26 0 7 -4 6 0 0 13 -9 15 -6 22 10 32 16 10
18 15 8 21 -7 5 -20 6 -28 2 -9 -3 -13 -1 -10 4 3 5 0 14 -7 21 -11 10 -15 10
-19 0 -3 -9 -7 -8 -15 3 -8 11 -11 12 -11 2 0 -7 -4 -10 -10 -7 -6 4 -7 -1 -3
-12 6 -16 5 -17 -12 -3 -11 9 -16 10 -11 3 4 -8 2 -13 -6 -13 -7 0 -4 -6 7
-12 30 -16 30 -17 9 -34 -10 -8 -13 -13 -6 -9 6 3 12 1 12 -5 0 -6 5 -8 10 -5
16 10 30 -40 30 -104 0 -71 -8 -75 -99 -53 l-62 15 3 96 c2 74 6 95 17 93 17
-4 51 36 51 60 0 11 -7 18 -19 18 -11 0 -23 9 -26 20 -8 24 -50 27 -59 4z"/>
<path d="M1068 2429 c6 -7 12 -22 12 -33 0 -20 0 -20 -15 0 -11 14 -17 16 -23
7 -5 -8 -13 -9 -22 -3 -30 19 -43 12 -36 -20 3 -19 1 -30 -6 -30 -6 0 -3 -9 8
-21 13 -14 27 -19 47 -16 21 3 27 0 22 -10 -3 -8 -5 -29 -5 -46 0 -18 -4 -27
-8 -22 -4 6 -25 10 -46 10 -42 0 -56 -16 -36 -40 10 -12 10 -15 0 -15 -10 0
-10 -3 -1 -14 10 -12 8 -17 -9 -26 -18 -10 -19 -14 -9 -27 12 -13 14 -12 22
11 5 15 16 26 27 26 10 0 27 3 37 6 11 3 14 2 7 -3 -16 -12 -24 -42 -14 -48
21 -13 9 -24 -20 -19 -38 8 -68 -2 -52 -18 8 -8 5 -15 -10 -28 -25 -20 -17
-40 17 -40 18 0 23 -5 21 -24 -1 -18 -8 -26 -28 -30 -34 -7 -36 -28 -5 -49 17
-13 19 -18 9 -25 -11 -7 -10 -10 3 -16 29 -11 51 -7 78 14 22 17 26 18 31 4 3
-8 2 -12 -4 -9 -6 3 -10 1 -10 -4 0 -6 6 -11 14 -11 8 0 17 -7 20 -16 9 -24 7
-28 -8 -15 -11 10 -16 8 -24 -5 -6 -11 -17 -15 -31 -11 -14 3 -21 0 -21 -9 0
-8 5 -14 11 -14 5 0 3 -10 -5 -22 -24 -33 -20 -41 19 -36 25 3 35 0 35 -9 0
-26 40 7 47 37 l5 29 39 -32 c28 -23 37 -38 33 -52 -6 -24 47 -66 151 -122 60
-32 56 -41 -14 -27 -20 4 -31 12 -31 23 0 11 -14 21 -44 29 -24 6 -64 27 -90
47 -25 19 -48 35 -51 35 -3 0 -5 -9 -5 -21 0 -12 -8 -23 -20 -26 -31 -8 -24
-21 25 -51 36 -21 44 -31 40 -48 -4 -18 2 -24 43 -35 26 -8 86 -14 135 -13 62
0 87 -3 87 -12 0 -11 21 -24 40 -24 4 0 15 16 24 35 9 19 21 35 26 35 5 0 17
-16 26 -35 9 -19 20 -35 24 -35 19 0 40 13 40 24 0 9 25 12 88 12 48 -1 109 5
135 13 43 12 48 17 43 37 -4 16 -1 24 11 28 10 3 32 17 48 31 28 23 29 26 12
36 -10 6 -22 20 -26 31 -7 19 -8 19 -38 -6 -35 -29 -109 -65 -135 -66 -11 0
-18 -8 -18 -19 0 -13 -10 -20 -31 -25 -70 -14 -74 -5 -14 27 73 39 155 97 155
109 0 17 -31 68 -41 68 -5 0 -20 -6 -32 -14 -33 -21 -108 -44 -182 -56 -98
-16 -249 13 -317 61 -27 19 -27 19 -38 -1 -10 -19 -12 -19 -45 12 -40 36 -44
48 -14 48 14 0 19 5 16 14 -3 8 1 20 8 26 18 15 10 30 -16 30 -11 0 -17 5 -14
10 10 16 -21 12 -35 -5 -14 -17 -30 -11 -30 11 0 8 5 12 10 9 15 -9 51 5 48
18 -1 7 3 22 10 35 12 21 11 23 -17 28 -18 4 -28 11 -24 17 4 7 0 8 -13 3 -33
-13 -38 -12 -42 14 -3 21 -2 22 11 11 9 -7 26 -11 39 -8 20 4 19 4 -6 6 -21 1
-27 5 -22 17 3 8 2 12 -4 9 -16 -10 -12 18 6 44 16 22 16 23 -5 16 -17 -5 -21
-2 -21 15 0 17 3 19 19 10 25 -13 44 -13 36 0 -3 6 -3 10 2 10 4 0 14 4 22 9
23 15 -27 63 -51 50 -15 -8 -18 -6 -18 12 0 16 4 19 18 14 29 -13 57 -11 54 4
-1 7 5 19 14 26 20 14 11 35 -17 35 -17 0 -18 3 -7 23 7 12 18 25 23 30 13 10
-25 39 -42 33 -20 -8 -15 6 10 29 13 11 18 17 12 13 -13 -8 -34 -6 -55 6 -12
7 -13 6 -2 -5z m-28 -441 c0 -16 -3 -19 -11 -11 -6 6 -8 16 -5 22 11 17 16 13
16 -11z m219 -286 c70 -15 127 -34 130 -43 2 -7 7 -7 13 2 7 11 11 11 15 1 2
-6 9 -10 14 -6 5 3 9 -1 9 -8 0 -17 -46 -16 -62 0 -7 7 -17 12 -22 12 -6 0 -4
-5 4 -11 12 -9 11 -10 -5 -4 -11 4 -24 8 -30 9 -5 1 -20 7 -32 14 -12 7 -28
12 -35 12 -24 0 -52 26 -43 40 7 11 10 10 19 -1 6 -8 17 -15 25 -17z m518 21
c-4 -3 -2 -12 4 -20 9 -9 8 -13 0 -14 -6 -1 -15 -3 -21 -4 -5 -1 -12 -3 -15
-4 -3 0 -8 -1 -11 0 -4 0 -10 -4 -14 -11 -4 -6 -23 -13 -43 -17 -29 -4 -37 -2
-37 10 0 10 14 18 40 22 22 4 41 5 43 3 1 -1 13 7 27 20 21 19 44 33 27 15z
m-157 -70 c0 -15 -2 -16 -10 -3 -9 13 -10 13 -10 -1 0 -11 -12 -16 -45 -18
-28 -1 -45 2 -45 9 0 6 -5 8 -12 3 -22 -13 -38 -12 -38 3 0 19 100 20 101 2 0
-10 2 -10 6 0 2 6 9 10 14 6 5 -3 9 0 9 5 0 6 7 11 15 11 8 0 15 -8 15 -17z
m-54 -75 c-22 -16 -52 -28 -66 -28 -14 0 -44 12 -66 28 l-42 27 108 0 108 0
-42 -27z m-349 -34 c2 -6 -3 -11 -12 -11 -8 0 -15 7 -15 15 0 15 22 12 27 -4z
m46 -11 c-7 -18 -33 -17 -33 1 0 8 8 14 19 13 11 0 17 -6 14 -14z m500 3 c4
-10 -4 -15 -29 -18 -42 -5 -48 19 -6 25 15 2 28 5 28 6 1 0 4 -5 7 -13z m-365
-8 c-4 -12 -23 -13 -96 -10 -57 3 -25 20 39 21 42 0 59 -3 57 -11z m282 -3 c0
-8 -7 -15 -15 -15 -8 0 -15 7 -15 15 0 8 7 15 15 15 8 0 15 -7 15 -15z"/>
<path d="M1130 2088 c0 -7 4 -19 9 -27 7 -11 11 -10 20 7 15 28 14 32 -9 32
-11 0 -20 -6 -20 -12z"/>
<path d="M1230 2060 c0 -6 97 -10 270 -10 173 0 270 4 270 10 0 6 -97 10 -270
10 -173 0 -270 -4 -270 -10z"/>
<path d="M1230 2010 c0 -6 43 -10 109 -10 63 0 112 4 116 10 4 6 -35 10 -109
10 -71 0 -116 -4 -116 -10z"/>
<path d="M1490 2010 c0 -5 7 -10 15 -10 8 0 15 5 15 10 0 6 -7 10 -15 10 -8 0
-15 -4 -15 -10z"/>
<path d="M1535 2010 c4 -6 55 -10 121 -10 69 0 114 4 114 10 0 6 -47 10 -121
10 -77 0 -118 -4 -114 -10z"/>
<path d="M1230 1965 c0 -13 13 -15 85 -13 48 2 85 7 85 13 0 6 -37 11 -85 13
-72 2 -85 0 -85 -13z"/>
<path d="M1477 1973 c-15 -14 -6 -23 23 -23 20 0 30 5 30 15 0 15 -40 21 -53
8z"/>
<path d="M1590 1971 c0 -15 29 -21 106 -21 59 0 74 3 74 15 0 12 -17 15 -90
15 -49 0 -90 -4 -90 -9z"/>
<path d="M1230 1920 c0 -6 35 -10 88 -9 58 0 80 3 67 9 -28 12 -155 12 -155 0z"/>
<path d="M1415 1920 c-4 -6 26 -9 80 -9 49 0 83 5 80 10 -8 12 -152 12 -160
-1z"/>
<path d="M1620 1920 c0 -6 32 -10 75 -10 43 0 75 4 75 10 0 6 -32 10 -75 10
-43 0 -75 -4 -75 -10z"/>
<path d="M1230 1875 c0 -12 19 -15 111 -15 98 0 110 2 99 15 -10 11 -36 15
-111 15 -81 0 -99 -3 -99 -15z"/>
<path d="M1567 1884 c-17 -17 13 -24 104 -24 81 0 99 3 99 15 0 12 -18 15 -98
15 -54 0 -102 -3 -105 -6z"/>
<path d="M1255 1830 c4 -6 97 -10 245 -10 148 0 241 4 245 10 4 7 -80 10 -245
10 -165 0 -249 -3 -245 -10z"/>
<path d="M1480 1786 c0 -9 30 -14 35 -6 4 6 -3 10 -14 10 -12 0 -21 -2 -21 -4z"/>
<path d="M1156 1368 c-34 -47 -7 -98 51 -98 55 0 85 67 45 103 -27 25 -78 22
-96 -5z"/>
<path d="M2253 1356 c-39 -48 -66 -96 -54 -96 16 0 114 60 133 82 23 25 12 48
-22 48 -20 0 -37 -10 -57 -34z"/>
<path d="M630 1370 c0 -5 16 -16 35 -24 l35 -15 0 -198 c0 -211 -3 -223 -48
-223 -14 0 -22 -5 -20 -12 7 -19 258 -24 258 -5 0 7 -15 17 -32 22 l-33 10 -3
86 -3 86 75 5 c123 8 181 57 181 155 0 47 -4 58 -28 78 -15 13 -44 29 -65 34
-48 14 -352 15 -352 1z m285 -43 c20 -16 28 -35 32 -68 9 -78 -32 -129 -103
-129 -24 0 -24 0 -24 110 l0 110 34 0 c22 0 45 -9 61 -23z"/>
<path d="M1427 1226 c-65 -23 -88 -57 -67 -96 8 -15 21 -20 50 -20 46 0 60 18
53 68 -5 31 -4 32 31 32 30 0 38 -5 46 -26 6 -14 10 -38 10 -54 0 -27 -5 -31
-65 -49 -121 -38 -145 -59 -145 -125 0 -81 109 -114 183 -56 25 20 25 20 38
-1 17 -24 82 -35 122 -20 28 11 37 31 13 31 -8 0 -22 7 -31 16 -14 14 -15 31
-10 113 9 119 -5 164 -59 186 -44 18 -119 19 -169 1z m123 -216 c0 -52 -3 -62
-25 -76 -46 -30 -86 9 -71 70 6 24 59 66 84 66 8 0 12 -19 12 -60z"/>
<path d="M1107 1224 c-11 -12 -8 -24 6 -24 8 0 21 -8 31 -19 14 -15 16 -37 14
-142 -3 -120 -4 -124 -25 -127 -13 -2 -23 -10 -23 -18 0 -11 21 -14 105 -14
78 0 105 3 105 13 0 7 -10 17 -22 22 -22 10 -23 16 -28 160 l-5 150 -75 3
c-42 1 -79 0 -83 -4z"/>
<path d="M1687 1224 c-11 -12 -8 -24 7 -24 31 0 41 -32 46 -157 5 -116 7 -126
29 -144 49 -39 119 -36 171 7 l30 26 0 -26 c0 -26 1 -26 80 -26 62 0 80 3 80
14 0 8 -11 17 -25 20 l-24 6 -3 153 -3 152 -79 0 c-55 0 -81 -4 -83 -12 -3 -8
4 -13 14 -13 36 0 43 -20 43 -130 0 -116 -6 -131 -60 -145 -49 -12 -59 15 -62
165 l-3 135 -75 3 c-42 1 -79 0 -83 -4z"/>
<path d="M2154 1218 c-4 -6 -2 -14 5 -16 8 -3 22 -13 32 -23 16 -16 19 -35 19
-123 0 -120 -4 -134 -37 -147 -46 -17 -12 -29 87 -29 101 0 128 10 88 31 -13
7 -26 17 -30 23 -4 6 -8 75 -8 154 l0 142 -74 0 c-47 0 -78 -4 -82 -12z"/>
<path d="M653 803 c-16 -6 -18 -129 -3 -138 6 -4 24 -4 40 0 25 5 30 12 30 36
0 22 -5 29 -19 29 -14 0 -17 -6 -13 -25 3 -18 0 -25 -12 -25 -13 0 -16 11 -16
55 0 42 3 55 15 55 8 0 15 -7 15 -15 0 -8 5 -15 10 -15 16 0 11 37 -6 44 -18
7 -23 7 -41 -1z"/>
<path d="M761 796 c-18 -22 -10 -117 12 -130 31 -19 52 4 55 63 3 56 -9 81
-38 81 -10 0 -23 -6 -29 -14z m44 -62 c0 -37 -4 -49 -15 -49 -16 0 -27 63 -16
92 12 31 31 6 31 -43z"/>
<path d="M874 773 c23 -124 43 -142 63 -57 14 62 16 94 4 94 -5 0 -12 -23 -16
-50 -8 -59 -20 -57 -29 5 -4 25 -12 45 -18 45 -6 0 -8 -14 -4 -37z"/>
<path d="M990 735 l0 -75 30 0 c17 0 30 5 30 10 0 6 -9 10 -20 10 -15 0 -20 7
-20 25 0 16 6 25 15 25 8 0 15 5 15 10 0 6 -7 10 -15 10 -8 0 -15 9 -15 20 0
13 7 20 20 20 11 0 20 5 20 10 0 6 -13 10 -30 10 l-30 0 0 -75z"/>
<path d="M1090 735 c0 -43 4 -75 10 -75 6 0 10 14 10 30 0 17 4 30 9 30 5 0
14 -13 20 -30 5 -16 14 -30 20 -30 7 0 7 10 0 29 -7 21 -7 36 1 51 15 28 5 56
-23 64 -45 12 -47 9 -47 -69z m48 27 c2 -15 -2 -22 -12 -22 -11 0 -16 9 -16
26 0 31 23 28 28 -4z"/>
<path d="M1200 735 c0 -43 4 -75 10 -75 6 0 10 21 10 48 l1 47 25 -47 c13 -27
27 -48 29 -48 3 0 5 34 5 76 0 47 -4 73 -10 69 -5 -3 -10 -23 -10 -43 l0 -37
-20 43 c-28 62 -40 53 -40 -33z"/>
<path d="M1332 798 c-16 -16 -16 -110 0 -126 34 -34 68 -1 68 67 0 57 -38 89
-68 59z m44 -32 c10 -39 1 -81 -18 -84 -15 -3 -18 4 -18 46 0 27 3 52 7 55 12
13 23 7 29 -17z"/>
<path d="M1490 736 c0 -72 1 -76 23 -76 41 0 52 16 52 74 0 30 -3 57 -6 60 -3
3 -20 9 -37 12 l-32 7 0 -77z m45 -1 c0 -30 -5 -50 -12 -52 -10 -4 -13 11 -13
52 0 41 3 56 13 53 7 -3 12 -23 12 -53z"/>
<path d="M1610 791 c-5 -11 -10 -36 -10 -56 0 -64 35 -96 68 -63 16 16 16 110
0 126 -18 18 -46 14 -58 -7z m45 -57 c0 -37 -4 -49 -15 -49 -16 0 -27 63 -16
92 12 31 31 6 31 -43z"/>
<path d="M1764 796 c-3 -7 -4 -40 -2 -72 3 -59 3 -59 36 -62 36 -4 45 15 10
20 -31 4 -39 48 -9 48 12 0 21 5 21 10 0 6 -9 10 -21 10 -28 0 -21 34 9 38 12
2 22 8 22 13 0 14 -60 10 -66 -5z"/>
<path d="M1873 803 c-21 -8 -15 -48 12 -73 14 -13 25 -29 25 -37 0 -16 -22
-17 -38 -1 -6 6 -15 8 -19 5 -14 -15 25 -40 51 -33 34 8 35 44 1 76 -24 23
-33 50 -17 50 4 0 13 -5 20 -12 17 -17 28 -2 12 17 -13 15 -25 17 -47 8z"/>
<path d="M1960 800 c0 -5 7 -10 15 -10 12 0 15 -14 15 -65 0 -37 4 -65 10 -65
6 0 10 28 10 65 0 51 3 65 15 65 8 0 15 5 15 10 0 6 -18 10 -40 10 -22 0 -40
-4 -40 -10z"/>
<path d="M2075 788 c-28 -125 -28 -128 -15 -128 6 0 10 7 10 15 0 8 9 15 20
15 11 0 23 -7 26 -15 8 -21 26 -19 20 3 -2 9 -10 43 -16 75 -12 59 -35 78 -45
35z m24 -72 c-14 -16 -20 0 -13 30 l8 29 6 -25 c4 -14 3 -29 -1 -34z"/>
<path d="M2177 803 c-4 -3 -7 -35 -7 -70 0 -70 12 -84 56 -65 21 10 24 18 24
66 0 44 -4 57 -19 66 -23 12 -45 13 -54 3z m48 -69 c0 -37 -4 -49 -15 -49 -16
0 -27 63 -16 92 12 31 31 6 31 -43z"/>
<path d="M2301 796 c-18 -22 -10 -117 12 -130 31 -19 52 4 55 63 3 56 -9 81
-38 81 -10 0 -23 -6 -29 -14z m44 -62 c0 -37 -4 -49 -15 -49 -16 0 -27 63 -16
92 12 31 31 6 31 -43z"/>
<path d="M878 523 c342 -2 902 -2 1245 0 342 1 62 2 -623 2 -685 0 -965 -1
-622 -2z"/>
<path d="M1303 390 c-29 -12 -45 -44 -41 -83 2 -24 13 -38 43 -58 52 -35 54
-64 5 -64 -68 0 -80 -28 -21 -46 105 -31 154 87 60 147 -49 31 -50 59 -1 60
37 0 61 19 46 34 -15 15 -66 21 -91 10z"/>
<path d="M1463 390 c-29 -12 -45 -44 -41 -83 2 -24 13 -38 43 -58 52 -35 54
-64 5 -64 -68 0 -80 -28 -21 -46 105 -31 154 87 60 147 -49 31 -50 59 -1 60
37 0 61 19 46 34 -15 15 -66 21 -91 10z"/>
<path d="M1600 265 l0 -135 25 0 c23 0 25 3 25 50 0 43 3 50 20 50 47 0 90 41
90 85 0 27 -22 63 -47 74 -13 6 -44 11 -68 11 l-45 0 0 -135z m99 68 c12 -23
-4 -53 -29 -53 -16 0 -20 7 -20 35 0 28 4 35 20 35 10 0 23 -8 29 -17z"/>
</g>
</svg>
