<?xml version="1.0" standalone="no"?>
<!DOCTYPE svg PUBLIC "-//W3C//DTD SVG 20010904//EN"
 "http://www.w3.org/TR/2001/REC-SVG-20010904/DTD/svg10.dtd">
<svg version="1.0" xmlns="http://www.w3.org/2000/svg"
 width="600.000000pt" height="600.000000pt" viewBox="0 0 600.000000 600.000000"
 preserveAspectRatio="xMidYMid meet">

<g transform="translate(0.000000,600.000000) scale(0.100000,-0.100000)"
fill="#000000" stroke="none">
<path d="M5215 4333 c-42 -17 -110 -67 -158 -118 -62 -64 -125 -233 -113 -300
9 -45 35 -65 103 -79 32 -6 57 -15 56 -20 -1 -5 -29 -20 -62 -33 l-61 -24 -53
24 c-68 31 -176 114 -187 142 -5 12 -6 41 -3 63 5 35 0 49 -27 92 -34 53 -66
64 -64 23 0 -20 -4 -18 -49 18 -54 42 -109 53 -121 23 -21 -55 -1 -96 121
-250 40 -50 73 -101 73 -113 0 -19 124 -169 173 -210 13 -10 17 -30 17 -77 0
-35 4 -64 9 -64 12 0 21 183 10 194 -5 6 -9 2 -9 -12 0 -42 -23 -25 -124 91
l-59 68 33 47 c19 26 35 49 36 50 1 2 26 -14 56 -36 57 -43 149 -92 171 -92 8
0 40 12 71 26 31 14 60 23 65 20 5 -4 12 -24 16 -46 4 -22 10 -42 13 -44 12
-7 36 16 70 66 18 26 37 50 42 53 11 7 110 -42 165 -82 38 -29 42 -36 74 -156
19 -69 38 -124 42 -122 7 5 3 27 -35 169 -26 100 -28 101 -148 172 -43 25 -78
49 -78 54 0 4 17 21 38 36 30 24 45 28 82 26 61 -5 91 25 89 89 -1 24 5 66 12
92 25 93 -21 185 -114 232 -59 29 -113 32 -172 8z m95 -48 c0 -34 1 -35 39
-35 44 0 59 -13 40 -36 -10 -12 -8 -18 9 -35 28 -25 28 -47 1 -51 -31 -4 -64
-67 -55 -102 6 -26 8 -27 25 -12 37 34 106 8 99 -37 -2 -11 -15 -29 -29 -40
-22 -16 -30 -17 -48 -7 -12 6 -30 9 -39 6 -30 -10 -118 -108 -162 -180 l-24
-39 -15 44 c-27 74 -39 89 -72 89 -42 0 -95 24 -109 50 -28 52 26 214 98 299
26 31 32 33 66 27 34 -6 38 -10 33 -32 -5 -28 0 -30 25 -7 26 23 22 42 -9 49
-50 10 -57 14 -47 24 21 21 111 59 142 59 30 1 32 -1 32 -34z m-750 -200 c15
-20 15 -20 -9 0 -12 11 -27 29 -33 40 l-10 20 18 -20 c11 -11 26 -29 34 -40z
m72 -24 c53 -50 70 -48 45 4 -22 45 -9 45 21 -1 16 -24 22 -47 20 -77 -1 -23
2 -60 6 -82 6 -34 3 -46 -14 -68 l-22 -27 -30 37 c-16 21 -39 51 -51 66 -12
16 -26 34 -32 40 -45 52 -87 123 -53 89 17 -17 31 -15 24 4 -5 14 -4 15 8 5
12 -10 17 -8 26 9 10 18 8 26 -12 48 -33 38 4 11 64 -47z m-108 23 c3 -8 2
-12 -4 -9 -6 3 -10 10 -10 16 0 14 7 11 14 -7z"/>
<path d="M5094 4179 c-3 -6 0 -18 9 -26 18 -18 37 -9 37 18 0 21 -34 27 -46 8z"/>
<path d="M5260 4183 c1 -14 49 -67 55 -61 11 11 -19 63 -38 66 -9 2 -17 0 -17
-5z"/>
<path d="M5205 4120 c-9 -15 4 -30 26 -30 12 0 19 7 19 20 0 21 -33 29 -45 10z"/>
<path d="M5070 4108 c0 -9 5 -20 10 -23 13 -8 13 5 0 25 -8 13 -10 13 -10 -2z"/>
<path d="M5010 4060 c0 -38 13 -80 32 -99 25 -28 65 -26 121 3 39 21 46 23 51
9 4 -9 9 -13 12 -10 3 3 -4 22 -15 44 -12 22 -20 31 -21 21 0 -15 -10 -18 -56
-18 -50 0 -59 3 -90 34 -26 26 -34 30 -34 16z m117 -70 l38 -1 -24 -20 c-29
-24 -67 -19 -93 13 -27 30 -22 40 12 23 16 -8 46 -15 67 -15z"/>
<path d="M5391 4001 c-12 -8 -13 -14 -3 -36 13 -29 39 -29 34 0 -3 13 1 16 13
11 12 -4 16 -1 13 12 -4 19 -36 27 -57 13z"/>
<path d="M923 4255 c-23 -7 -45 -10 -48 -6 -4 3 -13 -2 -20 -12 -8 -11 -21
-16 -37 -13 -13 2 -62 -2 -108 -9 -162 -24 -286 -96 -370 -216 -61 -87 -82
-149 -88 -262 -8 -161 30 -273 127 -372 31 -32 45 -53 38 -57 -15 -9 -6 -17
30 -24 26 -5 31 -2 43 25 20 49 67 84 104 77 38 -8 73 -40 88 -83 16 -44 32
-42 57 10 45 92 133 89 179 -7 l19 -39 139 -4 c164 -4 214 -10 193 -24 -12 -8
-12 -10 1 -19 13 -8 13 -10 -2 -10 -9 0 -20 -5 -24 -12 -5 -8 -2 -9 11 -5 9 4
24 2 32 -5 11 -9 16 -9 24 3 7 11 9 11 9 -3 0 -24 13 -23 35 2 18 20 17 20
-15 20 -41 0 -32 13 13 17 18 2 43 5 55 6 13 2 28 11 33 20 6 9 17 17 24 17 8
0 15 6 15 14 0 8 3 21 6 29 3 9 -3 16 -16 20 -19 5 -18 10 26 99 25 51 51 106
58 121 11 29 12 29 83 25 39 -2 75 -6 79 -10 3 -4 -14 -41 -40 -82 -25 -41
-55 -94 -66 -119 -17 -39 -25 -45 -55 -49 -19 -2 -37 1 -39 7 -2 5 -5 2 -5 -7
-1 -10 -5 -18 -11 -18 -5 0 -10 -4 -10 -8 0 -5 16 -9 36 -10 20 -1 39 -3 41
-6 2 -2 -3 -19 -11 -37 l-15 -34 6 34 c4 24 3 32 -5 27 -7 -4 -12 -15 -12 -24
0 -9 -11 -38 -24 -64 l-24 -47 -8 32 c-4 18 -7 41 -6 52 2 16 0 17 -8 5 -8
-13 -10 -12 -10 4 0 18 -1 18 -20 1 -10 -9 -26 -15 -35 -12 -8 4 -14 3 -14 -1
3 -21 -2 -32 -13 -26 -7 5 -9 2 -5 -8 3 -9 0 -15 -6 -14 -7 0 -12 -3 -12 -9 0
-5 5 -8 10 -6 12 4 22 5 58 3 41 -3 36 -32 -5 -31 -18 0 -54 -3 -79 -6 -49 -8
-70 5 -50 28 5 7 6 18 2 25 -5 9 -11 4 -20 -14 -10 -23 -10 -29 3 -36 9 -5 16
-16 16 -23 0 -22 -17 -18 -23 5 -5 21 -27 28 -27 9 0 -5 -4 -7 -10 -4 -5 3
-10 -1 -10 -10 0 -9 4 -14 9 -11 10 7 20 -23 14 -42 -3 -6 -10 -10 -16 -6 -7
3 -3 -2 7 -10 11 -9 14 -16 8 -16 -7 0 -12 -6 -12 -13 0 -7 -6 -22 -14 -33
-13 -17 -14 -13 -11 41 2 33 2 49 -1 35 -5 -24 -16 -52 -51 -125 -24 -51 -23
-96 2 -105 11 -4 25 -5 30 -2 6 3 4 -1 -3 -10 -8 -10 -9 -19 -3 -22 13 -9 63
12 56 23 -3 5 5 13 17 17 13 4 24 2 26 -5 2 -6 8 -9 13 -5 5 3 9 -2 9 -10 0
-9 7 -16 15 -16 8 0 15 -4 15 -9 0 -6 -15 -7 -34 -4 -28 4 -36 1 -45 -16 -7
-12 -10 -25 -7 -30 3 -5 -7 -11 -22 -14 -15 -3 -28 -2 -30 3 -4 10 -42 0 -42
-11 0 -5 7 -9 16 -9 14 0 15 -2 3 -17 -16 -18 -17 -19 69 21 34 16 62 32 62
36 0 4 14 13 30 20 17 7 30 20 30 29 0 12 2 13 8 3 5 -8 14 7 26 43 11 36 22
55 33 55 12 0 14 -7 9 -37 -16 -91 -35 -242 -35 -285 -1 -48 -1 -48 19 -28 11
11 24 20 29 20 6 0 13 21 16 48 14 104 57 297 86 380 43 123 178 395 232 469
25 33 76 93 112 132 43 46 65 76 61 86 -8 22 -69 19 -118 -5 -33 -16 -62 -20
-135 -20 -51 0 -93 2 -93 4 0 3 47 100 105 217 58 117 103 215 100 217 -3 3
-28 0 -55 -6 -43 -10 -65 -9 -150 9 -54 12 -105 19 -112 17 -7 -3 -40 -68 -72
-144 -90 -209 -136 -308 -142 -302 -4 5 -53 359 -71 514 l-5 51 -97 22 c-134
31 -131 31 -178 16z m-33 -282 c0 -5 16 -98 34 -207 18 -110 31 -207 29 -215
-7 -26 -71 -51 -98 -39 -20 9 -29 6 -62 -21 -42 -34 -88 -40 -168 -20 -38 10
-46 16 -61 53 -9 22 -19 71 -22 107 -11 150 74 283 210 330 53 18 138 25 138
12z m580 -662 c0 -6 -4 -13 -10 -16 -5 -3 -10 1 -10 9 0 9 5 16 10 16 6 0 10
-4 10 -9z m-113 -57 c-3 -3 -12 -4 -19 -1 -8 3 -5 6 6 6 11 1 17 -2 13 -5z
m173 -94 c-5 -22 -8 -27 -9 -13 -1 21 9 56 14 51 2 -2 0 -19 -5 -38z m-71 -72
c-2 -18 2 -41 7 -51 8 -14 10 -7 8 32 -2 28 0 51 5 51 11 0 6 -109 -6 -140
-10 -23 -10 -22 -17 15 -4 22 -12 42 -17 45 -8 5 9 80 18 80 3 0 3 -15 2 -32z
m53 7 c-2 -14 -6 -25 -8 -25 -2 0 -4 11 -4 25 0 14 4 25 9 25 4 0 6 -11 3 -25z
m-52 -168 c0 -5 -4 -5 -10 -2 -5 3 -10 14 -10 23 0 15 2 15 10 2 5 -8 10 -19
10 -23z m-260 -17 c0 -20 -5 -30 -15 -30 -17 0 -18 4 -9 38 9 32 24 27 24 -8z
m83 -22 c7 -50 -1 -58 -55 -50 -28 3 -43 1 -48 -9 -5 -7 -12 -10 -16 -7 -3 4
6 19 21 34 22 22 29 24 36 13 7 -12 9 -11 9 1 0 18 28 60 39 60 5 0 11 -19 14
-42z m84 -60 c-3 -8 -6 -5 -6 6 -1 11 2 17 5 13 3 -3 4 -12 1 -19z"/>
<path d="M2056 3960 c-17 -10 -36 -30 -43 -44 -16 -30 -28 -135 -20 -168 13
-50 114 -76 176 -44 30 16 64 60 54 70 -13 13 -51 5 -68 -14 -22 -25 -82 -24
-98 1 -15 24 1 127 24 150 26 26 61 24 87 -4 21 -22 53 -29 68 -14 12 12 -19
58 -48 73 -38 20 -98 17 -132 -6z"/>
<path d="M2329 3957 c-46 -31 -59 -62 -62 -147 -2 -67 0 -73 26 -96 34 -29
113 -33 157 -7 52 30 83 153 55 219 -24 58 -113 73 -176 31z m98 -33 c27 -8
32 -27 22 -99 -9 -66 -25 -85 -74 -85 -41 0 -56 26 -49 87 10 88 37 114 101
97z"/>
<path d="M2576 3948 c-7 -40 -26 -221 -26 -243 0 -21 54 -16 57 5 1 8 5 41 8
73 4 31 10 55 13 53 4 -2 16 -27 27 -55 28 -72 52 -70 101 9 20 33 38 59 40
57 2 -1 -1 -32 -6 -67 -13 -91 -13 -90 18 -90 l29 0 16 138 c10 75 17 140 17
145 0 4 -11 7 -25 7 -20 0 -36 -16 -82 -85 -31 -47 -59 -83 -62 -80 -3 4 -19
41 -36 83 -27 66 -35 77 -57 80 -23 3 -28 -1 -32 -30z"/>
<path d="M2926 3948 c-7 -39 -26 -221 -26 -243 0 -13 18 -15 110 -15 l110 0 0
25 c0 25 -1 25 -81 25 l-80 0 4 33 3 32 72 3 c69 3 72 4 72 27 0 24 -3 25 -65
25 l-65 0 0 35 0 35 85 0 c84 0 85 0 85 25 l0 25 -110 0 -109 0 -5 -32z"/>
<path d="M3197 3973 c-3 -4 -10 -53 -16 -108 -6 -55 -14 -117 -17 -137 -6 -37
-5 -38 24 -38 25 0 30 5 36 31 3 17 6 42 6 55 0 24 26 39 52 29 8 -3 26 -30
41 -60 24 -49 30 -55 57 -55 37 0 37 5 4 65 l-27 47 32 28 c25 23 31 37 31 68
0 61 -24 76 -130 80 -48 2 -90 0 -93 -5z m147 -49 c16 -6 22 -49 8 -58 -4 -2
-30 -6 -57 -7 -46 -3 -50 -1 -53 20 -6 39 5 51 47 51 22 0 46 -3 55 -6z"/>
<path d="M3535 3970 c-43 -17 -66 -56 -76 -124 -5 -37 -6 -78 -3 -92 11 -41
50 -64 111 -64 49 0 59 4 89 34 19 19 34 39 34 45 0 18 -49 12 -70 -9 -12 -12
-33 -20 -55 -20 -54 0 -62 27 -39 137 11 54 66 69 109 29 27 -26 65 -25 65 1
0 8 -13 28 -29 44 -24 23 -38 29 -73 28 -24 0 -52 -4 -63 -9z"/>
<path d="M3755 3968 c-2 -7 -9 -65 -15 -128 -6 -63 -14 -123 -16 -132 -4 -14
1 -18 25 -18 34 0 33 -3 51 150 15 131 14 140 -15 140 -14 0 -27 -6 -30 -12z"/>
<path d="M3944 3943 c-12 -21 -46 -84 -77 -141 -32 -56 -57 -105 -57 -107 0
-3 13 -5 30 -5 23 0 33 7 45 30 15 28 19 30 76 30 58 0 60 -1 70 -30 9 -24 17
-30 40 -30 16 0 29 3 29 8 0 4 -20 68 -44 142 -39 121 -46 135 -68 138 -19 2
-28 -5 -44 -35z m53 -98 l10 -45 -38 0 c-22 0 -39 3 -39 6 0 11 44 84 50 84 4
0 11 -20 17 -45z"/>
<path d="M4152 3893 c-7 -49 -15 -114 -18 -145 l-7 -58 110 0 c101 0 111 2
116 19 3 11 2 22 -1 25 -3 3 -41 6 -84 6 -71 0 -79 2 -74 18 2 9 7 46 11 82 3
36 8 82 11 103 6 36 5 37 -24 37 l-29 0 -11 -87z"/>
<path d="M1985 3583 c15 -85 97 -499 103 -513 3 -8 6 -24 8 -35 1 -11 7 -42
13 -70 6 -27 16 -79 22 -115 6 -36 18 -107 26 -157 l15 -93 77 0 77 0 54 113
c101 212 178 373 297 617 66 135 123 255 127 268 7 22 6 22 -77 22 l-83 0 -42
-88 c-23 -49 -42 -91 -42 -94 0 -3 -20 -48 -44 -99 -24 -52 -50 -110 -59 -129
-8 -19 -31 -70 -51 -113 -20 -43 -36 -80 -36 -82 0 -3 -12 -29 -26 -59 -14
-30 -27 -61 -28 -70 -3 -24 -24 -42 -35 -30 -5 5 -16 61 -25 124 -10 63 -23
151 -31 195 -8 44 -26 152 -40 240 -14 88 -28 170 -31 183 -4 21 -9 22 -90 22
l-85 0 6 -37z m272 -705 c-3 -7 -5 -2 -5 12 0 14 2 19 5 13 2 -7 2 -19 0 -25z
m183 7 c0 -8 -4 -15 -10 -15 -5 0 -7 7 -4 15 4 8 8 15 10 15 2 0 4 -7 4 -15z"/>
<path d="M3501 3453 c-13 -93 -30 -213 -37 -268 -7 -55 -17 -127 -22 -160 -5
-33 -8 -64 -5 -68 3 -4 0 -14 -6 -21 -6 -7 -16 -56 -22 -109 -21 -166 16 -217
162 -225 86 -5 81 -10 95 95 l6 52 -48 3 c-49 3 -49 3 -52 40 -2 20 7 99 18
175 12 76 28 183 35 238 8 55 23 162 35 238 28 195 34 177 -58 177 l-78 0 -23
-167z"/>
<path d="M5360 3615 c-3 -17 0 -88 6 -127 9 -60 23 -44 17 20 -5 58 -20 125
-23 107z"/>
<path d="M2964 3331 c-121 -30 -222 -136 -252 -266 -23 -97 -40 -245 -32 -278
9 -42 43 -108 67 -129 10 -10 41 -27 68 -40 66 -30 217 -32 285 -5 57 23 150
79 150 90 0 16 -74 97 -89 97 -8 0 -22 -6 -30 -13 -26 -23 -99 -47 -140 -47
-95 0 -161 55 -161 135 l0 24 234 3 c129 2 238 6 242 11 4 4 8 60 8 125 1 108
-1 121 -27 173 -30 61 -76 99 -143 118 -43 12 -133 13 -180 2z m166 -158 c25
-22 33 -39 39 -85 6 -47 5 -57 -8 -60 -23 -6 -302 -1 -307 5 -9 9 27 82 54
111 37 39 77 55 139 56 44 0 58 -5 83 -27z"/>
<path d="M4030 3331 c-78 -16 -178 -96 -211 -169 -28 -60 -69 -254 -69 -321 2
-145 88 -235 239 -248 64 -6 155 9 209 33 58 27 137 113 161 178 33 88 57 286
44 351 -26 122 -103 177 -252 181 -47 2 -102 -1 -121 -5z m157 -148 c60 -28
69 -66 48 -198 -9 -60 -23 -125 -30 -143 -55 -131 -272 -135 -287 -4 -3 21 1
78 7 127 20 140 49 192 126 219 58 20 93 20 136 -1z"/>
<path d="M4704 3326 c-105 -26 -173 -92 -195 -192 -10 -46 -10 -65 2 -112 13
-51 19 -58 59 -79 33 -17 76 -26 155 -34 124 -11 171 -23 184 -46 12 -22 -3
-71 -29 -93 -31 -27 -112 -43 -177 -35 -65 8 -92 18 -152 58 l-43 30 -57 -57
-56 -57 36 -32 c21 -18 66 -43 100 -57 55 -22 80 -25 179 -25 97 0 126 4 182
24 114 41 178 130 178 247 0 116 -51 159 -200 170 -173 13 -193 17 -209 45
-12 22 -12 29 0 55 22 45 71 64 164 64 78 0 125 -14 177 -52 15 -11 24 -6 68
37 27 27 50 55 50 62 0 18 -77 60 -145 77 -70 19 -199 19 -271 2z"/>
<path d="M5395 3327 c-22 -8 -55 -21 -73 -31 -34 -17 -101 -84 -102 -100 0 -5
-6 -17 -14 -25 -27 -31 -66 -183 -73 -282 -9 -143 20 -211 115 -266 43 -26 55
-28 152 -28 99 0 110 2 171 32 133 66 183 164 213 419 14 115 -31 217 -114
264 -38 20 -61 25 -140 27 -59 2 -110 -2 -135 -10z m156 -137 c49 -14 70 -48
71 -118 1 -66 -24 -197 -46 -240 -37 -71 -126 -107 -206 -83 -41 12 -64 39
-74 87 -9 42 20 227 44 273 36 72 123 105 211 81z"/>
<path d="M586 3228 c-43 -62 5 -167 55 -122 21 19 26 92 9 125 -14 26 -45 24
-64 -3z"/>
<path d="M810 3209 c-16 -37 -4 -97 23 -113 15 -9 22 -7 38 13 35 43 19 131
-25 131 -17 0 -27 -8 -36 -31z"/>
<path d="M1225 3150 c-3 -5 -1 -10 4 -10 6 0 11 5 11 10 0 6 -2 10 -4 10 -3 0
-8 -4 -11 -10z"/>
<path d="M962 3026 c4 -34 3 -35 -52 -53 -42 -14 -86 -18 -185 -18 -138 0
-169 7 -283 62 -29 14 -55 23 -59 20 -15 -16 151 -261 217 -320 131 -118 239
-73 345 143 28 55 54 99 60 97 65 -25 73 -13 20 27 -23 18 -35 35 -35 52 0 15
-6 24 -16 24 -13 0 -15 -8 -12 -34z m-461 -60 c128 -48 228 -53 383 -20 38 8
71 12 74 9 10 -10 -51 -125 -67 -125 -12 0 -13 -2 -3 -8 9 -6 4 -19 -20 -53
-41 -56 -65 -76 -107 -88 -86 -25 -190 71 -325 297 -10 16 -9 16 65 -12z"/>
<path d="M798 2813 c12 -2 30 -2 40 0 9 3 -1 5 -23 4 -22 0 -30 -2 -17 -4z"/>
<path d="M1401 2818 c-1 -10 -5 -18 -11 -18 -5 0 -10 -5 -10 -12 0 -8 6 -7 16
4 9 9 14 22 11 30 -4 9 -6 7 -6 -4z"/>
<path d="M1103 2803 c-7 -3 -13 -17 -13 -31 0 -24 1 -25 16 -10 18 18 16 47
-3 41z"/>
<path d="M1120 2747 c-1 -31 -24 -59 -44 -51 -15 6 -22 -11 -17 -40 1 -5 -4
-13 -11 -17 -10 -7 -10 -9 1 -9 11 0 11 -3 1 -15 -11 -13 -15 -13 -21 -3 -7
10 -9 9 -9 -4 0 -10 -5 -18 -12 -18 -6 0 -9 -3 -6 -6 5 -4 103 39 117 52 2 2
5 21 5 41 2 31 6 39 24 41 29 4 25 32 -5 43 -20 7 -23 5 -23 -14z m-10 -91 c0
-3 -4 -8 -10 -11 -5 -3 -10 -1 -10 4 0 6 5 11 10 11 6 0 10 -2 10 -4z"/>
<path d="M1070 2730 c0 -5 5 -10 10 -10 6 0 10 5 10 10 0 6 -4 10 -10 10 -5 0
-10 -4 -10 -10z"/>
<path d="M642 2540 l3 -61 -122 -65 -122 -65 -15 30 c-44 84 -128 17 -113 -91
11 -86 71 -118 105 -58 9 16 19 29 22 27 49 -29 166 -75 240 -94 77 -20 128
-26 268 -30 l172 -6 21 -46 c35 -79 79 -113 54 -41 -25 71 -28 132 -11 200 9
34 14 65 12 67 -2 2 -21 -16 -42 -41 l-38 -46 -171 0 c-206 0 -324 13 -385 43
-77 38 -69 51 83 145 74 45 137 82 141 82 3 0 6 -6 6 -14 0 -22 47 -55 71 -49
11 3 27 19 35 35 19 37 15 120 -6 123 -8 1 -59 5 -113 9 l-99 7 4 -61z"/>
<path d="M3067 2543 c-3 -10 -8 -43 -12 -73 -4 -30 -9 -63 -11 -72 -4 -12 0
-18 10 -18 11 0 16 10 17 33 1 17 4 43 9 57 7 23 8 21 20 -22 7 -27 15 -48 19
-48 3 0 19 20 34 45 16 25 31 45 33 45 5 0 -3 -59 -13 -92 -3 -11 1 -18 10
-18 10 0 17 17 21 53 4 28 10 69 13 90 4 30 2 37 -11 37 -9 0 -16 -4 -16 -10
0 -12 -53 -100 -61 -100 -3 0 -12 23 -20 52 -15 54 -34 72 -42 41z"/>
<path d="M3550 2550 c0 -5 5 -10 10 -10 6 0 10 5 10 10 0 6 -4 10 -10 10 -5 0
-10 -4 -10 -10z"/>
<path d="M3868 2533 c-3 -24 -7 -28 -29 -25 -41 5 -61 -22 -57 -77 l3 -46 41
-3 42 -3 11 64 c13 78 14 117 2 117 -5 0 -11 -12 -13 -27z m-19 -52 c22 -14 2
-75 -27 -79 -18 -3 -22 1 -22 23 0 28 16 65 28 65 4 0 13 -4 21 -9z"/>
<path d="M4605 2531 c-5 -25 -11 -29 -37 -27 -28 1 -33 -4 -46 -36 -8 -21 -12
-49 -8 -63 6 -22 12 -25 50 -25 l44 0 11 75 c6 42 11 82 11 90 0 26 -18 16
-25 -14z m-17 -65 c7 -33 -8 -66 -28 -66 -17 0 -20 7 -20 39 0 37 12 53 35 47
6 -2 12 -11 13 -20z"/>
<path d="M4967 2533 c-3 -16 -9 -56 -13 -90 l-7 -63 46 0 c42 0 46 2 56 31 22
64 5 107 -39 96 -17 -4 -20 0 -20 24 0 37 -16 38 -23 2z m61 -67 c7 -33 -8
-66 -28 -66 -17 0 -20 7 -20 39 0 37 12 53 35 47 6 -2 12 -11 13 -20z"/>
<path d="M5495 2528 c-4 -13 -9 -51 -11 -85 -4 -56 -2 -63 15 -63 16 0 18 6
13 47 -4 37 -1 49 14 61 13 10 15 16 7 19 -7 3 -13 13 -13 24 0 26 -16 24 -25
-3z"/>
<path d="M3270 2500 c-15 -10 -13 -11 30 -13 39 -3 31 -30 -10 -35 -39 -4 -51
-17 -48 -47 3 -16 12 -21 49 -23 l47 -3 7 51 c5 34 3 55 -5 65 -14 17 -48 19
-70 5z m48 -83 c3 -13 -4 -17 -27 -17 -32 0 -39 8 -20 27 15 15 43 9 47 -10z"/>
<path d="M3396 2480 c-16 -81 -18 -100 -7 -100 6 0 13 11 16 25 3 14 7 36 10
49 5 25 30 41 47 30 6 -4 8 -26 4 -55 -4 -31 -3 -49 3 -49 10 0 13 10 26 74 7
36 -12 55 -55 53 -34 -1 -40 -5 -44 -27z"/>
<path d="M3534 2445 c-8 -50 -7 -65 2 -65 8 0 15 22 20 58 8 67 8 66 -4 70 -5
1 -13 -27 -18 -63z"/>
<path d="M3617 2503 c-16 -15 -5 -24 22 -18 20 4 30 2 34 -9 8 -20 -1 -26 -39
-26 -27 0 -35 -5 -40 -24 -9 -36 2 -46 50 -46 l43 0 7 51 c5 33 3 56 -5 65
-12 14 -60 19 -72 7z m51 -86 c3 -13 -4 -17 -27 -17 -34 0 -44 25 -13 33 25 7
37 2 40 -16z"/>
<path d="M3939 2489 c-15 -15 -19 -30 -17 -62 3 -41 4 -42 41 -42 40 0 48 19
8 19 -44 1 -35 25 11 28 35 2 44 7 46 24 4 26 -22 54 -49 54 -10 0 -28 -9 -40
-21z m59 -22 c3 -12 -3 -17 -22 -17 -25 0 -35 18 -19 34 12 12 38 2 41 -17z"/>
<path d="M4110 2489 c0 -37 22 -109 34 -109 10 1 66 104 66 123 0 21 -21 2
-36 -33 -10 -22 -21 -40 -25 -40 -4 0 -10 18 -14 40 -7 42 -25 55 -25 19z"/>
<path d="M4251 2491 c-22 -22 -28 -74 -12 -99 5 -8 21 -12 41 -10 44 4 52 27
9 25 -18 -1 -34 4 -36 11 -3 8 8 12 35 12 43 0 52 11 42 50 -8 33 -51 39 -79
11z m57 -24 c3 -12 -4 -17 -22 -17 -27 0 -37 24 -13 33 19 8 32 2 35 -16z"/>
<path d="M4376 2471 c-9 -53 -7 -91 3 -91 5 0 12 22 16 49 6 47 24 69 46 55 5
-3 9 -27 9 -55 0 -27 4 -49 9 -49 11 0 26 108 17 118 -4 4 -27 7 -51 8 -42 2
-43 1 -49 -35z"/>
<path d="M4678 2493 c-22 -26 -30 -70 -18 -94 9 -16 19 -19 48 -17 40 3 42 22
3 22 -44 1 -36 26 8 26 40 0 41 1 41 34 0 47 -51 65 -82 29z m60 -26 c3 -12
-3 -17 -21 -17 -31 0 -40 10 -25 27 15 18 42 12 46 -10z"/>
<path d="M4806 2490 c-2 -8 -7 -37 -11 -64 -9 -63 16 -60 27 4 9 50 11 53 40
55 42 3 31 24 -11 22 -27 -1 -42 -6 -45 -17z"/>
<path d="M5117 2503 c-14 -14 -6 -22 21 -20 18 1 27 -3 27 -13 0 -9 -7 -14
-17 -12 -32 5 -58 -17 -58 -48 0 -29 1 -30 49 -30 l49 0 4 48 c6 60 -5 82 -41
82 -15 0 -31 -3 -34 -7z m47 -88 c-4 -8 -17 -15 -30 -15 -15 0 -24 6 -24 15 0
10 10 15 30 15 22 0 28 -4 24 -15z"/>
<path d="M5235 2455 c-9 -65 -8 -69 3 -73 6 -2 13 19 17 47 7 50 21 66 50 55
9 -4 15 0 15 9 0 12 -10 16 -40 14 l-39 -1 -6 -51z"/>
<path d="M5367 2503 c-14 -14 -6 -22 21 -20 38 3 36 -25 -3 -30 -39 -6 -57
-21 -53 -47 2 -17 11 -22 47 -24 52 -4 61 5 61 69 0 34 -5 49 -16 53 -21 8
-49 8 -57 -1z m43 -83 c0 -15 -7 -20 -25 -20 -29 0 -35 26 -7 33 30 8 32 7 32
-13z"/>
<path d="M5594 2502 c-29 -19 -43 -82 -25 -111 14 -21 62 -16 83 9 20 25 24
80 6 98 -13 13 -47 16 -64 4z m45 -21 c22 -14 2 -75 -27 -79 -19 -3 -22 1 -22
30 0 19 5 39 12 46 14 14 18 15 37 3z"/>
<path d="M1450 2425 c-12 -31 3 -75 25 -75 9 0 20 11 25 25 12 31 -3 75 -25
75 -9 0 -20 -11 -25 -25z"/>
<path d="M1216 2228 c-33 -47 -10 -138 34 -138 26 0 40 29 40 84 0 69 -42 100
-74 54z"/>
<path d="M4200 2123 c-156 -10 -561 -51 -566 -56 -1 -1 192 -2 429 -2 281 0
476 -5 557 -13 153 -16 339 -46 441 -73 102 -26 291 -99 365 -139 73 -40 222
-136 241 -156 17 -16 33 -18 33 -4 0 5 -18 40 -41 77 -46 77 -80 103 -245 183
-192 94 -434 158 -674 180 -104 9 -427 11 -540 3z"/>
</g>
</svg>
