<?xml version="1.0" standalone="no"?>
<!DOCTYPE svg PUBLIC "-//W3C//DTD SVG 20010904//EN"
 "http://www.w3.org/TR/2001/REC-SVG-20010904/DTD/svg10.dtd">
<svg version="1.0" xmlns="http://www.w3.org/2000/svg"
 width="512.000000pt" height="512.000000pt" viewBox="0 0 512.000000 512.000000"
 preserveAspectRatio="xMidYMid meet">

<g transform="translate(0.000000,512.000000) scale(0.100000,-0.100000)"
fill="#000000" stroke="none">
<path d="M825 5101 c-46 -21 -101 -79 -112 -119 -10 -35 -10 -4809 0 -4844 11
-40 66 -98 112 -119 38 -18 117 -19 1733 -19 1508 0 1697 2 1730 16 44 18 87
57 110 99 16 28 17 179 20 1898 1 1028 -1 1883 -6 1900 -9 36 -987 1162 -1034
1191 -24 15 -138 16 -1270 16 -1181 0 -1245 -1 -1283 -19z m2405 -711 l0 -530
29 -32 29 -33 466 -3 466 -3 0 -1039 0 -1040 -1660 0 -1660 0 0 1605 0 1605
1165 0 1165 0 0 -530z m-1594 -2801 c65 -11 155 -37 167 -49 8 -7 -39 -197
-52 -212 -4 -4 -31 2 -61 13 -68 27 -229 37 -283 20 -48 -16 -87 -63 -87 -105
0 -64 50 -101 239 -176 217 -86 311 -206 299 -382 -12 -166 -128 -289 -314
-333 -77 -19 -261 -18 -349 0 -102 22 -165 46 -165 64 0 22 47 201 54 208 3 4
23 -1 43 -10 126 -54 303 -69 378 -32 52 26 81 77 71 127 -12 63 -55 93 -239
169 -220 89 -319 226 -289 399 13 74 60 158 110 200 109 90 302 131 478 99z
m1087 -4 c198 -42 349 -188 413 -400 15 -47 19 -92 18 -205 0 -130 -3 -153
-27 -226 -43 -128 -121 -234 -215 -290 -18 -10 -32 -21 -32 -25 0 -4 53 -19
118 -34 64 -15 129 -30 143 -33 l26 -7 -39 -107 -40 -106 -141 48 c-78 26
-189 66 -247 89 -61 23 -152 49 -215 61 -250 45 -407 185 -471 421 -24 88 -24
290 0 379 30 113 81 205 154 280 141 142 345 200 555 155z m897 -500 l0 -495
240 0 240 0 0 -115 0 -115 -377 2 -378 3 -3 608 -2 607 140 0 140 0 0 -495z"/>
<path d="M2320 3809 c-252 -14 -452 -77 -534 -168 -35 -39 -60 -368 -34 -446
11 -33 11 -46 0 -80 -10 -29 -12 -74 -8 -170 7 -160 7 -167 0 -338 -5 -127 -4
-141 16 -182 47 -96 186 -175 390 -220 101 -22 364 -31 472 -16 194 28 343 83
430 161 71 62 81 98 74 266 -7 169 -7 157 0 330 4 108 2 148 -9 175 -12 29
-12 39 0 68 11 26 13 66 9 170 -7 194 -17 255 -46 287 -108 116 -415 182 -760
163z m-431 -443 c113 -59 324 -96 546 -96 226 0 440 39 552 100 31 16 60 30
65 30 9 0 11 -123 2 -168 -9 -46 -68 -100 -148 -138 -256 -121 -693 -121 -941
1 -77 38 -90 47 -123 89 -19 25 -22 41 -22 123 0 52 3 93 8 91 4 -2 31 -16 61
-32z m57 -392 c305 -136 860 -109 1070 51 18 14 35 25 38 25 12 0 6 -182 -8
-213 -52 -124 -297 -208 -611 -208 -275 0 -492 62 -584 166 -31 35 -31 37 -31
146 l0 110 33 -25 c18 -14 60 -37 93 -52z m1109 -480 c-28 -191 -551 -303
-943 -203 -74 19 -200 74 -232 101 -52 45 -60 67 -60 174 0 95 7 122 25 94 14
-22 153 -83 240 -105 177 -45 362 -55 545 -30 171 23 320 74 398 136 l27 21 3
-74 c2 -40 1 -92 -3 -114z"/>
<path d="M2475 1356 c-123 -58 -188 -191 -188 -386 0 -155 41 -271 120 -341
53 -46 99 -62 173 -62 139 0 235 94 276 270 21 91 14 245 -15 328 -63 178
-220 260 -366 191z"/>
</g>
</svg>
